<?xml version="1.0" encoding="utf-8"?>
<!-- Generator: Adobe Illustrator 17.1.0, SVG Export Plug-In . SVG Version: 6.00 Build 0)  -->
<!DOCTYPE svg PUBLIC "-//W3C//DTD SVG 1.1 Tiny//EN" "http://www.w3.org/Graphics/SVG/1.1/DTD/svg11-tiny.dtd">
<svg version="1.1" baseProfile="tiny" id="Layer_1" xmlns="http://www.w3.org/2000/svg" xmlns:xlink="http://www.w3.org/1999/xlink"
	 x="0px" y="0px" width="800px" height="600px" viewBox="0 0 800 600" xml:space="preserve">
<g>
	<g>
		<path fill="#818181" d="M107,153.4H85.5v266.3H62V153.4H39.3v-22.7H107V153.4z"/>
		<path fill="#818181" d="M181.7,151.8h-23.9V248h23.9V269h-70.6V248h23.5v-96.2h-23.5v-21.1h70.6V151.8z M133,364.4h0.8l23.9-81.8
			h23.5v137.1h-21.5V338H159l-25.2,81.8h-22.3V282.7H133V364.4z"/>
		<path fill="#818181" d="M221,130.7l18.6,199.4l2.5,47.1h1.7l2.5-47.5l18.2-199h24.4v289h-19.4V235.6h-1.7l-1.2,47.5l-11.1,136.7
			h-24.4l-12-136.3l-1.7-47.1h-1.7v183.3h-19.4v-289H221z"/>
		<path fill="#818181" d="M328.7,262.8h32.2v22.7h-32.2V397h32.2v22.7h-55.7v-289h55.7v22.7h-32.2V262.8z"/>
	</g>
</g>
</svg>
