<?xml version="1.0" encoding="utf-8"?>
<!-- Generator: Adobe Illustrator 17.1.0, SVG Export Plug-In . SVG Version: 6.00 Build 0)  -->
<!DOCTYPE svg PUBLIC "-//W3C//DTD SVG 1.1 Tiny//EN" "http://www.w3.org/Graphics/SVG/1.1/DTD/svg11-tiny.dtd">
<svg version="1.1" baseProfile="tiny" id="Layer_1" xmlns="http://www.w3.org/2000/svg" xmlns:xlink="http://www.w3.org/1999/xlink"
	 x="0px" y="0px" width="800px" height="600px" viewBox="0 0 800 600" xml:space="preserve">
<g>
	<path fill="#FFFFFF" d="M190.2,25.4h-1.7l-1.6-5h-4.7l-1.6,5h-1.7l4.7-14.3h2L190.2,25.4z M186.4,19l-1.9-5.9l-1.9,5.9H186.4z"/>
	<path fill="#FFFFFF" d="M283.9,25.4h-7.8V11.1h1.7V24h6.1V25.4z"/>
	<path fill="#FFFFFF" d="M379.2,25.4h-7.8V11.1h1.7V24h6.1V25.4z"/>
	<path fill="#FFFFFF" d="M32.3,92.4h-4.4v12.9h-1.6V92.4h-4.4v-1.3h10.5V92.4z"/>
	<path fill="#FFFFFF" d="M127.6,91.1l-4.5,8.2v6.1h-1.6v-6.1l-4.5-8.2h1.9l3.4,6.4l3.4-6.4H127.6z"/>
	<path fill="#FFFFFF" d="M214,91.1h3.6c1.4,0,2.5,0.3,3.3,1s1.2,1.6,1.2,2.8c0,1.2-0.4,2.2-1.2,2.9c-0.8,0.7-1.9,1.1-3.2,1.1h-2v6.4
		H214V91.1z M215.7,97.5h1.8c1.9,0,2.9-0.8,2.9-2.4c0-0.8-0.3-1.4-0.8-1.8c-0.5-0.5-1.2-0.7-2-0.7h-1.9V97.5z"/>
	<path fill="#FFFFFF" d="M27,170.7c1.6,0,2.8,0.6,3.7,1.9c0.8,1.3,1.3,3.1,1.3,5.5c0,2.4-0.4,4.2-1.3,5.5c-0.8,1.3-2.1,1.9-3.7,1.9
		c-1.6,0-2.8-0.6-3.6-1.9c-0.8-1.3-1.3-3.1-1.3-5.5c0-2.4,0.4-4.2,1.3-5.5C24.2,171.3,25.4,170.7,27,170.7z M27,184.1
		c2.1,0,3.2-2,3.2-5.9c0-4-1.1-6-3.2-6c-1,0-1.8,0.5-2.3,1.5c-0.5,1-0.8,2.5-0.8,4.4c0,1.9,0.3,3.4,0.8,4.4
		C25.2,183.6,26,184.1,27,184.1z"/>
	<path fill="#FFFFFF" d="M126.9,184.2c-1.2,0.9-2.5,1.3-3.9,1.3c-1.9,0-3.3-0.6-4.2-1.9c-1-1.3-1.4-3.1-1.4-5.5
		c0-2.3,0.5-4.2,1.4-5.5c0.9-1.3,2.3-2,4.3-2c0.7,0,1.4,0.1,2,0.3c0.7,0.2,1.2,0.4,1.6,0.7l-0.5,1.3c-1-0.5-2-0.8-3.1-0.8
		c-1.3,0-2.3,0.5-2.9,1.4c-0.6,1-1,2.5-1,4.5c0,4,1.3,5.9,3.9,5.9c1,0,1.7-0.2,2.2-0.6v-3.5h-2.6v-1.4h4.2V184.2z"/>
	<path fill="#FFFFFF" d="M223.3,185.2h-2.1l-4.2-6.5h-1.8v6.5h-1.7V171h4c1.4,0,2.4,0.3,3.2,1c0.8,0.7,1.2,1.6,1.2,2.7
		c0,0.9-0.3,1.6-0.9,2.3c-0.6,0.7-1.4,1.1-2.4,1.4L223.3,185.2z M215.2,177.3h2.1c0.9,0,1.6-0.2,2.1-0.7c0.5-0.5,0.8-1.1,0.8-1.8
		c0-1.6-1-2.4-2.9-2.4h-2.1V177.3z"/>
	<path fill="#FFFFFF" d="M32.7,265.2H31l-1.6-5h-4.7l-1.6,5h-1.7l4.7-14.3h2L32.7,265.2z M28.9,258.7l-1.9-5.9l-1.9,5.9H28.9z"/>
	<path fill="#FFFFFF" d="M118.7,250.9h3.6c1.4,0,2.5,0.3,3.3,1s1.2,1.6,1.2,2.8c0,1.2-0.4,2.2-1.2,2.9s-1.9,1.1-3.2,1.1h-2v6.4h-1.7
		V250.9z M120.4,257.3h1.8c1.9,0,2.9-0.8,2.9-2.4c0-0.8-0.3-1.4-0.8-1.8c-0.5-0.5-1.2-0.7-2-0.7h-1.9V257.3z"/>
	<path fill="#FFFFFF" d="M221.7,265.2h-1.7v-7.1h-4.9v7.1h-1.7v-14.3h1.7v5.7h4.9v-5.7h1.7V265.2z"/>
	<path fill="#FFFFFF" d="M318.2,250.9l-4.5,8.2v6.1h-1.6v-6.1l-4.5-8.2h1.9l3.4,6.4l3.4-6.4H318.2z"/>
	<path fill="#FFFFFF" d="M249.8,345.1h-6.5v-1.4h2.5v-11.4h-2.5v-1.4h6.5v1.4h-2.4v11.4h2.4V345.1z"/>
	<path fill="#FFFFFF" d="M344.9,332.4c-0.8-0.3-1.7-0.4-2.4-0.4c-0.9,0-1.6,0.2-2.1,0.6c-0.5,0.4-0.8,1-0.8,1.7
		c0,0.9,0.7,1.6,2.1,2.3c1.1,0.5,1.7,0.8,2.1,1c0.3,0.2,0.7,0.4,1,0.8c0.4,0.3,0.6,0.7,0.8,1.2c0.2,0.4,0.3,1,0.3,1.5
		c0,1.4-0.5,2.5-1.4,3.2c-0.9,0.8-2,1.1-3.3,1.1c-1.2,0-2.3-0.2-3.2-0.7l0.3-1.4c1.1,0.5,2,0.7,2.8,0.7c0.9,0,1.7-0.2,2.3-0.7
		c0.6-0.5,0.9-1.2,0.9-2c0-0.6-0.2-1.2-0.6-1.6c-0.4-0.4-1.1-0.9-2.1-1.4c-1-0.5-1.7-0.8-2-1c-0.3-0.2-0.6-0.4-0.9-0.7
		c-0.3-0.3-0.5-0.6-0.7-1c-0.2-0.4-0.2-0.8-0.2-1.2c0-1.2,0.4-2.1,1.3-2.8c0.8-0.7,1.9-1,3.2-1c1,0,1.9,0.1,2.8,0.4L344.9,332.4z"/>
	<path fill="#FFFFFF" d="M31.7,424c-1.2,0.9-2.5,1.3-3.9,1.3c-1.9,0-3.3-0.6-4.2-1.9c-1-1.3-1.4-3.1-1.4-5.5c0-2.3,0.5-4.2,1.4-5.5
		c0.9-1.3,2.3-2,4.3-2c0.7,0,1.4,0.1,2,0.3c0.7,0.2,1.2,0.4,1.6,0.7l-0.5,1.3c-1-0.5-2-0.8-3.1-0.8c-1.3,0-2.3,0.5-2.9,1.4
		c-0.6,1-1,2.5-1,4.5c0,4,1.3,5.9,3.9,5.9c1,0,1.7-0.2,2.2-0.6v-3.5h-2.6v-1.4h4.2V424z"/>
	<path fill="#FFFFFF" d="M126.2,425h-7.5v-14.3h7.4v1.4h-5.7v4.4h5.5v1.4h-5.5v5.5h5.8V425z"/>
	<path fill="#FFFFFF" d="M221.9,425h-1.8l-5.1-11.3V425h-1.7v-14.3h1.9l5.1,11.2v-11.2h1.6V425z"/>
	<path fill="#FFFFFF" d="M30.9,504.9h-7.5v-14.3h7.4v1.4h-5.7v4.4h5.5v1.4h-5.5v5.5h5.8V504.9z"/>
	<path fill="#FFFFFF" d="M128,504.9h-2.1l-4.2-6.5h-1.8v6.5h-1.7v-14.3h4c1.4,0,2.4,0.3,3.2,1c0.8,0.7,1.2,1.6,1.2,2.7
		c0,0.9-0.3,1.6-0.9,2.3c-0.6,0.7-1.4,1.1-2.4,1.4L128,504.9z M119.9,497h2.1c0.9,0,1.6-0.2,2.1-0.7c0.5-0.5,0.8-1.1,0.8-1.8
		c0-1.6-1-2.4-2.9-2.4h-2.1V497z"/>
	<path fill="#FFFFFF" d="M223.3,504.9h-1.7l-1.6-5h-4.7l-1.6,5H212l4.7-14.3h2L223.3,504.9z M219.5,498.5l-1.9-5.9l-1.9,5.9H219.5z"
		/>
	<path fill="#FFFFFF" d="M32.3,571.9h-4.4v12.9h-1.6v-12.9h-4.4v-1.3h10.5V571.9z"/>
	<path fill="#FFFFFF" d="M125.5,584.8H119v-1.4h2.5V572H119v-1.4h6.5v1.4h-2.4v11.4h2.4V584.8z"/>
	<path fill="#FFFFFF" d="M223.3,570.6l-4.7,14.3h-2l-4.7-14.3h1.7l3.9,12.3l3.9-12.3H223.3z"/>
	<path fill="#FFFFFF" d="M316.7,584.8h-7.5v-14.3h7.4v1.4h-5.7v4.4h5.5v1.4h-5.5v5.5h5.8V584.8z"/>
</g>
<g>
	<path fill="#FFFFFF" d="M129.3,25.4h-1.7l-1.6-5h-4.7l-1.6,5h-1.7l4.7-14.3h2L129.3,25.4z M125.5,19l-1.9-5.9l-1.9,5.9H125.5z"/>
	<path fill="#FFFFFF" d="M223,25.4h-7.8V11.1h1.7V24h6.1V25.4z"/>
	<path fill="#FFFFFF" d="M318.3,25.4h-7.8V11.1h1.7V24h6.1V25.4z"/>
	<path fill="#FFFFFF" d="M32.3,86.5h-4.4v12.9h-1.6V86.5h-4.4v-1.3h10.5V86.5z"/>
	<path fill="#FFFFFF" d="M127.6,85.2l-4.5,8.2v6.1h-1.6v-6.1l-4.5-8.2h1.9l3.4,6.4l3.4-6.4H127.6z"/>
	<path fill="#FFFFFF" d="M214,85.2h3.6c1.4,0,2.5,0.3,3.3,1s1.2,1.6,1.2,2.8c0,1.2-0.4,2.2-1.2,2.9c-0.8,0.7-1.9,1.1-3.2,1.1h-2v6.4
		H214V85.2z M215.7,91.6h1.8c1.9,0,2.9-0.8,2.9-2.4c0-0.8-0.3-1.4-0.8-1.8c-0.5-0.5-1.2-0.7-2-0.7h-1.9V91.6z"/>
	<path fill="#FFFFFF" d="M27,158.9c1.6,0,2.8,0.6,3.7,1.9c0.8,1.3,1.3,3.1,1.3,5.5c0,2.4-0.4,4.2-1.3,5.5c-0.8,1.3-2.1,1.9-3.7,1.9
		c-1.6,0-2.8-0.6-3.6-1.9c-0.8-1.3-1.3-3.1-1.3-5.5s0.4-4.2,1.3-5.5C24.2,159.5,25.4,158.9,27,158.9z M27,172.3c2.1,0,3.2-2,3.2-5.9
		c0-4-1.1-6-3.2-6c-1,0-1.8,0.5-2.3,1.5c-0.5,1-0.8,2.5-0.8,4.4c0,1.9,0.3,3.4,0.8,4.4C25.2,171.8,26,172.3,27,172.3z"/>
	<path fill="#FFFFFF" d="M126.9,172.4c-1.2,0.9-2.5,1.3-3.9,1.3c-1.9,0-3.3-0.6-4.2-1.9c-1-1.3-1.4-3.1-1.4-5.5
		c0-2.3,0.5-4.2,1.4-5.5c0.9-1.3,2.3-2,4.3-2c0.7,0,1.4,0.1,2,0.3c0.7,0.2,1.2,0.4,1.6,0.7l-0.5,1.3c-1-0.5-2-0.8-3.1-0.8
		c-1.3,0-2.3,0.5-2.9,1.4c-0.6,1-1,2.5-1,4.5c0,4,1.3,5.9,3.9,5.9c1,0,1.7-0.2,2.2-0.6v-3.5h-2.6v-1.4h4.2V172.4z"/>
	<path fill="#FFFFFF" d="M223.3,173.5h-2.1L217,167h-1.8v6.5h-1.7v-14.3h4c1.4,0,2.4,0.3,3.2,1c0.8,0.7,1.2,1.6,1.2,2.7
		c0,0.9-0.3,1.6-0.9,2.3c-0.6,0.7-1.4,1.1-2.4,1.4L223.3,173.5z M215.2,165.5h2.1c0.9,0,1.6-0.2,2.1-0.7c0.5-0.5,0.8-1.1,0.8-1.8
		c0-1.6-1-2.4-2.9-2.4h-2.1V165.5z"/>
	<path fill="#FFFFFF" d="M32.7,247.5H31l-1.6-5h-4.7l-1.6,5h-1.7l4.7-14.3h2L32.7,247.5z M28.9,241l-1.9-5.9l-1.9,5.9H28.9z"/>
	<path fill="#FFFFFF" d="M118.7,233.2h3.6c1.4,0,2.5,0.3,3.3,1s1.2,1.6,1.2,2.8c0,1.2-0.4,2.2-1.2,2.9c-0.8,0.7-1.9,1.1-3.2,1.1h-2
		v6.4h-1.7V233.2z M120.4,239.6h1.8c1.9,0,2.9-0.8,2.9-2.4c0-0.8-0.3-1.4-0.8-1.8c-0.5-0.5-1.2-0.7-2-0.7h-1.9V239.6z"/>
	<path fill="#FFFFFF" d="M221.7,247.5h-1.7v-7.1h-4.9v7.1h-1.7v-14.3h1.7v5.7h4.9v-5.7h1.7V247.5z"/>
	<path fill="#FFFFFF" d="M318.2,233.2l-4.5,8.2v6.1h-1.6v-6.1l-4.5-8.2h1.9l3.4,6.4l3.4-6.4H318.2z"/>
	<path fill="#FFFFFF" d="M324.4,321.5h-6.5v-1.4h2.5v-11.4h-2.5v-1.4h6.5v1.4H322v11.4h2.4V321.5z"/>
	<path fill="#FFFFFF" d="M419.5,308.8c-0.8-0.3-1.7-0.4-2.4-0.4c-0.9,0-1.6,0.2-2.1,0.6c-0.5,0.4-0.8,1-0.8,1.7
		c0,0.9,0.7,1.6,2.1,2.3c1.1,0.5,1.7,0.8,2.1,1c0.3,0.2,0.7,0.4,1,0.8c0.4,0.3,0.6,0.7,0.8,1.2c0.2,0.4,0.3,1,0.3,1.5
		c0,1.4-0.5,2.5-1.4,3.2c-0.9,0.8-2,1.1-3.3,1.1c-1.2,0-2.3-0.2-3.2-0.7l0.3-1.4c1.1,0.5,2,0.7,2.8,0.7c0.9,0,1.7-0.2,2.3-0.7
		c0.6-0.5,0.9-1.2,0.9-2c0-0.6-0.2-1.2-0.6-1.6c-0.4-0.4-1.1-0.9-2.1-1.4c-1-0.5-1.7-0.8-2-1c-0.3-0.2-0.6-0.4-0.9-0.7
		c-0.3-0.3-0.5-0.6-0.7-1c-0.2-0.4-0.2-0.8-0.2-1.2c0-1.2,0.4-2.1,1.3-2.8s1.9-1,3.2-1c1,0,1.9,0.1,2.8,0.4L419.5,308.8z"/>
	<path fill="#FFFFFF" d="M31.7,394.5c-1.2,0.9-2.5,1.3-3.9,1.3c-1.9,0-3.3-0.6-4.2-1.9c-1-1.3-1.4-3.1-1.4-5.5
		c0-2.3,0.5-4.2,1.4-5.5c0.9-1.3,2.3-2,4.3-2c0.7,0,1.4,0.1,2,0.3c0.7,0.2,1.2,0.4,1.6,0.7l-0.5,1.3c-1-0.5-2-0.8-3.1-0.8
		c-1.3,0-2.3,0.5-2.9,1.4c-0.6,1-1,2.5-1,4.5c0,4,1.3,5.9,3.9,5.9c1,0,1.7-0.2,2.2-0.6v-3.5h-2.6v-1.4h4.2V394.5z"/>
	<path fill="#FFFFFF" d="M126.2,395.5h-7.5v-14.3h7.4v1.4h-5.7v4.4h5.5v1.4h-5.5v5.5h5.8V395.5z"/>
	<path fill="#FFFFFF" d="M221.9,395.5h-1.8l-5.1-11.3v11.3h-1.7v-14.3h1.9l5.1,11.2v-11.2h1.6V395.5z"/>
	<path fill="#FFFFFF" d="M126.2,469.5h-7.5v-14.3h7.4v1.4h-5.7v4.4h5.5v1.4h-5.5v5.5h5.8V469.5z"/>
	<path fill="#FFFFFF" d="M223.3,469.5h-2.1l-4.2-6.5h-1.8v6.5h-1.7v-14.3h4c1.4,0,2.4,0.3,3.2,1c0.8,0.7,1.2,1.6,1.2,2.7
		c0,0.9-0.3,1.6-0.9,2.3c-0.6,0.7-1.4,1.1-2.4,1.4L223.3,469.5z M215.2,461.6h2.1c0.9,0,1.6-0.2,2.1-0.7c0.5-0.5,0.8-1.1,0.8-1.8
		c0-1.6-1-2.4-2.9-2.4h-2.1V461.6z"/>
	<path fill="#FFFFFF" d="M318.6,469.5h-1.7l-1.6-5h-4.7l-1.6,5h-1.7l4.7-14.3h2L318.6,469.5z M314.8,463.1l-1.9-5.9l-1.9,5.9H314.8z
		"/>
	<path fill="#FFFFFF" d="M32.3,530.6h-4.4v12.9h-1.6v-12.9h-4.4v-1.3h10.5V530.6z"/>
	<path fill="#FFFFFF" d="M125.5,543.6H119v-1.4h2.5v-11.4H119v-1.4h6.5v1.4h-2.4v11.4h2.4V543.6z"/>
	<path fill="#FFFFFF" d="M223.3,529.3l-4.7,14.3h-2l-4.7-14.3h1.7l3.9,12.3l3.9-12.3H223.3z"/>
	<path fill="#FFFFFF" d="M316.7,543.6h-7.5v-14.3h7.4v1.4h-5.7v4.4h5.5v1.4h-5.5v5.5h5.8V543.6z"/>
</g>
</svg>
