<?xml version="1.0" encoding="utf-8"?>
<!-- Generator: Adobe Illustrator 17.1.0, SVG Export Plug-In . SVG Version: 6.00 Build 0)  -->
<!DOCTYPE svg PUBLIC "-//W3C//DTD SVG 1.1//EN" "http://www.w3.org/Graphics/SVG/1.1/DTD/svg11.dtd">
<svg version="1.1" id="Layer_1" xmlns="http://www.w3.org/2000/svg" xmlns:xlink="http://www.w3.org/1999/xlink" x="0px" y="0px"
	 width="800px" height="600px" viewBox="0 0 800 600" enable-background="new 0 0 800 600" xml:space="preserve">
<g>
	<path fill="#F0F0F0" d="M78.7,37.5c-0.1,10.4-0.1,47.3,0.1,51.8c0.1,3.6,1.1,5.2,5.4,5.2h6.1v4.8c0,0-10.2-0.2-15.8-0.2
		c-5.8,0-16,0.2-16,0.2v-4.8h5.8c4.3,0,5.7-1.6,5.8-5.2c0.2-4.4,0.2-41.4,0-51.8H59c-6.5,0-8.9,2.8-9.2,8.4c-0.1,1-0.4,9-0.4,10h-5
		c0.2-5.7-0.1-17.8-0.5-23.4c2.5,0.3,7.8,0.5,13.4,0.5h34c7.3,0,10.4-0.2,13.3-0.5c-0.4,5.7-0.7,17.8-0.5,23.4h-4.9
		c0-1-0.3-9-0.4-10c-0.3-5.6-2.6-8.4-9.2-8.4H78.7z"/>
	<path fill="#F0F0F0" d="M142.7,59.3h-2.9v-3.9c0,0,6.2,0.2,11.2,0.2c4.7,0,10.1-0.2,10.1-0.2v3.9H158c-4.5,0-6.1,1.5-7.9,5.5
		c-3.2,7.3-10.5,26.7-13.8,35.4c-3.7,9.6-7.7,17.2-17.9,17.2c-6.6,0-9.6-3.6-9.6-7.7c0-4.3,3.2-6.1,5.9-6.1c3.5,0,5.6,1.6,5.6,5.1
		c0,2.6-2,5.2-5.7,5.4c1.1,0.4,2.4,0.6,4.1,0.6c6,0,10.7-3.3,15.5-17.7h-3c-2.7-7.8-9.1-24.8-12.4-32.6c-1.4-3.6-3.5-5.1-7.2-5.1
		h-1.9v-3.9c0,0,6.6,0.2,12.3,0.2c5.8,0,12.4-0.2,12.4-0.2v3.9h-3.1c-3.6,0-4.4,1.8-3.4,5.1c1.8,5.9,6.1,17.6,9,24.9
		c3.2-8.6,8.2-22.3,8.9-24.7C147,61.2,146,59.3,142.7,59.3z"/>
	<path fill="#F0F0F0" d="M181.7,90.7v14.9c0,4.6,1.2,6.3,6.2,6.3h2.5v4.2c-1.1,0-8.3-0.3-12.8-0.3c-4.6,0-12.2,0.3-12.9,0.3v-4.2h3
		c4.6,0,5.5-1.8,5.8-6.3c0.3-4.6,0.1-34.7,0-39.7c-0.2-5.1-1.1-6.6-6-6.6h-2.8v-3.9c4.3,0,13.2,0,16.9-0.3V65
		c2.5-7.3,7.7-10.9,15.4-10.9c11.2,0,17.1,7.8,17.1,23.2c0,15.7-6.5,23.4-17.8,23.4C189.3,100.6,184.2,97.4,181.7,90.7z M193.7,96
		c7.2,0,11.4-3.7,11.4-18.8c0-9.9-1.4-18.6-11.2-18.6c-7.7,0-12.2,6.7-12.2,18.7C181.7,86.9,183.8,96,193.7,96z"/>
	<path fill="#F0F0F0" d="M263.4,87.8c-2.5,7.8-8.4,13.1-18.8,13.1c-14,0-21.3-9-21.3-23.5c0-15.4,9.4-23.3,21.2-23.3
		c13.9,0,20,10.7,19,24.8h-31.2c0.3,13.4,5.2,17.9,13.5,17.9c8.5,0,11.9-4.2,13.6-9.8L263.4,87.8z M232.3,75.9H252
		c1.6,0,2.2-0.5,2.2-2.5c0-10.5-3.6-15.7-10.1-15.7C237.3,57.6,232.6,62.3,232.3,75.9z"/>
	<path fill="#F0F0F0" d="M309.3,89.6c0.1,4.8,1.3,5.5,5.4,5.5h3.2v4.1c-1.6,0-8.1-0.3-12.7-0.3c-4.5,0-11.7,0.3-12.7,0.3v-4.1h3.6
		c3.8,0,4.8-0.8,5-5.4c0.1-4.6,0.1-21.6,0-25.3c-0.2-3.6-0.8-5.2-5.5-5.2h-3.1v-3.9c4.3,0,13,0,16.7-0.3
		C309.3,55,309.1,84.9,309.3,89.6z M304.1,45.4c-3.2,0-5.9-2.6-5.9-6s2.7-6,5.9-6c3.4,0,6,2.6,6,6C310.1,42.8,307.5,45.4,304.1,45.4
		z"/>
	<path fill="#F0F0F0" d="M330.5,64.8c0,4.4,2.7,6.4,13.1,8c11.3,1.7,15.4,6.7,15.4,13.8c0,9-5.3,14.2-15.9,14.2
		c-4.6,0-8.5-1.4-12.6-4.3c-2.4-1.7-3.6-0.3-3.9,3.3c-0.6-0.1-2.5-0.1-3.1,0c0.8-5.8,1-11,0.5-17h3.1c2.3,8.5,7.8,13.8,16.1,13.8
		c6.6,0,10.1-3,10.1-7.2c0-3.9-2.6-6.5-12.8-7.9c-12.1-1.6-15.8-7.5-15.8-13.9c0-8.3,6.7-13.9,16.6-13.6c4.7,0.1,7.5,1.3,10.2,3.2
		c1.7,1.2,2.6,1,3.2-2.9h2.9c-0.8,6.4-0.8,8.9-0.5,15.2c-0.6-0.1-2.3-0.1-2.9,0c-1.7-8.1-6.2-11.3-13.5-11.3
		C333.7,58.1,330.5,61.3,330.5,64.8z"/>
	<path fill="#F0F0F0" d="M423.3,89.9c0,5,1.3,6.1,3.1,6.1c3,0,4.2-4.2,3.7-11.7l3.2-0.3c0.7,10.3-1.2,16.2-8.8,16.2
		c-7,0-9.1-4.5-9.2-9.4c-2.5,5.1-6.9,9.3-14.2,9.3c-8.1,0-13.3-3.7-13.3-11.6c0-11.6,14.3-14.3,27.5-15.1v-2.1
		c0-9.1-1.5-14.1-10.7-14c-4.1,0.1-6.9,1.1-8.9,2.7c3.6,0.1,5.6,2.2,5.6,5.2c0,3.3-2.2,5.3-5.8,5.3c-3.6,0-5.9-1.9-5.9-6.1
		c0-6.2,7.8-10.4,17.1-10.4c13.5,0,16.6,7,16.6,17.7L423.3,89.9L423.3,89.9z M415.2,79.9v-4.2c-11.5,0.8-18.1,4.5-18.1,12.5
		c0,4.7,2.6,7.5,6.9,7.5C410.9,95.6,415.2,90.4,415.2,79.9z"/>
	<path fill="#F0F0F0" d="M484.7,88.6c0.2,5.3,1,6.4,5.9,6.4h2.2v4.1c-1.5,0-7.9-0.3-12.3-0.3s-11.5,0.3-12.4,0.3V95h2.5
		c4.6,0,5.9-1.2,6-6.3c0.1-5.1,0.1-10.1,0-15.8c-0.2-8.9-2.8-14.3-10.2-14.3c-8.4,0-12.6,8.1-12.4,22.5l0.1,7.6
		c0.1,5.2,1.2,6.4,5.9,6.4h2.6v4.1c-1.6,0-8.2-0.3-12.7-0.3s-11.7,0.3-12.7,0.3v-4.1h3.1c4.9,0,5.5-1.3,5.7-6.3
		c0.2-5.5,0.1-18.5,0-23c-0.2-4.4-0.6-6.5-5.9-6.5h-2.7v-3.9c4.3,0,13,0,16.7-0.3v10.4c2.4-7.7,7.6-11.4,15.2-11.4
		c11.3,0,15.7,6.9,15.5,18.1C484.7,78.7,484.7,84.6,484.7,88.6z"/>
	<path fill="#F0F0F0" d="M543.2,54c12.9,0,21.5,7.8,21.5,23.6c0,15.3-8.6,23.2-21.5,23.2c-13.2,0-21.4-8-21.4-23.2
		C521.8,61.7,530.4,54,543.2,54z M543.2,97.4c6.4,0,12.2-3,12.2-19.9c0-16.8-6-20.2-12.2-20.2c-6.4,0-12,3.6-12,20.3
		C531.2,94.4,536.8,97.4,543.2,97.4z"/>
	<path fill="#F0F0F0" d="M583.8,88.3c-1.9,3.5-3.6,7.9-4.2,11.7h-3.8c0.9-4.9,1.1-9.2,1.2-12.8c0.2-4.5,0.2-40.9,0-46.3
		c-0.1-2.9-1.2-4-3.9-4h-4.6v-4c3,0,14.4,0,16.9-0.2c-0.2,8.5-0.2,13.9-0.2,22.6v9.5c2.6-7.1,7.9-10.8,15.5-10.8
		c10.6,0,17.1,7.1,17.1,23.2c0,15.7-6.4,23.4-17.9,23.4C592.1,100.6,586.2,97.1,583.8,88.3z M597.1,96c7.1,0,11.4-3.6,11.4-18.8
		c0-9.9-1.4-18.6-11.2-18.6c-7.9,0-12.3,6.8-12.3,18.7C585,86.9,587.1,96,597.1,96z"/>
	<path fill="#F0F0F0" d="M619.4,113.8c1.2,0.8,2.6,1.2,4.6,1.2c5,0,8-2.6,8-13.5c0-6.4,0.1-31.1,0-37.3c-0.1-3.1-1.3-4.9-4.9-4.9
		h-3.6v-3.9c4.3,0,13.3,0,17.1-0.3c-0.3,3.2-0.4,10.7-0.4,14.2v30c0,13.3-5.6,18.8-14.6,18.8c-6.8,0-11.3-3.2-11.3-8.3
		c0-3.6,2.2-5.7,5.6-5.7c3.4,0,5.4,1.9,5.4,5C625.1,111.2,623.4,114.1,619.4,113.8z M635,45.4c-3.3,0-5.9-2.6-5.9-6s2.6-6,5.9-6
		s6,2.6,6,6C641,42.8,638.3,45.4,635,45.4z"/>
	<path fill="#F0F0F0" d="M691.3,87.8c-2.5,7.8-8.4,13.1-18.8,13.1c-14,0-21.3-9-21.3-23.5c0-15.4,9.4-23.3,21.2-23.3
		c13.9,0,20,10.7,19,24.8h-31.2c0.3,13.4,5.2,17.9,13.5,17.9c8.5,0,11.9-4.2,13.6-9.8L691.3,87.8z M660.2,75.9h19.7
		c1.6,0,2.2-0.5,2.2-2.5c0-10.5-3.6-15.7-10.1-15.7C665.2,57.6,660.5,62.3,660.2,75.9z"/>
	<path fill="#F0F0F0" d="M738.9,87.6c-1.8,6.8-6.8,13.1-18.2,13.1c-13.3,0-20.5-8.4-20.5-23c0-14.3,8.2-23.6,21.5-23.6
		c9.8,0,16.1,4.7,16.1,10.6c0,3.8-2.2,5.9-6,5.9c-3.6,0-5.6-2.1-5.6-5.2c0-2.5,1.2-4.7,4.6-5.2c-2.1-1.6-5-2.7-9-2.7
		c-8.7,0-12.6,6-12.6,20.3c0,14.5,4.1,18.8,12.4,18.8c8.3,0,11.6-3.9,13.2-9.8L738.9,87.6z"/>
	<path fill="#F0F0F0" d="M773.2,84.9c0.9,8.6-1.4,15.4-10.5,15.4c-8.3,0-11.8-4.9-11.7-14.8c0.1-5.7,0-21.6,0-26.3h-6.3V56
		c8.5-0.7,11-5.7,12.3-18.4h3.6c-0.5,4.5-1,13.5-1,18.1l11.8-0.6v4.1l-11.9-0.1c0,6.8,0.1,21.1,0.1,25.9c0,8.5,1.6,11,5.2,11
		c4.2,0.1,6-2.9,5.5-11L773.2,84.9z"/>
	<path fill="#F0F0F0" d="M65.5,156.1c12.9,0,21.5,7.8,21.5,23.6c0,15.3-8.6,23.2-21.5,23.2c-13.2,0-21.4-8-21.4-23.2
		C44.1,163.8,52.6,156.1,65.5,156.1z M65.5,199.5c6.4,0,12.2-3,12.2-19.9c0-16.8-6-20.2-12.2-20.2c-6.4,0-12,3.6-12,20.3
		C53.5,196.5,59,199.5,65.5,199.5z"/>
	<path fill="#F0F0F0" d="M102.1,157.7v-3c-0.3-15.1,6.5-20.3,16.2-20.3c8.1,0,12.5,4.8,12.5,9.7c0,3.5-2.1,5.6-5.5,5.6
		c-3.1,0-5.1-1.8-5.1-4.8c0-2.9,1.9-4.7,5.2-4.7c0.3,0,0.6,0,0.9,0.1c-1.5-1.7-3.7-2.9-6.7-2.9c-6.2,0-9.2,3.5-9.3,14.1v6.1l9.2-0.3
		v3.9l-9.2-0.2c0,8.8-0.1,27.5,0,31.6c0.1,2.7,0.8,4.4,4.2,4.4h4.9v4.1c-1.6,0-8.4-0.3-13.1-0.3s-12.2,0.3-13.2,0.3V197h4.8
		c2.8,0,4-1.7,4.1-4.4c0.1-9.4,0.1-23.1,0.1-31.6l-8.3,0.2v-3.9L102.1,157.7z"/>
	<path fill="#F0F0F0" d="M189.7,189.7c-1.8,6.8-6.8,13.1-18.2,13.1c-13.3,0-20.5-8.4-20.5-23c0-14.3,8.2-23.6,21.5-23.6
		c9.8,0,16.1,4.7,16.1,10.6c0,3.8-2.2,5.9-6.1,5.9c-3.6,0-5.6-2.1-5.6-5.2c0-2.5,1.2-4.7,4.6-5.2c-2.1-1.6-5-2.7-9-2.7
		c-8.7,0-12.6,6-12.6,20.3c0,14.5,4.1,18.8,12.4,18.8c8.3,0,11.6-3.9,13.2-9.8L189.7,189.7z"/>
	<path fill="#F0F0F0" d="M212.4,191.7c0.1,4.8,1.3,5.5,5.4,5.5h3.2v4.1c-1.6,0-8.1-0.3-12.7-0.3c-4.5,0-11.7,0.3-12.7,0.3v-4.1h3.6
		c3.8,0,4.8-0.8,5-5.4c0.1-4.6,0.1-21.6,0-25.3c-0.2-3.6-0.8-5.2-5.5-5.2h-3.1v-3.9c4.3,0,13,0,16.7-0.3
		C212.4,157.1,212.2,187,212.4,191.7z M207.2,147.5c-3.2,0-5.9-2.6-5.9-6s2.7-6,5.9-6c3.4,0,6,2.6,6,6S210.6,147.5,207.2,147.5z"/>
	<path fill="#F0F0F0" d="M242.2,179v12.1c0,5.2,1.2,6,5.9,6h3.8v4.1c-1.6,0-8.5-0.3-13.3-0.3s-12.4,0.3-13.3,0.3v-4.1h3.1
		c4.9-0.1,5.5-1,5.7-6c0.1-5,0.2-19,0-23.6c-0.1-4.4-0.6-6.2-5.9-6.2h-2.7v-3.9c4.3,0,13,0,16.7-0.3l-0.8,10.5
		c1.9-8.2,6.2-11.5,12.4-11.5c6.9,0,9.8,4.3,9.8,9.4c0,4.5-2.4,7-6.1,7c-3.5,0-5.5-1.8-5.5-5.3c0-3.9,3.6-5.6,6.9-5
		c-1-1.7-3.1-2.8-6.1-2.8C246.1,159.4,242.2,165.8,242.2,179z"/>
	<path fill="#F0F0F0" d="M306.7,189.7c-1.8,6.8-6.8,13.1-18.2,13.1c-13.3,0-20.5-8.4-20.5-23c0-14.3,8.2-23.6,21.5-23.6
		c9.8,0,16.1,4.7,16.1,10.6c0,3.8-2.2,5.9-6.1,5.9c-3.6,0-5.6-2.1-5.6-5.2c0-2.5,1.2-4.7,4.6-5.2c-2.1-1.6-5-2.7-9-2.7
		c-8.7,0-12.6,6-12.6,20.3c0,14.5,4.1,18.8,12.4,18.8s11.6-3.9,13.2-9.8L306.7,189.7z"/>
	<path fill="#F0F0F0" d="M358.5,170.4c-0.1,3,0,17.5,0.1,20.8c0.1,4.5,1.5,6,6.1,6h2.4v3.9c-4.3,0-13,0-16.7,0.3v-9.9
		c-2.2,6.8-6.9,11.3-15,11.3s-15.4-3.9-15.2-18.3c0.1-3.7,0.2-12.7,0-17.3c-0.1-4.4-0.8-5.9-5.8-5.9h-2.6v-3.9h8.1
		c2.5,0,7.5-0.1,8.7-0.3c-0.3,5.3-0.3,8.9-0.3,13.2v13.8c0,13.7,7.6,14.1,10,14.1c8.2,0,12-6.4,12-21.7v-9.3c0-4.8-1.4-5.9-7.1-5.9
		h-2.1v-3.9h9.6c2.4,0,6.6,0,8.1-0.3C358.6,161.9,358.6,166.5,358.5,170.4z"/>
	<path fill="#F0F0F0" d="M449.1,190.7c0.2,5.3,0.9,6.4,5.8,6.4h2.6v4.1c-1.5,0-8-0.3-12.5-0.3c-4.4,0-11.6,0.3-12.5,0.3v-4.1h2.5
		c4.6,0,5.8-1.2,6-6.3c0.1-5.1,0.1-10.7,0-15.8c-0.2-8.9-2.6-14.3-10-14.3c-8.7,0-12.3,7.8-12.3,22.5v7.6c0,5.3,1,6.4,5.9,6.4h2.6
		v4.1c-1.5,0-8-0.3-12.5-0.3s-11.6,0.3-12.5,0.3v-4.1h2.4c4.6,0,5.9-1.2,6-6.3c0.2-5.1,0.2-10.5,0-15.8c-0.2-8.9-2.5-14.3-9.9-14.3
		c-8.4,0-12.6,7.1-12.4,22.5l0.1,7.6c0.1,5.2,1.2,6.4,5.9,6.4h2.6v4.1c-1.6,0-8.2-0.3-12.7-0.3s-11.7,0.3-12.7,0.3v-4.1h3.1
		c4.9-0.1,5.4-1.3,5.7-6.3c0.2-5,0.2-18.4,0-23c-0.2-4.4-0.6-6.5-5.9-6.5h-2.7v-3.9c4.3,0,13,0,16.7-0.3v10.2
		c2.5-7.6,7.7-11.2,15.2-11.2c9.3,0,13.5,4.8,14.8,12.8c2.3-8.6,7.7-12.8,15.7-12.8c11.2,0,15.3,6.9,15.2,18.1
		C449.1,174.1,448.9,185.5,449.1,190.7z"/>
	<path fill="#F0F0F0" d="M469.1,166.9c0,4.4,2.7,6.4,13.1,8c11.3,1.7,15.4,6.7,15.4,13.8c0,9-5.3,14.2-15.9,14.2
		c-4.6,0-8.5-1.4-12.6-4.3c-2.4-1.7-3.6-0.3-3.9,3.3c-0.6-0.1-2.5-0.1-3.1,0c0.8-5.8,1-11,0.5-17h3.1c2.3,8.5,7.8,13.8,16.1,13.8
		c6.6,0,10.1-3,10.1-7.2c0-3.9-2.6-6.5-12.8-7.9c-12.1-1.6-15.8-7.5-15.8-13.9c0-8.3,6.7-13.9,16.6-13.6c4.7,0.1,7.5,1.3,10.2,3.2
		c1.7,1.2,2.6,1,3.2-2.9h2.9c-0.8,6.4-0.8,8.9-0.5,15.2c-0.6-0.1-2.3-0.1-2.9,0c-1.7-8.1-6.2-11.3-13.5-11.3
		C472.3,160.2,469.1,163.4,469.1,166.9z"/>
	<path fill="#F0F0F0" d="M531.7,187c0.9,8.6-1.4,15.4-10.5,15.4c-8.3,0-11.8-4.9-11.7-14.8c0.1-5.7,0-21.6,0-26.3h-6.3v-3.2
		c8.5-0.7,11-5.7,12.3-18.4h3.6c-0.5,4.5-1,13.5-1,18.1l11.8-0.6v4.1l-11.9-0.1c0,6.8,0.1,21.1,0.1,25.9c0,8.5,1.6,11,5.2,11
		c4.2,0.1,6-2.9,5.5-11L531.7,187z"/>
	<path fill="#F0F0F0" d="M572.8,192c0,5,1.3,6,3.1,6c3,0,4.2-4.2,3.7-11.7l3.2-0.3c0.7,10.3-1.2,16.2-8.8,16.2c-7,0-9.1-4.5-9.2-9.4
		c-2.5,5.1-6.9,9.3-14.2,9.3c-8.1,0-13.3-3.7-13.3-11.6c0-11.6,14.3-14.3,27.5-15.1v-2.1c0-9.1-1.5-14.1-10.7-14
		c-4.1,0.1-6.9,1.1-8.9,2.7c3.6,0.1,5.6,2.2,5.6,5.2c0,3.3-2.2,5.3-5.8,5.3s-5.9-1.9-5.9-6.1c0-6.2,7.8-10.4,17.1-10.4
		c13.5,0,16.6,7,16.6,17.7L572.8,192L572.8,192z M564.7,182v-4.2c-11.5,0.8-18.1,4.5-18.1,12.5c0,4.7,2.6,7.5,6.9,7.5
		C560.4,197.8,564.7,192.5,564.7,182z"/>
	<path fill="#F0F0F0" d="M634.3,190.7c0.2,5.3,1,6.4,5.9,6.4h2.2v4.1c-1.5,0-7.9-0.3-12.3-0.3c-4.4,0-11.5,0.3-12.4,0.3v-4.1h2.5
		c4.6,0,5.9-1.2,6-6.3s0.1-10.1,0-15.8c-0.2-8.9-2.8-14.3-10.2-14.3c-8.4,0-12.6,8.1-12.4,22.5l0.1,7.6c0.1,5.2,1.2,6.4,5.9,6.4h2.6
		v4.1c-1.6,0-8.2-0.3-12.7-0.3s-11.7,0.3-12.7,0.3v-4.1h3.1c4.9,0,5.5-1.3,5.7-6.3c0.2-5.5,0.1-18.5,0-23c-0.2-4.4-0.6-6.5-5.9-6.5
		H587v-3.9c4.3,0,13,0,16.7-0.3v10.4c2.4-7.7,7.6-11.4,15.2-11.4c11.3,0,15.7,6.9,15.5,18.1C634.3,180.8,634.2,186.7,634.3,190.7z"
		/>
	<path fill="#F0F0F0" d="M686.5,189.7c-1.8,6.8-6.8,13.1-18.2,13.1c-13.3,0-20.5-8.4-20.5-23c0-14.3,8.2-23.6,21.5-23.6
		c9.8,0,16.1,4.7,16.1,10.6c0,3.8-2.2,5.9-6,5.9c-3.6,0-5.6-2.1-5.6-5.2c0-2.5,1.2-4.7,4.6-5.2c-2.1-1.6-5-2.7-9-2.7
		c-8.7,0-12.6,6-12.6,20.3c0,14.5,4.1,18.8,12.4,18.8c8.3,0,11.6-3.9,13.2-9.8L686.5,189.7z"/>
	<path fill="#F0F0F0" d="M733.7,189.9c-2.5,7.8-8.4,13.1-18.8,13.1c-14,0-21.3-9-21.3-23.5c0-15.4,9.4-23.3,21.2-23.3
		c13.9,0,20,10.7,19,24.8h-31.2c0.3,13.4,5.2,17.9,13.5,17.9c8.5,0,11.9-4.2,13.6-9.8L733.7,189.9z M702.5,178h19.7
		c1.6,0,2.2-0.5,2.2-2.5c0-10.5-3.6-15.7-10.1-15.7C707.5,159.7,702.8,164.4,702.5,178z"/>
</g>
</svg>
