<?xml version="1.0" encoding="utf-8"?>
<!-- Generator: Adobe Illustrator 17.1.0, SVG Export Plug-In . SVG Version: 6.00 Build 0)  -->
<!DOCTYPE svg PUBLIC "-//W3C//DTD SVG 1.1 Tiny//EN" "http://www.w3.org/Graphics/SVG/1.1/DTD/svg11-tiny.dtd">
<svg version="1.1" baseProfile="tiny" id="Layer_1" xmlns="http://www.w3.org/2000/svg" xmlns:xlink="http://www.w3.org/1999/xlink"
	 x="0px" y="0px" width="800px" height="600px" viewBox="0 0 800 600" xml:space="preserve">
<g>
	<g>
		<path fill="#F1F0F0" d="M59.3,177.9c-3.1,0-6.1,0-9.2,0c-3.1,0-6.1,0-9.2,0v-0.8l2-0.3c2.7-0.5,3.1-1.2,3.1-3.4v-26.5h-1.5
			c-3.1,0-5.2,2.4-8.8,11h-0.8l0.1-11.9h29.8l0.2,11.9h-0.8c-3.7-8.6-5.8-11-8.8-11h-1.5v26.5c0,2.3,0.4,3,3.1,3.4l2.1,0.3V177.9z"
			/>
		<path fill="#F1F0F0" d="M70.9,189.2c-3.1,0-4.9-1.9-4.9-4.5c0-2.2,1.5-4.1,4.1-4.1c2.2,0,3.3,1.2,3.5,2.7c0.1,1.3-0.5,1.8-0.4,2.4
			c0,0.4,0.2,0.6,0.7,0.6c1.1,0,2.8-1.4,5-7.3l0.2-0.7l-8.5-18.8c-1.2-2.7-1.9-3.6-3.4-3.9l-1.1-0.2v-0.7c2.4,0,4.8,0,7.3,0
			c2.4,0,4.7,0,7.1,0v0.7l-1.3,0.2c-1.7,0.2-1.9,1.5-1.1,3.5l4.5,11.1l3.2-8.6c0.7-1.7,0.9-2.8,0.9-3.7c0-1.3-0.9-2-2.7-2.4
			l-1.2-0.2v-0.7c1.6,0,3.3,0,5,0c1.7,0,3.3,0,5,0v0.7l-0.8,0.2c-2.7,0.7-3.6,2-5.4,6.4l-6.4,16.2C76.9,187.1,74.8,189.2,70.9,189.2
			z"/>
		<path fill="#F1F0F0" d="M106.4,188.7c-2.4,0-4.6,0-7,0c-2.4,0-4.6,0-7,0V188l1.4-0.2c1.7-0.3,2.1-0.9,2.1-2.8v-25.1
			c0-2.2-0.5-2.6-2.6-2.8l-1.4-0.1v-0.7l9.7-1.9l0.9,0.3c-0.2,2.6-0.3,5-0.3,9.2c0-5.9,1.5-9.7,6.3-9.7c4.9,0,9.8,3.6,9.8,11.9
			c0,9.1-6.7,12.6-11.8,12.6c-1.3,0-2.5-0.1-3.7-0.5v6.8c0,2.1,0.4,2.6,2.2,2.9l1.4,0.2V188.7z M110.9,166.2
			c0-7.8-1.1-10.5-3.8-10.5c-2.8,0-4.1,3.1-4.1,8.2v12.4c0.8,1.1,1.9,1.6,3.4,1.6C109.2,177.8,110.9,175.1,110.9,166.2z"/>
		<path fill="#F1F0F0" d="M132.8,178.6c-5.9,0-11.7-4.1-11.7-12.2c0-8,5.7-12.2,11.7-12.2s11.6,4.2,11.6,12.2
			C144.4,174.4,138.7,178.6,132.8,178.6z M132.8,177.8c3.3,0,4.2-4,4.2-11.4c0-7.3-0.8-11.4-4.2-11.4s-4.2,4.1-4.2,11.4
			C128.6,173.7,129.4,177.8,132.8,177.8z"/>
		<path fill="#F1F0F0" d="M146.2,183.5c0-2.1,1.4-3.5,3.6-3.5c1.5,0,2.4,0.8,2.3,2.1c-1.2,0.1-2,1-2,2.3c0,2.4,2.5,4.1,8.3,4.1
			c5.7,0,8.9-2,8.9-4.6c0-2.4-2.4-2.9-8.2-3.2c-7.1-0.3-10.7-2.1-10.7-5.9c0-2.9,2.1-4.9,7.7-4.9c0.2,0,0.4,0,0.6,0
			c-5.9,0-9.4-3.2-9.4-7.8c0-5,4-8,9.4-8c2.5,0,4.8,0.7,6.5,2c1.6-1.5,3.3-2.4,5.3-2.4c2.4,0,3.9,1.4,3.9,3.4c0,1.9-1.4,3.1-3.1,3.1
			s-2.7-1.1-2.7-2.6c0-0.8,0.2-1.4,0.2-1.8c0-0.3-0.2-0.5-0.6-0.5c-0.6,0-1.5,0.5-2.5,1.3c1.6,1.5,2.6,3.5,2.6,5.9
			c0,5.1-4.1,7.9-10,7.9c-3.4,0-4.4,0.6-4.4,1.5c0,1.2,1.7,1.5,7.9,1.8c7.8,0.4,11,2.5,11,7.2c0,5.6-5.2,8.3-12.5,8.3
			C151.2,189.3,146.2,187.5,146.2,183.5z M156.9,169.6c2.4,0,3.1-2.7,3.1-7.4c0-4.9-0.8-7.3-3.1-7.3c-2.3,0-3.1,2.4-3.1,7.3
			C153.8,167,154.6,169.6,156.9,169.6z"/>
		<path fill="#F1F0F0" d="M180.2,177.8c-2.4,0-4.5,0-7,0v-0.7l1.4-0.2c1.7-0.3,2.1-0.8,2.1-2.8v-14.2c0-2.2-0.5-2.6-2.6-2.8
			l-1.4-0.1v-0.7l9.7-1.9l0.9,0.3c-0.2,2.7-0.3,6-0.3,14.6c0-2.1,0.1-4.3,0.4-6.8c0.7-4.5,2.4-8.4,6.8-8.4c2.9,0,4.6,1.8,4.6,4.3
			c0,2.8-1.9,4.4-4.3,4.4c-1.9,0-3.1-1-3.3-2.4c-0.1-0.6-0.2-1-0.2-1.4c0-0.5-0.2-0.7-0.5-0.7c-0.9,0-1.8,1.7-2.3,4.5
			c-0.4,2.6-0.5,5.5-0.5,6.5v4.7c0,2.2,0.5,2.7,2.3,3l1.5,0.2v0.7C185,177.9,182.6,177.8,180.2,177.8z"/>
		<path fill="#F1F0F0" d="M215.4,178.5c-3.1,0-4.8-1.3-5.3-4.9c-0.6,3.2-3.2,5-7.1,5c-4.9,0-7-2.5-7-5.6c0-4.9,5-6.8,13.4-7.5v-4.7
			c0-4.3-0.7-5.9-3.6-5.9c-2.3,0-3.4,0.9-3.4,1.8c0,1.6,2.4,1.5,2.4,4.2c0,2.2-1.6,3.4-3.7,3.4c-2.3,0-3.9-1.6-3.9-4
			c0-3.4,3.3-6.2,9-6.2c6.5,0,10,2.9,10,8.4c0,1.1,0,11,0,11.8c0,1.4,0.4,2.1,1.4,2.1c1.1,0,1.8-1,2-5.2h0.8
			C220.3,176.8,218.9,178.5,215.4,178.5z M209.5,172l0-5.9c-4.4,0.7-6.4,2.2-6.4,6.6c0,2.6,1.1,4,2.9,4
			C207.9,176.7,209.5,175.3,209.5,172z"/>
		<path fill="#F1F0F0" d="M234.2,188.7c-2.4,0-4.6,0-7,0c-2.4,0-4.6,0-7,0V188l1.4-0.2c1.7-0.3,2.1-0.9,2.1-2.8v-25.1
			c0-2.2-0.5-2.6-2.6-2.8l-1.4-0.1v-0.7l9.7-1.9l0.9,0.3c-0.2,2.6-0.3,5-0.3,9.2c0-5.9,1.5-9.7,6.3-9.7c4.9,0,9.8,3.6,9.8,11.9
			c0,9.1-6.7,12.6-11.8,12.6c-1.3,0-2.5-0.1-3.7-0.5v6.8c0,2.1,0.4,2.6,2.2,2.9l1.4,0.2V188.7z M238.6,166.2
			c0-7.8-1.1-10.5-3.8-10.5c-2.8,0-4.1,3.1-4.1,8.2v12.4c0.8,1.1,1.9,1.6,3.4,1.6C236.9,177.8,238.6,175.1,238.6,166.2z"/>
		<path fill="#F1F0F0" d="M276.1,177.9c-2.4,0-4.3,0-6.7,0c-2.3,0-4.4,0-6.8,0v-0.7l1.3-0.2c1.4-0.3,1.7-0.7,1.7-2.7v-13.3
			c0-3.4-0.9-4.7-2.9-4.7c-2.5,0-4.6,3.3-4.6,9.4v8.6c0,2,0.3,2.4,1.7,2.7l1.3,0.2v0.7c-2.3,0-4.4,0-6.7,0s-4.4,0-6.7,0v-0.7
			l1.3-0.2c1.8-0.3,2.1-0.8,2.1-2.8V147c0-2.1-0.4-2.5-2.6-2.8l-1.6-0.2v-0.6l10.7-2l0.8,0.3c-0.2,1.9-0.3,4.1-0.3,6.2v2.7
			c0,6.7-0.7,9.5-0.7,15c0-7.2,2.4-11.5,7.9-11.5c4.6,0,7.3,2.6,7.3,7.9v12c0,2,0.2,2.5,2.1,2.8l1.4,0.2V177.9z"/>
		<path fill="#F1F0F0" d="M279.6,189.2c-3.1,0-4.9-1.9-4.9-4.5c0-2.2,1.5-4.1,4.1-4.1c2.2,0,3.3,1.2,3.5,2.7
			c0.1,1.3-0.5,1.8-0.4,2.4c0,0.4,0.2,0.6,0.7,0.6c1.1,0,2.8-1.4,5-7.3l0.2-0.7l-8.5-18.8c-1.2-2.7-1.9-3.6-3.4-3.9l-1.1-0.2v-0.7
			c2.4,0,4.8,0,7.3,0c2.4,0,4.7,0,7.1,0v0.7l-1.3,0.2c-1.7,0.2-1.9,1.5-1.1,3.5l4.5,11.1l3.2-8.6c0.7-1.7,0.9-2.8,0.9-3.7
			c0-1.3-0.9-2-2.7-2.4l-1.2-0.2v-0.7c1.6,0,3.3,0,5,0c1.7,0,3.3,0,5,0v0.7l-0.8,0.2c-2.7,0.7-3.6,2-5.4,6.4l-6.4,16.2
			C285.6,187.1,283.6,189.2,279.6,189.2z"/>
		<path fill="#F1F0F0" d="M34.9,231.1l1.3-0.2c1.8-0.3,2.1-0.8,2.1-2.8v-27.1c0-2-0.4-2.5-2.6-2.8l-1.6-0.2v-0.6l10.7-2l0.8,0.3
			c-0.2,1.9-0.3,4.2-0.3,6.2V228c0,2,0.3,2.5,2.1,2.8l1.4,0.2v0.7c-2.4,0-4.6,0-7,0c-2.4,0-4.6,0-7,0V231.1z"/>
		<path fill="#F1F0F0" d="M57.4,231.7c-2.4,0-4.6,0-7,0v-0.7l1.4-0.2c1.7-0.3,2.1-0.8,2.1-2.8v-14.3c0-2.1-0.5-2.6-2.6-2.8l-1.4-0.1
			v-0.7l10.3-1.9l0.9,0.3c-0.1,1.9-0.2,3.8-0.2,5.8V228c0,1.9,0.3,2.5,2.1,2.8l1.4,0.2v0.7C61.9,231.8,59.8,231.7,57.4,231.7z
			 M56.9,204.4c-2.5,0-4.4-1.6-4.4-4.2c0-2.6,1.9-4.2,4.4-4.2c2.6,0,4.5,1.6,4.5,4.2C61.4,202.9,59.5,204.4,56.9,204.4z"/>
		<path fill="#F1F0F0" d="M87.5,231.7c-2.3,0-4.5,0-6.8,0v-0.7l1.2-0.2c1.4-0.3,1.7-0.7,1.7-2.7v-13.3c0-3.3-0.9-4.7-2.9-4.7
			c-2.6,0-4.6,3.3-4.6,9.4v8.6c0,2,0.3,2.4,1.7,2.7l1.3,0.2v0.7c-2.3,0-4.4,0-6.7,0c-2.4,0-4.4,0-6.7,0v-0.7l1.4-0.2
			c1.7-0.3,2.1-0.8,2.1-2.8v-14.2c0-2.2-0.5-2.6-2.6-2.8l-1.4-0.1v-0.7l9.7-1.9l0.9,0.3c-0.2,2.7-0.3,5.9-0.3,10.9
			c0-7.1,2.3-11.5,7.8-11.5c4.6,0,7.4,2.6,7.4,7.9v12c0,2,0.3,2.5,2.1,2.8l1.4,0.2v0.7C91.8,231.8,89.8,231.7,87.5,231.7z"/>
		<path fill="#F1F0F0" d="M124.2,231.8c-2.4,0-4.5,0-6.9,0c-2.4,0-4.7,0-7.1,0v-0.7l0.7-0.1c1-0.2,1.4-0.5,1.4-1
			c0-0.4-0.2-0.8-0.9-1.8l-5.4-7.6v7.6c0,1.9,0.3,2.5,1.8,2.8l1.1,0.2v0.7c-2.1,0-4,0-6.4,0c-2.4,0-4.6,0-7,0v-0.7l1.3-0.2
			c1.8-0.3,2.1-0.8,2.1-2.8v-27.1c0-2-0.4-2.5-2.6-2.8l-1.6-0.2v-0.6l10.7-2l0.8,0.3c-0.2,1.9-0.3,4.2-0.3,6.2v18.6l5.6-5.8
			c1.4-1.4,1.8-2.2,1.8-3c0-0.9-0.8-1.5-2.9-1.9l-1.1-0.2v-0.8c2.3,0,4.5,0,6.8,0c2.3,0,4.5,0,6.8,0v0.8l-1.1,0.2
			c-3.4,0.8-6.5,2.2-9.1,4.9l-1.6,1.6l8,10.8c2.3,3.1,2.8,3.5,4.3,3.9l0.8,0.2V231.8z"/>
		<path fill="#F1F0F0" d="M134,232.5c-2.9,0-5.4-0.8-7-2.2l-1.6,2.1h-0.4v-10h0.8c2.2,6.6,4.8,9.3,8.1,9.3c2.3,0,4.3-0.9,4.3-3.4
			c0-2.3-1.7-3.5-6.1-5.1c-3.5-1.3-6.8-3.4-6.8-7.8c0-4.3,3.5-7.3,8.7-7.3c2.4,0,4.5,0.7,5.9,1.9l1.4-1.9h0.4v8.9H141
			c-2-5.4-3.9-8.1-7-8.1c-2.6,0-4,1.4-4,3.2c0,2.4,2,3.4,6.2,5c3.3,1.2,6.8,3.3,6.8,7.8C143,229.6,139.4,232.5,134,232.5z"/>
		<path fill="#F1F0F0" d="M44.3,286.3c-4.1,0-6.7-2.2-6.7-6.4v-15.3l-4.2-0.8V263l3.5-0.7c2-0.3,3-1.3,3.6-3.8l0.9-3.4h3.5l-0.2,7.5
			h7v1.4l-7,0.4v16.5c0,2.5,0.8,3.3,2.3,3.3c1.7,0,2.9-1.5,3.8-5.2l0.8,0.1C50.6,284,48.9,286.3,44.3,286.3z"/>
		<path fill="#F1F0F0" d="M59.9,285.6c-2.4,0-4.6,0-7,0v-0.7l1.4-0.2c1.7-0.3,2.1-0.8,2.1-2.8v-14.3c0-2.1-0.5-2.6-2.6-2.8l-1.4-0.1
			V264l10.3-1.9l0.9,0.3c-0.1,1.9-0.2,3.8-0.2,5.8v13.7c0,1.9,0.3,2.5,2.1,2.8l1.4,0.2v0.7C64.4,285.7,62.3,285.6,59.9,285.6z
			 M59.4,258.3c-2.5,0-4.4-1.6-4.4-4.2c0-2.6,1.9-4.2,4.4-4.2c2.6,0,4.5,1.6,4.5,4.2C63.9,256.7,62,258.3,59.4,258.3z"/>
		<path fill="#F1F0F0" d="M110.6,285.7c-2.4,0-4.2,0-6.5,0c-2.4,0-4.5,0-6.9,0v-0.7l1.2-0.2c1.4-0.3,1.7-0.7,1.7-2.7v-13.3
			c0-3.3-0.9-4.7-2.8-4.7c-2.5,0-4.5,3.3-4.5,9.4v8.6c0,2,0.3,2.4,1.7,2.7l1.2,0.2v0.7c-2.2,0-4.2,0-6.4,0c-2.2,0-4.2,0-6.4,0v-0.7
			l1.2-0.2c1.4-0.3,1.7-0.7,1.7-2.7v-13.3c0-3.2-0.8-4.7-2.7-4.7c-2.5,0-4.5,3.3-4.5,9.4v8.6c0,2,0.3,2.4,1.7,2.7l1.2,0.2v0.7
			c-2.4,0-4.5,0-6.9,0c-2.4,0-4.2,0-6.5,0v-0.7l1.4-0.2c1.7-0.3,2.1-0.8,2.1-2.8v-14.3c0-2.1-0.5-2.6-2.6-2.8l-1.4-0.1v-0.7l9.7-1.9
			l0.9,0.3c-0.2,2.7-0.3,5.9-0.3,10.9c0-7.1,2.4-11.5,7.7-11.5c4.5,0,6.6,2.4,6.6,7.8c0,1.5,0,2.6,0,3.6c0-7.3,2.4-11.5,7.7-11.5
			c4.6,0,7.2,2.6,7.2,7.9v12c0,2,0.3,2.5,2.1,2.8l1.4,0.2L110.6,285.7L110.6,285.7z"/>
		<path fill="#F1F0F0" d="M123.6,286.4c-6.3,0-11.5-4.1-11.5-12.1c0-8.3,5.8-12.3,11.6-12.3c6.1,0,9.6,3.3,9.6,8.9
			c0,0.8,0,1.6-0.1,2.1h-13.6v1.2c0,7.1,2.5,10.1,6.3,10.1c2.7,0,4.8-1.3,6.8-4.5l0.7,0.4C131.1,284.2,128,286.4,123.6,286.4z
			 M126.6,270.6c0.3-4.5,0-7.9-2.9-7.9c-2.4,0-3.9,2.4-4.1,9.4l6.9-0.5L126.6,270.6z"/>
		<path fill="#F1F0F0" d="M135.4,284.9l1.3-0.2c1.8-0.3,2.1-0.8,2.1-2.8v-27.1c0-2-0.4-2.5-2.6-2.8l-1.6-0.2v-0.6l10.7-2l0.8,0.3
			c-0.2,1.9-0.3,4.2-0.3,6.2v26.2c0,2,0.3,2.5,2.1,2.8l1.4,0.2v0.7c-2.4,0-4.6,0-7,0c-2.4,0-4.6,0-7,0V284.9z"/>
		<path fill="#F1F0F0" d="M162.5,286.4c-6.3,0-11.5-4.1-11.5-12.1c0-8.3,5.8-12.3,11.6-12.3c6.1,0,9.6,3.3,9.6,8.9
			c0,0.8,0,1.6-0.1,2.1h-13.6v1.2c0,7.1,2.5,10.1,6.3,10.1c2.7,0,4.8-1.3,6.8-4.5l0.7,0.4C169.9,284.2,166.9,286.4,162.5,286.4z
			 M165.4,270.6c0.3-4.5,0-7.9-2.9-7.9c-2.4,0-3.9,2.4-4.1,9.4l6.9-0.5L165.4,270.6z"/>
		<path fill="#F1F0F0" d="M184.5,286.4c-2.9,0-5.4-0.8-7-2.2l-1.6,2.1h-0.4v-10h0.8c2.2,6.6,4.8,9.3,8.1,9.3c2.3,0,4.3-0.9,4.3-3.4
			c0-2.3-1.7-3.5-6.1-5.1c-3.5-1.3-6.8-3.4-6.8-7.8c0-4.3,3.5-7.3,8.7-7.3c2.4,0,4.5,0.7,5.9,1.9l1.4-1.9h0.4v8.9h-0.8
			c-2-5.4-3.9-8.1-7-8.1c-2.6,0-4,1.4-4,3.2c0,2.4,2,3.4,6.2,5c3.3,1.2,6.8,3.3,6.8,7.8C193.4,283.5,189.8,286.4,184.5,286.4z"/>
		<path fill="#F1F0F0" d="M205.8,286.4c-2.9,0-5.4-0.8-7-2.2l-1.6,2.1h-0.4v-10h0.8c2.2,6.6,4.8,9.3,8.1,9.3c2.3,0,4.3-0.9,4.3-3.4
			c0-2.3-1.7-3.5-6.1-5.1c-3.5-1.3-6.8-3.4-6.8-7.8c0-4.3,3.5-7.3,8.7-7.3c2.4,0,4.5,0.7,5.9,1.9l1.4-1.9h0.4v8.9h-0.8
			c-2-5.4-3.9-8.1-7-8.1c-2.6,0-4,1.4-4,3.2c0,2.4,2,3.4,6.2,5c3.3,1.2,6.8,3.3,6.8,7.8C214.7,283.5,211.1,286.4,205.8,286.4z"/>
		<path fill="#F1F0F0" d="M239.3,285.6c-2.3,0-4.5,0-6.8,0v-0.7l1.2-0.2c1.4-0.3,1.7-0.7,1.7-2.7v-13.3c0-3.3-0.9-4.7-2.9-4.7
			c-2.6,0-4.6,3.3-4.6,9.4v8.6c0,2,0.3,2.4,1.7,2.7l1.3,0.2v0.7c-2.3,0-4.4,0-6.7,0c-2.4,0-4.4,0-6.7,0v-0.7l1.4-0.2
			c1.7-0.3,2.1-0.8,2.1-2.8v-14.2c0-2.2-0.5-2.6-2.6-2.8l-1.4-0.1v-0.7l9.7-1.9l0.9,0.3c-0.2,2.7-0.3,5.9-0.3,10.9
			c0-7.1,2.3-11.5,7.8-11.5c4.6,0,7.4,2.6,7.4,7.9v12c0,2,0.3,2.5,2.1,2.8l1.4,0.2v0.7C243.6,285.7,241.6,285.6,239.3,285.6z"/>
		<path fill="#F1F0F0" d="M259,286.4c-6.3,0-11.5-4.1-11.5-12.1c0-8.3,5.8-12.3,11.6-12.3c6.1,0,9.6,3.3,9.6,8.9
			c0,0.8,0,1.6-0.1,2.1h-13.6v1.2c0,7.1,2.5,10.1,6.3,10.1c2.7,0,4.8-1.3,6.8-4.5l0.7,0.4C266.4,284.2,263.4,286.4,259,286.4z
			 M261.9,270.6c0.3-4.5,0-7.9-2.9-7.9c-2.4,0-3.9,2.4-4.1,9.4l6.9-0.5L261.9,270.6z"/>
		<path fill="#F1F0F0" d="M281,286.4c-2.9,0-5.4-0.8-7-2.2l-1.6,2.1H272v-10h0.8c2.2,6.6,4.8,9.3,8.1,9.3c2.3,0,4.3-0.9,4.3-3.4
			c0-2.3-1.7-3.5-6.1-5.1c-3.5-1.3-6.8-3.4-6.8-7.8c0-4.3,3.5-7.3,8.7-7.3c2.4,0,4.5,0.7,5.9,1.9l1.4-1.9h0.4v8.9h-0.8
			c-2-5.4-3.9-8.1-7-8.1c-2.6,0-4,1.4-4,3.2c0,2.4,2,3.4,6.2,5c3.3,1.2,6.8,3.3,6.8,7.8C289.9,283.5,286.3,286.4,281,286.4z"/>
		<path fill="#F1F0F0" d="M302.3,286.4c-2.9,0-5.4-0.8-7-2.2l-1.6,2.1h-0.4v-10h0.8c2.2,6.6,4.8,9.3,8.1,9.3c2.3,0,4.3-0.9,4.3-3.4
			c0-2.3-1.7-3.5-6.1-5.1c-3.5-1.3-6.8-3.4-6.8-7.8c0-4.3,3.5-7.3,8.7-7.3c2.4,0,4.5,0.7,5.9,1.9l1.4-1.9h0.4v8.9h-0.8
			c-2-5.4-3.9-8.1-7-8.1c-2.6,0-4,1.4-4,3.2c0,2.4,2,3.4,6.2,5c3.3,1.2,6.8,3.3,6.8,7.8C311.2,283.5,307.6,286.4,302.3,286.4z"/>
		<path fill="#F1F0F0" d="M62.1,340.3c-3.3,0-5.8-0.9-8.2-3.1c-1.6,1.8-4.4,3.1-8.1,3.1c-6.6,0-11-3.4-11-9.2c0-5.2,3.7-8.4,9.5-9.9
			c-0.7-2-1.1-4-1.1-5.7c0-5.2,3.6-8.8,8.6-8.8c3.8,0,7.5,1.7,7.5,5.7c0,3.9-4.1,5.9-8.2,7.2c0.7,1.6,1.5,3.1,2.3,4.7
			c1.2,2.3,2.3,4.1,3.2,5.8c0-0.3,0.1-0.5,0.1-0.7c1.5-6.2,3.2-11.1,8.9-11.1c2.8,0,4.7,1.9,4.7,4.2c0,2.3-1.6,3.8-3.6,3.8
			c-2.1,0-3.4-1.4-3.4-3.2c0-0.6,0.1-1,0.1-1.5c0-0.5-0.3-0.8-0.8-0.8c-2.1,0-3.8,3.1-5.2,8.7c0,0.2-0.2,0.7-0.4,1.4
			c3.1,4.8,5.3,6.7,7.7,6.7c2.3,0,3.9-1.3,4.5-6l0.7,0C69.4,338.1,66.6,340.3,62.1,340.3z M53.3,336.8c-1.9-1.9-3.7-4.7-5.9-8.5
			c-1.2-2.1-2.2-4.3-3-6.5c-1.7,0.8-2.6,2.9-2.6,6.5c0,5.5,3.3,10.1,7.4,10.1C51,338.4,52.4,337.8,53.3,336.8z M51,319
			c2.3-1.1,3.7-3.2,3.7-7c0-2.7-0.8-4.5-2.9-4.5s-3,1.5-3,3.7c0,1.9,0.8,4.7,2.1,7.8L51,319z"/>
		<path fill="#F1F0F0" d="M89.8,340.2c-4.1,0-6.7-2.2-6.7-6.4v-15.3l-4.2-0.8v-0.8l3.5-0.7c2-0.3,3-1.3,3.6-3.8l0.9-3.4h3.5
			l-0.2,7.5h7v1.4l-7,0.4v16.5c0,2.5,0.8,3.3,2.3,3.3c1.7,0,2.9-1.5,3.8-5.2L97,333C96,337.9,94.3,340.2,89.8,340.2z"/>
		<path fill="#F1F0F0" d="M105.4,339.5c-2.4,0-4.6,0-7,0v-0.7l1.4-0.2c1.7-0.3,2.1-0.8,2.1-2.8v-14.3c0-2.1-0.5-2.6-2.6-2.8
			l-1.4-0.1v-0.7l10.3-1.9l0.9,0.3c-0.1,1.9-0.2,3.8-0.2,5.8v13.7c0,1.9,0.3,2.5,2.1,2.8l1.4,0.2v0.7
			C109.9,339.5,107.8,339.5,105.4,339.5z M104.8,312.2c-2.5,0-4.4-1.6-4.4-4.2c0-2.6,1.9-4.2,4.4-4.2c2.6,0,4.5,1.6,4.5,4.2
			C109.4,310.6,107.4,312.2,104.8,312.2z"/>
		<path fill="#F1F0F0" d="M156.1,339.5c-2.4,0-4.2,0-6.5,0s-4.5,0-6.9,0v-0.7l1.2-0.2c1.4-0.3,1.7-0.7,1.7-2.7v-13.3
			c0-3.3-0.9-4.7-2.8-4.7c-2.5,0-4.5,3.3-4.5,9.4v8.6c0,2,0.3,2.4,1.7,2.7l1.2,0.2v0.7c-2.2,0-4.2,0-6.4,0s-4.2,0-6.4,0v-0.7
			l1.2-0.2c1.4-0.3,1.7-0.7,1.7-2.7v-13.3c0-3.2-0.8-4.7-2.7-4.7c-2.5,0-4.5,3.3-4.5,9.4v8.6c0,2,0.3,2.4,1.7,2.7l1.2,0.2v0.7
			c-2.4,0-4.5,0-6.9,0c-2.4,0-4.2,0-6.5,0v-0.7l1.4-0.2c1.7-0.3,2.1-0.8,2.1-2.8v-14.3c0-2.1-0.5-2.6-2.6-2.8l-1.4-0.1V318l9.7-1.9
			l0.9,0.3c-0.2,2.7-0.3,5.9-0.3,10.9c0-7.1,2.4-11.5,7.7-11.5c4.5,0,6.6,2.4,6.6,7.8c0,1.5,0,2.6,0,3.6c0-7.3,2.4-11.5,7.7-11.5
			c4.6,0,7.2,2.6,7.2,7.9v12c0,2,0.3,2.5,2.1,2.8l1.4,0.2L156.1,339.5L156.1,339.5z"/>
		<path fill="#F1F0F0" d="M169.1,340.2c-6.3,0-11.5-4.1-11.5-12.1c0-8.3,5.8-12.3,11.6-12.3c6.1,0,9.6,3.3,9.6,8.9
			c0,0.8,0,1.6-0.1,2.1H165v1.2c0,7.1,2.5,10.1,6.3,10.1c2.7,0,4.8-1.3,6.8-4.5l0.7,0.4C176.5,338.1,173.5,340.2,169.1,340.2z
			 M172,324.5c0.3-4.5,0-7.9-2.9-7.9c-2.4,0-3.9,2.4-4.1,9.4l6.9-0.5L172,324.5z"/>
	</g>
</g>
</svg>
