<?xml version="1.0" encoding="utf-8"?>
<!-- Generator: Adobe Illustrator 17.1.0, SVG Export Plug-In . SVG Version: 6.00 Build 0)  -->
<!DOCTYPE svg PUBLIC "-//W3C//DTD SVG 1.1 Tiny//EN" "http://www.w3.org/Graphics/SVG/1.1/DTD/svg11-tiny.dtd">
<svg version="1.1" baseProfile="tiny" id="Layer_1" xmlns="http://www.w3.org/2000/svg" xmlns:xlink="http://www.w3.org/1999/xlink"
	 x="0px" y="0px" width="800px" height="600px" viewBox="0 0 800 600" xml:space="preserve">
<g>
	<g>
		<path fill="#FFF200" d="M55.5,288.9h4.7v3.8h-4.7V288.9z M55.5,294.7h4.7v14.7h-4.7V294.7z"/>
		<path fill="#FFF200" d="M61.6,304.6H66c0.2,1.5,1.1,2.2,2.7,2.2c1.4,0,2.3-0.5,2.3-1.5c0-1.3-1.8-1.5-3.7-1.8
			c-2.6-0.4-5.3-1.1-5.3-4.6c0-3.1,2.9-4.7,6.3-4.7c4.2,0,6.4,1.8,6.6,4.7h-4.3c-0.2-1.3-1.1-1.7-2.4-1.7c-1.1,0-2,0.4-2,1.4
			c0,1,1.7,1.2,3.5,1.5c2.6,0.4,5.6,1.1,5.6,4.9c0,3.2-2.8,4.9-6.7,4.9C64.4,309.9,61.7,307.9,61.6,304.6z"/>
		<path fill="#FFF200" d="M56.7,334.5v-7.9h-2v-2.9h2V319h4.6v4.7h2.7v2.9h-2.7v6.9c0,1.1,0.6,1.4,1.6,1.4c0.4,0,0.9,0,1,0v3.4
			c-0.4,0.1-1.3,0.2-2.6,0.2C58.6,338.5,56.7,337.6,56.7,334.5z"/>
		<path fill="#FFF200" d="M65.6,317.8h4.7v7.6h0.1c1.1-1.4,2.3-2.2,4.4-2.2c3.2,0,5.1,2.3,5.1,5.6v9.6h-4.7v-8.6
			c0-1.6-0.8-2.6-2.3-2.6c-1.6,0-2.6,1.3-2.6,3.1v8.1h-4.7V317.8z"/>
		<path fill="#FFF200" d="M81.3,331c0-4.4,3.1-7.8,7.6-7.8c2.1,0,3.8,0.7,5,1.8c1.8,1.6,2.6,4.2,2.6,7.2H85.9c0.3,2,1.4,3.2,3.3,3.2
			c1.2,0,2-0.5,2.4-1.5h4.6c-0.3,1.3-1.2,2.6-2.5,3.5c-1.2,0.9-2.7,1.4-4.6,1.4C84.3,338.8,81.3,335.4,81.3,331z M91.7,329.4
			c-0.2-1.8-1.3-2.9-2.8-2.9c-1.8,0-2.7,1.1-3,2.9H91.7z"/>
		<path fill="#FFF200" d="M55.5,352.6H60v1.8h0.1c1-1.3,2.4-2.2,4.5-2.2c3.9,0,6.3,3.4,6.3,7.8c0,4.8-2.6,7.8-6.4,7.8
			c-1.9,0-3.2-0.7-4.2-2h-0.1v6.4h-4.7V352.6z M66.1,360.1c0-2.5-0.9-4.2-3-4.2c-2,0-3.1,1.8-3.1,4.2c0,2.4,1.1,4,3.2,4
			C65,364.1,66.1,362.6,66.1,360.1z"/>
		<path fill="#FFF200" d="M71.7,359.9c0-4.4,3.2-7.8,7.9-7.8c4.7,0,7.8,3.4,7.8,7.8s-3.1,7.8-7.8,7.8
			C74.9,367.7,71.7,364.4,71.7,359.9z M82.7,359.9c0-2.7-1.1-4.5-3.1-4.5c-2,0-3.1,1.8-3.1,4.5s1.1,4.5,3.1,4.5
			C81.6,364.4,82.7,362.6,82.7,359.9z"/>
		<path fill="#FFF200" d="M89,352.6h4.5v2.3h0.1c1-1.8,2.2-2.5,4-2.5c0.4,0,0.7,0,0.9,0.1v4h-0.1c-2.9-0.4-4.7,1-4.7,4.2v6.6H89
			V352.6z"/>
		<path fill="#FFF200" d="M101.5,363.4v-7.9h-2v-2.9h2v-4.7h4.6v4.7h2.7v2.9H106v6.9c0,1.1,0.6,1.4,1.6,1.4c0.4,0,0.9,0,1,0v3.4
			c-0.4,0.1-1.3,0.2-2.6,0.2C103.4,367.4,101.5,366.6,101.5,363.4z"/>
		<path fill="#FFF200" d="M110.4,352.6h4.5v2.3h0.1c1-1.8,2.2-2.5,4-2.5c0.4,0,0.7,0,0.9,0.1v4h-0.1c-2.9-0.4-4.7,1-4.7,4.2v6.6
			h-4.7V352.6z"/>
		<path fill="#FFF200" d="M120.3,363.2c0-3.2,2.6-4.2,5.6-4.6c2.8-0.3,3.7-0.6,3.7-1.6c0-0.9-0.6-1.6-2-1.6c-1.5,0-2.2,0.7-2.4,1.9
			h-4.3c0.1-2.7,2.2-5.1,6.7-5.1c2.2,0,3.7,0.4,4.8,1.2c1.3,0.9,1.9,2.4,1.9,4.2v7.4c0,1.2,0.1,1.8,0.5,2.1v0.2h-4.5
			c-0.2-0.3-0.4-0.9-0.5-1.6h-0.1c-0.9,1.2-2.2,2-4.4,2C122.4,367.6,120.3,366.1,120.3,363.2z M129.8,362v-1.8
			c-0.6,0.3-1.5,0.5-2.4,0.8c-1.8,0.4-2.6,0.9-2.6,2c0,1.2,0.9,1.6,2,1.6C128.6,364.7,129.8,363.6,129.8,362z"/>
		<path fill="#FFF200" d="M136.5,346.7h4.7v3.8h-4.7V346.7z M136.5,352.6h4.7v14.7h-4.7V352.6z"/>
		<path fill="#FFF200" d="M144.6,363.4v-7.9h-2v-2.9h2v-4.7h4.6v4.7h2.7v2.9h-2.7v6.9c0,1.1,0.6,1.4,1.6,1.4c0.4,0,0.9,0,1,0v3.4
			c-0.4,0.1-1.3,0.2-2.6,0.2C146.5,367.4,144.6,366.6,144.6,363.4z"/>
		<path fill="#FFF200" d="M54.9,388.9c0-4.4,3.2-7.8,7.9-7.8c4.7,0,7.8,3.4,7.8,7.8s-3.1,7.8-7.8,7.8
			C58,396.7,54.9,393.3,54.9,388.9z M65.8,388.9c0-2.7-1.1-4.5-3.1-4.5c-2,0-3.1,1.8-3.1,4.5s1.1,4.5,3.1,4.5
			C64.7,393.3,65.8,391.6,65.8,388.9z"/>
		<path fill="#FFF200" d="M73,384.5h-1.9v-3H73v-1.1c0-1.5,0.4-2.6,1.2-3.4c1.3-1.2,3.7-1.5,6.2-1.3v3.3c-1.8-0.1-2.8,0.1-2.8,1.7
			v0.7h2.8v3h-2.8v11.7H73V384.5z"/>
		<path fill="#FFF200" d="M85.6,392.1c0-3.2,2.6-4.2,5.6-4.6c2.8-0.3,3.7-0.6,3.7-1.6c0-0.9-0.6-1.6-2-1.6c-1.5,0-2.2,0.7-2.4,1.9
			h-4.3c0.1-2.7,2.2-5.1,6.7-5.1c2.2,0,3.7,0.4,4.8,1.2c1.3,0.9,1.9,2.4,1.9,4.2v7.4c0,1.2,0.1,1.8,0.5,2.1v0.2h-4.5
			c-0.2-0.3-0.4-0.9-0.5-1.6H95c-0.9,1.2-2.2,2-4.4,2C87.7,396.6,85.6,395,85.6,392.1z M95.1,391v-1.8c-0.6,0.3-1.5,0.5-2.4,0.8
			c-1.8,0.4-2.6,0.9-2.6,2c0,1.2,0.9,1.6,2,1.6C93.9,393.6,95.1,392.5,95.1,391z"/>
		<path fill="#FFF200" d="M56.7,421.3v-7.9h-2v-2.9h2v-4.7h4.6v4.7h2.7v2.9h-2.7v6.9c0,1.1,0.6,1.4,1.6,1.4c0.4,0,0.9,0,1,0v3.4
			c-0.4,0.1-1.3,0.2-2.6,0.2C58.6,425.3,56.7,424.4,56.7,421.3z"/>
		<path fill="#FFF200" d="M65.6,404.6h4.7v3.8h-4.7V404.6z M65.6,410.4h4.7v14.7h-4.7V410.4z"/>
		<path fill="#FFF200" d="M72.5,410.4H77v2.1h0.1c0.9-1.5,2.3-2.5,4.5-2.5c1.9,0,3.4,1,4.1,2.6h0.1c1.1-1.8,2.7-2.6,4.6-2.6
			c3.3,0,5,2.3,5,5.6v9.6h-4.7v-8.7c0-1.6-0.7-2.5-2.1-2.5c-1.5,0-2.3,1.2-2.3,3v8.2h-4.7v-8.7c0-1.6-0.7-2.5-2.1-2.5
			c-1.5,0-2.3,1.2-2.3,3v8.2h-4.7V410.4z"/>
		<path fill="#FFF200" d="M96.8,417.8c0-4.4,3.1-7.8,7.6-7.8c2.1,0,3.8,0.7,5,1.8c1.8,1.6,2.6,4.2,2.6,7.2h-10.6
			c0.3,2,1.4,3.2,3.3,3.2c1.2,0,2-0.5,2.4-1.5h4.6c-0.3,1.3-1.2,2.6-2.5,3.5c-1.2,0.9-2.7,1.4-4.6,1.4
			C99.8,425.6,96.8,422.2,96.8,417.8z M107.2,416.2c-0.2-1.8-1.3-2.9-2.8-2.9c-1.8,0-2.7,1.1-3,2.9H107.2z"/>
		<path fill="#FFF200" d="M113.2,420.3h4.9v4.8h-4.9V420.3z"/>
	</g>
	<g>
		<path fill="#FFF200" d="M79.5,78.2H51.6V58.1h79.9v20.1h-28.2v75.9H79.5V78.2z"/>
		<path fill="#FFF200" d="M129.2,159.7h7.5c6.4,0,9-2.6,9-7.2c0-3-1.3-7-4.2-14.2l-20.3-52.9h23.1l9.3,29.3
			c2.1,6.7,4.3,15.8,4.3,15.8h0.3c0,0,1.9-9.1,4-15.8l9-29.3h21.9L169.3,155c-5.5,16.1-12.1,21.7-25.9,21.7h-14.2V159.7z"/>
		<path fill="#FFF200" d="M197.9,85.3h20.9v8.3h0.4c4.7-6.2,11.4-10.3,20.8-10.3c18.3,0,29.4,15.7,29.4,36.4
			c0,22.3-11.9,36.5-29.9,36.5c-8.9,0-15.2-3.5-19.5-9.3h-0.3v29.8h-21.9V85.3z M247.3,120.5c0-11.8-4.4-19.6-13.8-19.6
			c-9.5,0-14.4,8.5-14.4,19.6s5.4,18.8,14.8,18.8C242.2,139.3,247.3,132.2,247.3,120.5z"/>
		<path fill="#FFF200" d="M271,119.6c0-20.5,14.4-36.2,35.3-36.2c9.8,0,17.6,3.2,23.5,8.6c8.2,7.5,12.2,19.5,12.1,33.4h-49.4
			c1.3,9.3,6.4,15,15.4,15c5.8,0,9.5-2.6,11.4-6.8h21.3c-1.5,6.2-5.5,12.1-11.5,16.2c-5.8,4-12.8,6.3-21.5,6.3
			C285,156.1,271,140.4,271,119.6z M319.8,112.3c-0.8-8.2-5.9-13.4-13-13.4c-8.3,0-12.6,5.2-14.1,13.4H319.8z"/>
	</g>
</g>
</svg>
