<?xml version="1.0" encoding="utf-8"?>
<!-- Generator: Adobe Illustrator 17.1.0, SVG Export Plug-In . SVG Version: 6.00 Build 0)  -->
<!DOCTYPE svg PUBLIC "-//W3C//DTD SVG 1.1 Tiny//EN" "http://www.w3.org/Graphics/SVG/1.1/DTD/svg11-tiny.dtd">
<svg version="1.1" baseProfile="tiny" id="Layer_1" xmlns="http://www.w3.org/2000/svg" xmlns:xlink="http://www.w3.org/1999/xlink"
	 x="0px" y="0px" width="800px" height="600px" viewBox="0 0 800 600" xml:space="preserve">
<g>
	<g>
		<g>
			<path fill="#DCDDDE" d="M162.1,246.3v-79h65.1v22.1h-35.3v8.1h34.2v18.8h-34.2v7.9h35.3v22.1H162.1z"/>
		</g>
		<g>
			<path fill="#DCDDDE" d="M161.6,415.3v-49c0-20,10.4-32.1,35.7-32.1c24.8,0,34.7,12.1,34.7,32.1v49h-27.1l-0.2-19.5h-15.8
				l-0.2,19.5H161.6z M189,377.9h15.5l-0.1-13.7c-0.1-5.3-3.4-7.4-7.6-7.4s-7.5,2.1-7.6,7.4L189,377.9z"/>
		</g>
		<path fill="#DCDDDE" d="M95,162.5v-79h62.4v22.1h-33.8v8.1h32.8v18.8h-32.8v7.9h33.8v22.1H95z"/>
		<path fill="#DCDDDE" d="M95,330.1v-79h62.4v22.1h-33.8v8.1h32.8v18.8h-32.8v7.9h33.8v22.1H95z"/>
		<path fill="#DCDDDE" d="M162.1,330.1v-79h35.8c20.2,0,32,8,32,22.1c0,12.6-6.3,18.9-11.9,21.6l15.1,35.3h-31.8l-8.5-28.3h-3.2
			v28.3H162.1z M194.6,282.1c4.2,0,7.4-1.6,7.4-5.8c0-4.2-3.2-5.8-7.4-5.8h-5.1v11.6H194.6z"/>
		<path fill="#DCDDDE" d="M234.7,330.1v-49c0-20,10.4-32.1,35.7-32.1c24.8,0,34.7,12.1,34.7,32.1v49H278l-0.2-19.5H262l-0.2,19.5
			H234.7z M262.1,292.7h15.5l-0.1-13.7c-0.1-5.3-3.4-7.4-7.6-7.4c-4.2,0-7.5,2.1-7.6,7.4L262.1,292.7z"/>
		<g>
			<path fill="#DCDDDE" d="M234.7,498.1v-49c0-20,10.4-32.1,35.7-32.1c24.8,0,34.7,12.1,34.7,32.1v49H278l-0.2-19.5H262l-0.2,19.5
				H234.7z M262.1,460.7h15.5l-0.1-13.7c-0.1-5.3-3.4-7.4-7.6-7.4c-4.2,0-7.5,2.1-7.6,7.4L262.1,460.7z"/>
		</g>
	</g>
</g>
</svg>
