<?xml version="1.0" encoding="utf-8"?>
<!-- Generator: Adobe Illustrator 17.1.0, SVG Export Plug-In . SVG Version: 6.00 Build 0)  -->
<!DOCTYPE svg PUBLIC "-//W3C//DTD SVG 1.1 Tiny//EN" "http://www.w3.org/Graphics/SVG/1.1/DTD/svg11-tiny.dtd">
<svg version="1.1" baseProfile="tiny" id="Layer_1" xmlns="http://www.w3.org/2000/svg" xmlns:xlink="http://www.w3.org/1999/xlink"
	 x="0px" y="0px" width="800px" height="600px" viewBox="0 0 800 600" xml:space="preserve">
<g>
	<g>
		<path fill="#818181" d="M63,130.4c5.5-27.3,23-40.9,41.7-40.9c15,0,22.8,6.1,21.5,16.9c-0.9,6.6-4.4,9.4-8.9,9.4
			c-4.3,0-6-2.6-5.5-6.3c0.5-4.6,6.1-7,10.4-4.8c0-7.5-5.6-11.6-18.2-11.6C90,93,76,102.2,70.5,130.4c-6,29.8,2,37.1,18.1,37.1
			c13.6,0,21.6-7.7,27.4-18.7l4.6,1c-7.3,12.8-15.2,21.3-32.5,21.3C63.2,171.1,58.1,154.9,63,130.4z"/>
		<path fill="#818181" d="M163.9,145.2c-4.1,13.8-2,21,6,21.1c8.5,0.2,12.9-10.6,16-23.5h3.1c-2.4,13.8-8.2,28.3-21.5,28.3
			c-11.6,0-15.3-9.5-10.4-25.9l8.2-27.1c5.3-17.4,3.4-25-4.6-25c-7.8,0-14.1,12.4-17.4,25.2H140c2.2-13.8,10.2-28.8,20.9-28.8
			c13.5,0,16.4,11.1,11.1,28.6L163.9,145.2z M172.7,68.2c-3.7,0-7-2.9-7-7c0-3.9,3.2-6.8,7-6.8c3.7,0,6.8,3.1,6.8,7
			C179.5,65.1,176.3,68.2,172.7,68.2z"/>
		<path fill="#818181" d="M258.1,104.6c0.7-8.2-2.9-11.6-8.9-11.6c-9.9,0-18.2,10.6-21.1,24l-10.9,51.1c0,0-2.2-0.2-3.4-0.2
			s-3.4,0.2-3.4,0.2c3.1-12.4,8.7-36.6,11.1-49.1c3.6-18.4,3.9-26.1-4.1-26.1c-7.8,0-14.1,12.4-17.4,25.2h-3.2
			c2.2-13.8,10.2-28.8,20.9-28.8c9.5,0,12.4,6.1,12.1,15.3c4.6-9.9,12.1-15.3,19.9-15.3c10.2,0,13.8,6.8,12.1,16.9
			c-1,6.3-3.9,9.4-9.2,9.4c-3.9,0-5.6-2.7-5.1-6.5C248,104.6,254.1,102.6,258.1,104.6z"/>
		<path fill="#818181" d="M274.1,130.4c5.5-27.3,23-40.9,41.7-40.9c15,0,22.8,6.1,21.5,16.9c-0.9,6.6-4.4,9.4-8.9,9.4
			c-4.3,0-6-2.6-5.5-6.3c0.5-4.6,6.1-7,10.4-4.8c0-7.5-5.6-11.6-18.2-11.6c-14.1,0-28.1,9.2-33.6,37.3c-6,29.8,2,37.1,18.1,37.1
			c13.6,0,21.6-7.7,27.4-18.7l4.6,1c-7.3,12.8-15.2,21.3-32.5,21.3C274.2,171.1,269.1,154.9,274.1,130.4z"/>
		<path fill="#818181" d="M167.3,249.3c-2.2,13.8-8.7,28.3-20.9,28.3c-13.5,0-13.8-11.8-10.4-27.6l0.3-1.5
			c-7.8,19.9-19.2,29.1-30.8,29.1c-15.2,0-20.1-8.7-13.8-35.4l4.8-20.1c3.1-13.5,3.7-22.5-4.3-22.5c-7.8,0-14.1,12.3-17.2,25.2h-3.4
			c2-12.1,8.7-28.8,21.5-28.8c11.8,0,14.3,9.7,10.2,26.2l-4.8,20.1c-5.6,23-3.6,31.7,7.8,31.7c13.6,0,26.7-13.8,36.4-56l4.6-21.8
			c0,0,2.2,0.2,3.4,0.2c1.2,0,3.4-0.2,3.4-0.2c-3.1,12.4-9.4,39.3-11.6,51.8c-3.2,18.6-2.4,24.9,5.6,24.9c8.9,0,12.8-10.7,16-23.5
			H167.3z"/>
		<path fill="#818181" d="M187.6,224.7c1.7-11.2,8.9-28.8,21.8-28.8c12.3,0,12.9,11.6,9.7,26.6c8-18.4,19.2-26.6,30.3-26.6
			c12.4,0,19.1,6.6,16.5,25.7C273.7,204,285,196,296,196c15.2,0,21.5,9,14.8,35.4l-5.1,20.1c-3.2,12.9-3.2,21.1,4.8,21.3
			c8.5,0.2,12.9-10.6,16-23.5h3.1c-2.4,13.8-8.2,28.3-21.5,28.3c-11.8,0-13.3-9.7-9.2-26.2l5.1-20.1c5.6-23,2.6-31.7-8.9-31.7
			c-12.3,0-24.5,10-33.9,42.6l-8,32.5c0,0-2.2-0.2-3.4-0.2s-3.4,0.2-3.4,0.2c2.9-11.1,9-32.4,11.2-43.4c4.6-23.2,1.7-31.7-9.2-31.7
			c-12.8,0-25.4,10.9-34.9,47.2l-6.1,27.9c0,0-2.2-0.2-3.4-0.2s-3.4,0.2-3.4,0.2c3.1-12.4,9-36.6,11.4-49.1
			c3.6-18.4,4.1-26.1-3.9-26.1c-6.5,0-13.6,9.4-17.4,25.2H187.6z"/>
		<path fill="#818181" d="M87.6,320.1c-2,9.5,2.6,14.5,19.6,19.1c20.1,5.5,24,14.5,21.3,26.4c-2.6,10.6-13.3,18.4-31,18.4
			c-17,0-28.8-7.2-26.7-19.8c0.7-4.3,3.9-6.8,8.3-6.8c4.6,0,6.1,3.2,5.6,6.3c-1,5.1-6.3,7-10.4,5.1c0.5,7.3,11.1,11.6,23.5,11.6
			c13.5,0,23.5-5.1,25.5-13.8c2.4-10.2-1.2-15.5-21.1-20.8c-16.5-4.4-22.7-13.1-19.6-25.2c2.9-11.2,14-18.2,29-18.2
			c12.6,0,25,4.6,23.7,17.5c-0.7,6.8-5.5,8.7-8.7,8.7c-4.1,0-6.3-2.7-5.8-6.5c0.7-4.4,5.5-6.1,10.4-5.1c-0.7-8-9.5-11.1-19.4-11.1
			C98.8,306,89.5,312,87.6,320.1z"/>
		<path fill="#818181" d="M195.1,355.7c-2.4,13.8-8.2,28.3-21.5,28.3c-11.8,0-12.9-9.5-9.4-26.2l10.7-51.1h-15.5l0.7-3.4
			c18.9-0.5,18.7-6.1,25.2-28.8h3.7c-2,8.7-6.3,24.5-6.6,27.1l-0.3,1.5l18.1-0.7l-1,4.3h-17.7L171,358.3c-3.7,19.1-0.7,21,4.9,21
			c8.5,0,12.9-10.6,16-23.5H195.1z"/>
		<path fill="#818181" d="M286.9,384c-9.4,0-15-4.8-11.1-22.5c-7.3,14.3-18.2,22.5-29.1,22.5c-16.4,0-25-11.1-21.1-34.9
			c4.8-29.8,20.9-46.7,39.3-46.7c11.8,0,20.3,6.8,20.6,19.9c2.6-6.8,4.9-14.6,6.1-19.9h4.9c-3.6,13.1-10.2,41.2-14.3,58.4
			c-2.9,12.9-1,18.2,6.5,18.4c8.5,0.2,12.9-10.6,16-23.5h3.1C305.1,370.6,299.5,384,286.9,384z M282.1,335c4.4-21.3-4.8-29-17.5-29
			c-13.5,0-26.4,11.9-31.7,42.1c-3.2,18.6-0.3,32.4,14.5,32.4C261.1,380.4,275.6,366,282.1,335z"/>
		<path fill="#818181" d="M57.3,437.7c1.7-11.2,8.9-28.8,21.8-28.8c11.4,0,13.3,9,9.9,26.1c7.8-18.4,18.9-26.1,30.1-26.1
			c15.2,0,22.3,8.9,15.2,35.4l-5.3,19.6c-3.6,13.5-3.1,21.6,4.9,21.8c8.5,0.2,12.9-10.6,16-23.5h3.1c-2.4,13.8-8.2,28.3-21.5,28.3
			c-11.8,0-14-9.7-9.5-26.2l5.5-20.1c6.1-22.8,2.2-31.7-9.2-31.7c-13.1,0-25.9,11.6-35.4,50.4l-5.5,24.7c0,0-2.2-0.2-3.4-0.2
			c-1.2,0-3.4,0.2-3.4,0.2l11.2-49.1c4.3-18.2,4.1-26.1-3.9-26.1c-6.5,0-13.6,9.4-17.4,25.2H57.3z"/>
		<path fill="#818181" d="M177.8,449.8c5.5-27.3,23-40.9,41.7-40.9c15,0,22.8,6.1,21.5,16.9c-0.9,6.6-4.4,9.4-8.9,9.4
			c-4.3,0-6-2.6-5.5-6.3c0.5-4.6,6.1-7,10.4-4.8c0-7.5-5.6-11.6-18.2-11.6c-14.1,0-28.1,9.2-33.6,37.3c-6,29.8,2,37.1,18.1,37.1
			c13.6,0,21.6-7.7,27.4-18.7l4.6,1c-7.3,12.8-15.2,21.3-32.5,21.3C178,490.5,172.9,474.3,177.8,449.8z"/>
		<path fill="#818181" d="M331.3,469.2c-7.3,12.8-15.2,21.3-32.5,21.3c-24.5,0-30-16.2-25-40.7c5.5-27.3,22.1-40.9,40.9-40.9
			c17.7,0,22.3,10.2,19.2,24c-4.8,21-28.1,24-53.7,22.8c-3.7,24.9,4.1,31.2,19.1,31.2c13.6,0,21.6-7.7,27.4-18.7L331.3,469.2z
			 M280.6,453.2c36.3,0.9,42.7-6.8,46-20.4c2.9-12.4-0.5-20.3-12.6-20.3C292.5,412.5,284.1,433.1,280.6,453.2z"/>
	</g>
</g>
</svg>
