<?xml version="1.0" encoding="utf-8"?>
<!-- Generator: Adobe Illustrator 17.1.0, SVG Export Plug-In . SVG Version: 6.00 Build 0)  -->
<!DOCTYPE svg PUBLIC "-//W3C//DTD SVG 1.1 Tiny//EN" "http://www.w3.org/Graphics/SVG/1.1/DTD/svg11-tiny.dtd">
<svg version="1.1" baseProfile="tiny" id="Layer_1" xmlns="http://www.w3.org/2000/svg" xmlns:xlink="http://www.w3.org/1999/xlink"
	 x="0px" y="0px" width="800px" height="600px" viewBox="0 0 800 600" xml:space="preserve">
<g>
	<g>
		<path fill="#FFF200" d="M126.9,63.1h-1.2l-1.1-3.5h-3.3l-1.1,3.5h-1.2l3.3-10.1h1.4L126.9,63.1z M124.2,58.6l-1.3-4.2l-1.3,4.2
			H124.2z"/>
		<path fill="#FFF200" d="M193.1,63.1h-5.5V53h1.2v9.1h4.3V63.1z"/>
		<path fill="#FFF200" d="M260.5,63.1H255V53h1.2v9.1h4.3V63.1z"/>
		<path fill="#FFF200" d="M58.3,106.3h-3.1v9.1h-1.2v-9.1h-3.1v-1h7.4V106.3z"/>
		<path fill="#FFF200" d="M125.7,105.3l-3.2,5.8v4.3h-1.2v-4.3l-3.2-5.8h1.3l2.4,4.5l2.4-4.5H125.7z"/>
		<path fill="#FFF200" d="M186.7,105.3h2.6c1,0,1.7,0.2,2.3,0.7c0.6,0.5,0.9,1.2,0.9,2c0,0.9-0.3,1.5-0.9,2.1
			c-0.6,0.5-1.3,0.8-2.3,0.8h-1.4v4.5h-1.2V105.3z M187.9,109.9h1.3c1.4,0,2.1-0.6,2.1-1.7c0-0.5-0.2-1-0.6-1.3
			c-0.4-0.3-0.9-0.5-1.4-0.5h-1.3V109.9z"/>
		<path fill="#FFF200" d="M54.6,157.5c1.1,0,2,0.4,2.6,1.3c0.6,0.9,0.9,2.2,0.9,3.9c0,1.7-0.3,3-0.9,3.9c-0.6,0.9-1.5,1.3-2.6,1.3
			c-1.1,0-2-0.4-2.6-1.3c-0.6-0.9-0.9-2.2-0.9-3.9s0.3-3,0.9-3.9C52.6,157.9,53.5,157.5,54.6,157.5z M54.6,166.9
			c1.5,0,2.2-1.4,2.2-4.2c0-2.8-0.7-4.2-2.2-4.2c-0.7,0-1.3,0.4-1.7,1.1c-0.4,0.7-0.6,1.8-0.6,3.1c0,1.4,0.2,2.4,0.6,3.1
			C53.3,166.5,53.9,166.9,54.6,166.9z"/>
		<path fill="#FFF200" d="M125.2,167c-0.8,0.6-1.7,0.9-2.7,0.9c-1.3,0-2.3-0.4-3-1.3c-0.7-0.9-1-2.2-1-3.9c0-1.7,0.3-2.9,1-3.9
			c0.7-0.9,1.7-1.4,3-1.4c0.5,0,1,0.1,1.4,0.2c0.5,0.1,0.9,0.3,1.2,0.5l-0.4,0.9c-0.7-0.4-1.4-0.6-2.2-0.6c-0.9,0-1.6,0.3-2.1,1
			c-0.5,0.7-0.7,1.7-0.7,3.2c0,2.8,0.9,4.2,2.8,4.2c0.7,0,1.2-0.1,1.6-0.4V164h-1.8v-1h3V167z"/>
		<path fill="#FFF200" d="M193.3,167.7h-1.5l-3-4.6h-1.3v4.6h-1.2v-10.1h2.9c1,0,1.7,0.2,2.3,0.7c0.6,0.5,0.8,1.1,0.8,1.9
			c0,0.6-0.2,1.2-0.6,1.6c-0.4,0.5-1,0.8-1.7,1L193.3,167.7z M187.6,162.1h1.5c0.6,0,1.1-0.2,1.5-0.5c0.4-0.3,0.6-0.8,0.6-1.3
			c0-1.1-0.7-1.7-2.1-1.7h-1.5V162.1z"/>
		<path fill="#FFF200" d="M58.6,220h-1.2l-1.1-3.5H53l-1.1,3.5h-1.2l3.3-10.1h1.4L58.6,220z M56,215.5l-1.3-4.2l-1.3,4.2H56z"/>
		<path fill="#FFF200" d="M119.4,210h2.6c1,0,1.7,0.2,2.3,0.7c0.6,0.5,0.9,1.2,0.9,2c0,0.9-0.3,1.5-0.9,2.1
			c-0.6,0.5-1.3,0.8-2.3,0.8h-1.4v4.5h-1.2V210z M120.6,214.5h1.3c1.4,0,2.1-0.6,2.1-1.7c0-0.5-0.2-1-0.6-1.3
			c-0.4-0.3-0.9-0.5-1.4-0.5h-1.3V214.5z"/>
		<path fill="#FFF200" d="M192.2,220H191v-5h-3.5v5h-1.2V210h1.2v4.1h3.5V210h1.2V220z"/>
		<path fill="#FFF200" d="M260.4,210l-3.2,5.8v4.3h-1.2v-4.3l-3.2-5.8h1.3l2.4,4.5l2.4-4.5H260.4z"/>
		<path fill="#FFF200" d="M264.7,272.4h-4.6v-1h1.7v-8h-1.7v-1h4.6v1h-1.7v8h1.7V272.4z"/>
		<path fill="#FFF200" d="M332,263.4c-0.6-0.2-1.2-0.3-1.7-0.3c-0.6,0-1.1,0.1-1.5,0.4c-0.4,0.3-0.6,0.7-0.6,1.2
			c0,0.6,0.5,1.1,1.5,1.6c0.7,0.3,1.2,0.6,1.5,0.7c0.2,0.1,0.5,0.3,0.7,0.6c0.2,0.2,0.4,0.5,0.6,0.8c0.2,0.3,0.2,0.7,0.2,1.1
			c0,1-0.3,1.7-1,2.3c-0.7,0.5-1.4,0.8-2.3,0.8c-0.9,0-1.6-0.2-2.3-0.5l0.2-1c0.8,0.3,1.4,0.5,2,0.5c0.7,0,1.2-0.2,1.6-0.5
			c0.4-0.3,0.6-0.8,0.6-1.4c0-0.4-0.1-0.8-0.4-1.1c-0.3-0.3-0.7-0.6-1.5-1c-0.7-0.3-1.2-0.6-1.4-0.7s-0.4-0.3-0.6-0.5
			c-0.2-0.2-0.4-0.5-0.5-0.7c-0.1-0.3-0.2-0.6-0.2-0.9c0-0.8,0.3-1.5,0.9-2c0.6-0.5,1.4-0.7,2.3-0.7c0.7,0,1.3,0.1,2,0.3L332,263.4z
			"/>
		<path fill="#FFF200" d="M57.9,324c-0.8,0.6-1.7,0.9-2.7,0.9c-1.3,0-2.3-0.4-3-1.3c-0.7-0.9-1-2.2-1-3.9c0-1.7,0.3-2.9,1-3.9
			c0.7-0.9,1.7-1.4,3-1.4c0.5,0,1,0.1,1.4,0.2c0.5,0.1,0.9,0.3,1.2,0.5l-0.4,0.9c-0.7-0.4-1.4-0.6-2.2-0.6c-0.9,0-1.6,0.3-2.1,1
			c-0.5,0.7-0.7,1.7-0.7,3.2c0,2.8,0.9,4.2,2.8,4.2c0.7,0,1.2-0.1,1.6-0.4v-2.5h-1.8v-1h3V324z"/>
		<path fill="#FFF200" d="M124.7,324.7h-5.3v-10.1h5.2v1h-4.1v3.1h3.9v1h-3.9v3.9h4.1V324.7z"/>
		<path fill="#FFF200" d="M192.3,324.7H191l-3.6-8v8h-1.2v-10.1h1.3l3.6,7.9v-7.9h1.2V324.7z"/>
		<path fill="#FFF200" d="M124.7,377h-5.3v-10.1h5.2v1h-4.1v3.1h3.9v1h-3.9v3.9h4.1V377z"/>
		<path fill="#FFF200" d="M193.3,377h-1.5l-3-4.6h-1.3v4.6h-1.2v-10.1h2.9c1,0,1.7,0.2,2.3,0.7c0.6,0.5,0.8,1.1,0.8,1.9
			c0,0.6-0.2,1.2-0.6,1.6c-0.4,0.5-1,0.8-1.7,1L193.3,377z M187.6,371.4h1.5c0.6,0,1.1-0.2,1.5-0.5c0.4-0.3,0.6-0.8,0.6-1.3
			c0-1.1-0.7-1.7-2.1-1.7h-1.5V371.4z"/>
		<path fill="#FFF200" d="M260.7,377h-1.2l-1.1-3.5H255l-1.1,3.5h-1.2l3.3-10.1h1.4L260.7,377z M258,372.4l-1.3-4.2l-1.3,4.2H258z"
			/>
		<path fill="#FFF200" d="M58.3,420.2h-3.1v9.1h-1.2v-9.1h-3.1v-1h7.4V420.2z"/>
		<path fill="#FFF200" d="M124.2,429.3h-4.6v-1h1.7v-8h-1.7v-1h4.6v1h-1.7v8h1.7V429.3z"/>
		<path fill="#FFF200" d="M193.3,419.2l-3.3,10.1h-1.4l-3.3-10.1h1.2l2.8,8.7l2.8-8.7H193.3z"/>
		<path fill="#FFF200" d="M259.4,429.3h-5.3v-10.1h5.2v1h-4.1v3.1h3.9v1h-3.9v3.9h4.1V429.3z"/>
	</g>
</g>
</svg>
