<?xml version="1.0" encoding="utf-8"?>
<!-- Generator: Adobe Illustrator 17.1.0, SVG Export Plug-In . SVG Version: 6.00 Build 0)  -->
<!DOCTYPE svg PUBLIC "-//W3C//DTD SVG 1.1//EN" "http://www.w3.org/Graphics/SVG/1.1/DTD/svg11.dtd">
<svg version="1.1" id="Layer_1" xmlns="http://www.w3.org/2000/svg" xmlns:xlink="http://www.w3.org/1999/xlink" x="0px" y="0px"
	 width="800px" height="600px" viewBox="0 0 800 600" enable-background="new 0 0 800 600" xml:space="preserve">
<g>
	<path fill="#F0F0F0" d="M91.4,80.9H67.3l-5,14c-0.8,2.2-1.4,4-1.7,5.2s-0.5,2.1-0.5,2.8c0,1.3,0.7,2.2,2,2.5
		c1.4,0.4,3.6,0.7,6.8,0.9c0.4,0,0.6,0.5,0.6,1.4c0,0.4,0,0.8-0.1,1.2c-0.1,0.4-0.2,0.6-0.5,0.6c-0.5,0-1.2,0-2.2-0.1
		c-1,0-2-0.1-3.2-0.1s-2.3-0.1-3.5-0.1s-2.3-0.1-3.2-0.1c-0.7,0-1.7,0-2.9,0.1c-1.2,0-2.4,0.1-3.6,0.1c-1.2,0-2.4,0.1-3.5,0.1
		s-1.9,0.1-2.4,0.1c-0.2,0-0.4-0.1-0.5-0.4s-0.1-0.6-0.1-1.1c0-1.1,0.2-1.6,0.6-1.6c1.7-0.2,3.2-0.4,4.3-0.7c1.1-0.3,2.1-0.9,3-1.7
		c0.9-0.9,1.7-2.1,2.5-3.8c0.8-1.7,1.8-3.9,2.9-6.7c3.8-9.9,7.5-19.9,11.2-29.9c3.6-10,7.2-19.9,10.7-29.8c0.2-0.7,0.5-1.1,0.9-1.1
		h6.3c0.3,0,0.6,0.3,0.9,0.9c3.3,10.4,6.6,20.4,10,30.2s6.8,19.7,10.3,29.7c1,2.9,1.9,5.2,2.6,6.8c0.7,1.7,1.6,2.9,2.4,3.7
		c0.9,0.8,1.9,1.4,3.1,1.7c1.2,0.3,2.8,0.5,4.7,0.7c0.2,0,0.3,0.1,0.4,0.4s0.1,0.6,0.1,0.9c0,0.4,0,0.8-0.1,1.2
		c-0.1,0.4-0.2,0.6-0.5,0.6c-0.6,0-1.5,0-2.7-0.1c-1.2,0-2.6-0.1-4.1-0.2l-4.3-0.1h-7.1l-4.2,0.1c-1.4,0.1-2.7,0.1-3.9,0.2
		c-1.2,0-2.1,0.1-2.8,0.1c-0.2,0-0.4-0.1-0.5-0.4s-0.1-0.6-0.1-1.1c0-0.3,0-0.7,0.1-1.1s0.2-0.6,0.5-0.6c2.9-0.2,4.9-0.4,6-0.7
		c1.1-0.3,1.6-1,1.6-2.1c0-0.5-0.1-1.2-0.3-2.2c-0.2-1-0.6-2.4-1.3-4.2L91.4,80.9z M68.8,76.6h21.4l-10.1-31h-0.2L68.8,76.6z"/>
	<path fill="#F0F0F0" d="M147.8,106.3c0.2,0,0.3,0.1,0.3,0.4s0.1,0.6,0.1,0.9c0,0.4,0,0.8-0.1,1.2c-0.1,0.4-0.2,0.6-0.4,0.6
		c-0.4,0-1.2,0-2.2-0.1c-1.1,0-2.3-0.1-3.6-0.1s-2.6-0.1-3.9-0.1c-1.2,0-2.2-0.1-3-0.1c-1,0-2.1,0-3.4,0.1c-1.2,0-2.4,0.1-3.6,0.1
		c-1.2,0-2.2,0.1-3.2,0.1s-1.6,0.1-2.1,0.1c-0.2,0-0.4-0.1-0.5-0.4s-0.1-0.6-0.1-1.1c0-0.3,0-0.7,0.1-1.1s0.2-0.6,0.5-0.6
		c1.7-0.1,3-0.2,4-0.5c1-0.2,1.7-0.8,2.2-1.7c0.5-0.9,0.8-2.1,0.9-3.8c0.1-1.7,0.2-4,0.2-7V39c0-2-0.1-3.6-0.3-4.7
		c-0.2-1.2-0.6-2-1.2-2.6c-0.6-0.6-1.5-1-2.5-1.1c-1.1-0.2-2.5-0.2-4.3-0.2c-0.2,0-0.4-0.5-0.4-1.4c0-0.4,0-0.8,0.1-1.1
		c0-0.3,0.1-0.4,0.3-0.4c1-0.1,2.3-0.2,3.9-0.3c1.6-0.1,3.2-0.2,4.9-0.3c1.7-0.1,3.3-0.2,4.7-0.2c1.4-0.1,2.5-0.1,3.2-0.1
		c0.9,0,1.5,0.2,1.8,0.6s0.4,1,0.4,1.9c0,0.7,0,2-0.1,3.9c0,1.9-0.1,4.4-0.2,7.3c-0.1,2.9-0.1,6.2-0.2,9.9c0,3.7-0.1,7.7-0.1,11.8
		v31.6c0,3,0.1,5.3,0.2,7c0.2,1.7,0.5,2.9,1,3.7c0.5,0.8,1.3,1.4,2.3,1.7C144.7,106.1,146.1,106.3,147.8,106.3z"/>
	<path fill="#F0F0F0" d="M178.2,106.3c0.2,0,0.3,0.1,0.3,0.4s0.1,0.6,0.1,0.9c0,0.4,0,0.8-0.1,1.2c-0.1,0.4-0.2,0.6-0.4,0.6
		c-0.4,0-1.2,0-2.2-0.1c-1.1,0-2.3-0.1-3.6-0.1s-2.6-0.1-3.9-0.1c-1.2,0-2.2-0.1-3-0.1c-1,0-2.1,0-3.4,0.1c-1.2,0-2.4,0.1-3.6,0.1
		c-1.2,0-2.2,0.1-3.2,0.1s-1.6,0.1-2.1,0.1c-0.2,0-0.4-0.1-0.5-0.4s-0.1-0.6-0.1-1.1c0-0.3,0-0.7,0.1-1.1s0.2-0.6,0.5-0.6
		c1.7-0.1,3-0.2,4-0.5c1-0.2,1.7-0.8,2.2-1.7c0.5-0.9,0.8-2.1,0.9-3.8c0.1-1.7,0.2-4,0.2-7V39c0-2-0.1-3.6-0.3-4.7
		c-0.2-1.2-0.6-2-1.2-2.6c-0.6-0.6-1.5-1-2.5-1.1c-1.1-0.2-2.5-0.2-4.3-0.2c-0.2,0-0.4-0.5-0.4-1.4c0-0.4,0-0.8,0.1-1.1
		c0-0.3,0.1-0.4,0.3-0.4c1-0.1,2.3-0.2,3.9-0.3c1.6-0.1,3.2-0.2,4.9-0.3c1.7-0.1,3.3-0.2,4.7-0.2c1.4-0.1,2.5-0.1,3.2-0.1
		c0.9,0,1.5,0.2,1.8,0.6s0.4,1,0.4,1.9c0,0.7,0,2-0.1,3.9c0,1.9-0.1,4.4-0.2,7.3c-0.1,2.9-0.1,6.2-0.2,9.9c0,3.7-0.1,7.7-0.1,11.8
		v31.6c0,3,0.1,5.3,0.2,7c0.2,1.7,0.5,2.9,1,3.7c0.5,0.8,1.3,1.4,2.3,1.7C175,106.1,176.4,106.3,178.2,106.3z"/>
	<path fill="#F0F0F0" d="M225.6,63.5c-0.1,3-0.1,6-0.2,9c0,3-0.1,5.9-0.1,8.6s-0.1,5.3-0.1,7.7v5.8c0,4.1,0.5,6.9,1.5,8.3
		s2.7,2.1,5.2,2.1c1.3,0,2.5-0.2,3.5-0.7s1.9-1,2.5-1.6c0.7-0.6,1.2-1.1,1.6-1.6c0.4-0.5,0.7-0.7,0.9-0.7c0.4,0,0.9,0.3,1.5,0.8
		s0.9,1,0.9,1.3c0,0.1-0.2,0.6-0.7,1.4c-0.5,0.9-1.3,1.8-2.5,2.8s-2.7,1.9-4.5,2.7c-1.8,0.8-4.1,1.2-6.7,1.2
		c-4.9,0-8.3-1.2-10.3-3.5s-3-5.6-3-9.8c0-2.2,0-4.7,0.1-7.7c0-3,0.1-6,0.1-9.2c0-3.1,0.1-6.2,0.2-9.3c0.1-3,0.2-5.7,0.2-7.9h-8
		c-0.2,0-0.4-0.1-0.5-0.4c-0.1-0.3-0.1-0.6-0.1-1.1c0-0.7,0.2-1.2,0.6-1.4c2.5-1.1,4.6-2.3,6.2-3.6c1.7-1.3,3-2.8,4.1-4.3
		s2-3.1,2.7-4.8s1.4-3.4,2-5.1c0.1-0.3,0.4-0.5,1-0.5c0.4,0,0.9,0,1.6,0.1c0.6,0.1,0.9,0.3,0.9,0.6c0,0.2,0,0.8-0.1,1.9
		c-0.1,1.1-0.2,2.5-0.2,4c-0.1,1.6-0.2,3.3-0.2,5c-0.1,1.8-0.1,3.4-0.1,4.8h14.9c0.3,0,0.5,0.5,0.5,1.6v0.6c0,1.6-0.2,2.4-0.6,2.4
		h-14.8V63.5z"/>
	<path fill="#F0F0F0" d="M253.1,74.4c-1.2-3-2.1-5.3-2.8-6.9c-0.7-1.7-1.4-2.9-2.1-3.8c-0.7-0.9-1.5-1.4-2.4-1.6
		c-0.9-0.2-2.1-0.4-3.5-0.6c-0.3,0-0.5-0.4-0.5-1.3c0-0.4,0-0.8,0.1-1.2s0.2-0.6,0.5-0.6s1,0,2,0.1c1,0,2.1,0.1,3.3,0.1
		s2.3,0,3.5,0.1c1.2,0,2.2,0.1,2.9,0.1c0.9,0,2,0,3.2-0.1c1.2,0,2.4-0.1,3.5-0.1s2.1,0,3-0.1c0.9,0,1.5-0.1,1.9-0.1
		c0.2,0,0.4,0.2,0.4,0.5s0.1,0.7,0.1,1.1s0,0.8-0.1,1.1c0,0.3-0.2,0.5-0.4,0.5c-1.8,0.2-3.1,0.4-3.9,0.7s-1.2,1.1-1.2,2.3
		c0,0.7,0.2,1.6,0.5,2.8c0.3,1.2,0.8,2.7,1.5,4.4l9.7,26.6h0.1l10.1-26.5c0.8-2.1,1.4-3.6,1.6-4.7s0.4-1.9,0.4-2.6
		c0-1.2-0.5-2-1.4-2.3c-1-0.3-2.6-0.5-4.9-0.7c-0.2,0-0.4-0.4-0.4-1.3c0-0.4,0-0.8,0.1-1.2c0-0.4,0.2-0.6,0.4-0.6
		c0.2,0,0.8,0,1.6,0.1c0.8,0,1.7,0.1,2.7,0.1s2,0,2.9,0.1c1,0,1.7,0.1,2.2,0.1c0.8,0,1.8,0,2.8-0.1c1,0,2-0.1,3-0.1s1.8,0,2.5-0.1
		c0.7,0,1.3-0.1,1.6-0.1c0.2,0,0.3,0.2,0.3,0.5s0.1,0.7,0.1,1.1s0,0.8-0.1,1.1c0,0.3-0.1,0.5-0.3,0.5c-1.4,0.1-2.5,0.2-3.4,0.5
		s-1.7,0.8-2.4,1.7c-0.7,0.9-1.4,2.2-2.2,3.8c-0.7,1.7-1.7,4-2.9,6.9c-1.6,4-3,7.5-4.2,10.5s-2.3,5.7-3.3,8.2
		c-1,2.4-1.9,4.7-2.7,6.7c-0.8,2-1.7,4.1-2.5,6.1l-5.3,13.8c-2.7,6.7-5.2,11.7-7.6,15.1c-2.4,3.3-5.5,5-9.1,5
		c-2.3,0-4.1-0.6-5.3-1.9c-1.2-1.3-1.8-2.8-1.8-4.4c0-1.7,0.5-3.3,1.6-4.7c1.1,0.7,2.2,1.2,3.2,1.5c1.1,0.3,2.2,0.5,3.5,0.5
		c1.6,0,3-0.4,4.2-1.2c1.2-0.8,2.4-2.1,3.5-3.9c1.1-1.7,2.2-4,3.3-6.6c1.1-2.7,2.4-5.9,3.9-9.6l-2.2-0.2L253.1,74.4z"/>
	<path fill="#F0F0F0" d="M317.2,123.1c0,2.9,0,5.2,0.1,6.8c0.1,1.6,0.4,2.8,0.9,3.6s1.3,1.3,2.4,1.6c1.1,0.2,2.7,0.5,4.7,0.6
		c0.2,0,0.3,0.1,0.3,0.4c0,0.3,0.1,0.6,0.1,0.9c0,0.4,0,0.8-0.1,1.2s-0.2,0.6-0.4,0.6c-0.4,0-1.1,0-2.2-0.1c-1,0-2.2-0.1-3.4-0.1
		c-1.2,0-2.5-0.1-3.7-0.1s-2.1-0.1-2.8-0.1c-1,0-2.2,0-3.5,0.1c-1.3,0-2.6,0.1-3.9,0.1c-1.2,0-2.4,0.1-3.4,0.1s-1.7,0.1-2.1,0.1
		c-0.2,0-0.4-0.1-0.5-0.4c-0.1-0.3-0.1-0.6-0.1-1.1c0-0.3,0-0.7,0.1-1.1c0.1-0.4,0.2-0.6,0.5-0.6c1.5-0.1,2.7-0.2,3.6-0.5
		c0.9-0.2,1.6-0.8,2.1-1.6s0.8-2.1,1-3.7c0.2-1.6,0.2-3.9,0.2-6.8V69.9c0-2-0.1-3.6-0.3-4.7c-0.2-1.2-0.6-2-1.2-2.5
		s-1.3-0.9-2.3-1.1c-1-0.2-2.2-0.2-3.8-0.2c-0.4,0-0.6-0.4-0.6-1.2c0-0.3,0-0.7,0.1-1s0.2-0.5,0.4-0.5c0.9-0.1,2.1-0.2,3.7-0.3
		c1.5-0.1,3.1-0.2,4.7-0.3s3-0.1,4.3-0.2c1.3,0,2.3-0.1,2.9-0.1c0.9,0,1.5,0.2,1.8,0.5s0.4,0.8,0.4,1.4v1.6c0,0.6,0,1.5-0.1,2.6
		l0.5,0.1c2.2-2.2,4.6-3.9,7.2-5.2s5.6-2,9.2-2c3.7,0,6.9,0.7,9.4,2c2.6,1.3,4.7,3.1,6.3,5.3c1.6,2.2,2.8,4.8,3.5,7.8
		s1.1,6.1,1.1,9.3c0,4.1-0.6,7.9-1.7,11.5s-2.8,6.7-4.9,9.4c-2.2,2.7-4.8,4.8-8,6.3c-3.2,1.6-6.9,2.4-11,2.4c-4.2,0-8-1-11.4-3.1
		l-0.2,0.1L317.2,123.1L317.2,123.1z M317.2,99.6c0,2.4,1,4.2,3,5.5c2,1.2,4.8,1.9,8.6,1.9c2.9,0,5.3-0.7,7.2-2.2
		c1.9-1.4,3.4-3.3,4.5-5.5s1.9-4.7,2.4-7.5s0.7-5.5,0.7-8.1c0-7-1.2-12.3-3.5-16.1c-2.3-3.8-5.7-5.7-10.2-5.7
		c-1.8,0-3.5,0.3-5.1,0.9c-1.6,0.6-2.9,1.4-4,2.4s-2,2.1-2.6,3.4c-0.6,1.2-0.9,2.5-0.9,3.9v27.1H317.2z"/>
	<path fill="#F0F0F0" d="M375.1,82.1c0,2.7,0.2,5.5,0.6,8.3s1.2,5.3,2.4,7.6c1.2,2.3,2.8,4.1,4.8,5.6c2.1,1.5,4.8,2.2,8.1,2.2
		c2.4,0,4.8-0.5,7.1-1.6c2.4-1.1,4.6-3.1,6.8-6c0.3-0.4,0.6-0.6,0.7-0.6c0.4,0,1,0.3,1.8,0.9s1.2,1.1,1.2,1.6c0,0.2-0.2,0.5-0.5,1.1
		c-0.5,0.7-1.3,1.7-2.4,2.7c-1.1,1.1-2.4,2.1-4,3.2c-1.6,1-3.5,1.9-5.8,2.7c-2.2,0.7-4.8,1.1-7.7,1.1c-7.5,0-13.4-2.3-17.6-7
		c-4.2-4.6-6.3-11-6.3-19.1c0-4.4,0.6-8.3,1.9-11.8c1.2-3.5,2.9-6.4,5.1-8.8s4.7-4.2,7.8-5.5c3-1.2,6.4-1.9,10-1.9
		c2.1,0,4.3,0.3,6.6,0.9c2.4,0.6,4.5,1.7,6.5,3.4c1.9,1.7,3.6,4,4.8,7.1c1.3,3.1,1.9,7.1,1.9,12.1c0,0.6-0.1,1-0.2,1.4
		c-0.2,0.3-0.6,0.5-1.2,0.5L375.1,82.1L375.1,82.1z M387.9,60.4c-2.3,0-4.2,0.5-5.8,1.6c-1.5,1.1-2.8,2.4-3.8,4.1s-1.7,3.6-2.2,5.7
		c-0.5,2.2-0.8,4.3-0.9,6.3h23.4c-0.1-1.7-0.2-3.5-0.5-5.6c-0.2-2.1-0.7-4-1.4-5.8c-0.7-1.8-1.7-3.3-3.1-4.5
		C392.2,61,390.3,60.4,387.9,60.4z"/>
	<path fill="#F0F0F0" d="M466.5,106.3c0.2,0,0.3,0.1,0.4,0.4s0.1,0.6,0.1,0.9c0,0.4,0,0.8-0.1,1.2c-0.1,0.4-0.2,0.6-0.5,0.6
		s-1,0-2-0.1c-1,0-2.2-0.1-3.4-0.1c-1.2,0-2.5-0.1-3.7-0.1s-2.2-0.1-2.9-0.1c-1,0-2.1,0-3.4,0.1c-1.3,0-2.5,0.1-3.7,0.1
		s-2.2,0.1-3.2,0.1s-1.7,0.1-2,0.1c-0.2,0-0.4-0.1-0.4-0.4s-0.1-0.6-0.1-1.1c0-0.3,0-0.7,0.1-1.1c0-0.4,0.2-0.6,0.4-0.6
		c1.7-0.1,3-0.2,4-0.5c1-0.2,1.7-0.8,2.2-1.6c0.5-0.8,0.8-2.1,1-3.7s0.2-3.9,0.2-6.8V69.9c0-2-0.1-3.6-0.3-4.7
		c-0.2-1.2-0.6-2-1.1-2.5s-1.3-0.9-2.2-1.1c-1-0.2-2.2-0.2-3.7-0.2c-0.4,0-0.6-0.4-0.6-1.2c0-0.3,0-0.7,0.1-1s0.2-0.5,0.5-0.5
		c0.8-0.1,2-0.2,3.4-0.3s3-0.2,4.5-0.3c1.6-0.1,3.1-0.1,4.5-0.2c1.4,0,2.4-0.1,3.1-0.1c1.4,0,2.1,0.7,2.1,2.1c0,1.2-0.1,3.5-0.2,7.1
		c-0.1,3.6-0.2,8.3-0.2,14.2v12.5c0,2.9,0.1,5.2,0.2,6.8c0.1,1.6,0.4,2.8,0.9,3.7c0.5,0.8,1.2,1.4,2.1,1.6
		C463.6,106.1,464.9,106.3,466.5,106.3z M454.6,35.1c1.8,0,3.2,0.5,4.3,1.5c1,1,1.6,2.4,1.6,4.3c0,1.7-0.4,3.2-1.3,4.7
		s-2.5,2.2-4.9,2.2c-1.7,0-3.1-0.5-4.2-1.6c-1.2-1-1.7-2.5-1.7-4.5c0-1.7,0.5-3.2,1.4-4.6C450.5,35.8,452.2,35.1,454.6,35.1z"/>
	<path fill="#F0F0F0" d="M505.2,73c-0.7,0-1.2-0.1-1.4-0.2c-0.2-0.1-0.4-0.5-0.4-1.1c-0.2-3.7-1.1-6.5-2.5-8.4s-4.1-2.9-8-2.9
		c-3.4,0-6,0.7-7.8,2.1c-1.8,1.4-2.7,3.4-2.7,6.1c0,1.4,0.4,2.6,1.1,3.7c0.7,1,1.6,1.9,2.8,2.7c1.2,0.8,2.5,1.5,4,2.2
		s3.1,1.3,4.7,1.9c1.8,0.7,3.6,1.5,5.5,2.4c1.8,0.8,3.4,1.8,4.8,3s2.6,2.6,3.5,4.3c0.9,1.7,1.4,3.7,1.4,6c0,3.1-0.6,5.6-1.9,7.6
		c-1.2,2-2.8,3.7-4.7,4.9c-1.9,1.2-4,2.1-6.4,2.7c-2.4,0.5-4.7,0.8-6.9,0.8c-2.2,0-4.4-0.1-6.6-0.4c-2.3-0.3-4.6-0.9-7-1.7
		c-0.9-0.3-1.5-0.7-1.7-1s-0.3-1.1-0.3-2.2v-5.1c0-1.8,0.1-4.1,0.2-7c0-0.7,0.1-1.1,0.4-1.2c0.2-0.1,0.8-0.2,1.6-0.2
		c0.8,0,1.3,0.1,1.6,0.2c0.2,0.1,0.4,0.5,0.4,1.1c0.4,4.6,1.4,8.1,3,10.3c1.6,2.2,4.7,3.3,9.1,3.3c3.3,0,5.9-0.7,7.6-2.1
		c1.8-1.4,2.7-3.4,2.7-6c0-1.7-0.4-3.2-1.1-4.3c-0.7-1.2-1.6-2.2-2.8-3c-1.2-0.9-2.5-1.6-4-2.2s-3.1-1.3-4.7-1.9
		c-1.7-0.7-3.5-1.4-5.2-2.2c-1.7-0.8-3.2-1.8-4.5-2.9c-1.3-1.2-2.4-2.5-3.2-4.2c-0.8-1.6-1.2-3.6-1.2-6c0-4.4,1.6-8,4.8-10.9
		c3.2-2.9,8.1-4.3,14.6-4.3c1.9,0,3.9,0.1,5.8,0.3c2,0.2,3.9,0.5,5.8,0.9c0.9,0.2,1.5,0.5,1.7,0.8s0.3,1,0.3,2.2c0,1.7,0,3.3-0.1,5
		c0,1.7-0.1,3.6-0.2,5.7c0,0.7-0.1,1.1-0.4,1.2C506.6,73,506,73,505.2,73z"/>
	<path fill="#F0F0F0" d="M85.3,176.7c1.7,2.1,2.9,4.1,3.6,6.1s1.1,4.2,1.1,6.6c0,2.4-0.4,4.7-1.2,7.1c-0.8,2.3-2,4.4-3.7,6.2
		s-3.8,3.3-6.4,4.4c-2.6,1.1-5.7,1.7-9.4,1.7c-1.2,0-2.3-0.1-3.5-0.2c-1.2-0.2-2.3-0.4-3.2-0.6c-0.4,0.7-0.8,1.6-1.1,2.8
		s-0.5,2.2-0.5,3c0,1.1,0.4,1.9,1.1,2.4c0.7,0.5,1.7,0.8,3,1c1.2,0.2,2.7,0.2,4.3,0.2c1.7,0,3.4,0,5.3,0.1c2.5,0.1,5,0.3,7.5,0.6
		s4.8,1,6.8,2.1c2.1,1,3.7,2.5,5,4.5c1.3,1.9,1.9,4.5,1.9,7.8c0,2.4-0.5,4.8-1.6,7.3c-1,2.5-2.6,4.8-4.7,6.8c-2.1,2.1-4.8,3.7-8.1,5
		c-3.3,1.3-7.2,1.9-11.8,1.9c-4.6,0-8.4-0.6-11.4-1.7c-2.9-1.1-5.2-2.5-6.9-4.1s-2.8-3.4-3.4-5.3c-0.6-1.9-0.9-3.6-0.9-5.2
		c0-2.7,0.6-4.8,1.9-6.5c1.3-1.7,2.9-2.5,4.9-2.5c1.1,0,2.1,0.2,3.1,0.7c-0.9,1.7-1.6,3.3-1.9,4.7c-0.4,1.4-0.6,2.9-0.6,4.6
		c0,3.1,1.2,5.8,3.5,7.9c2.4,2.1,6.4,3.2,12.1,3.2c3.3,0,6.1-0.4,8.4-1.2s4.2-1.9,5.7-3.2s2.6-2.7,3.2-4.3c0.7-1.6,1-3.1,1-4.6
		c0-2.1-0.4-3.7-1.2-5c-0.8-1.3-2-2.2-3.4-2.9c-1.5-0.7-3.1-1.1-5-1.4c-1.9-0.2-3.9-0.4-6.1-0.5c-2.4-0.1-4.8-0.1-7.2-0.1
		c-2.4,0-4.5-0.2-6.4-0.5s-3.4-1-4.5-1.9c-1.2-0.9-1.7-2.3-1.7-4.2c0-1.7,0.7-3.6,2-5.9c1.4-2.3,3.3-4.4,5.7-6.3
		c-3.2-1.3-5.8-3.4-7.8-6.3c-2-2.9-3-6.5-3-11c0-5.7,1.7-10.4,5.2-14.1c3.5-3.7,8.4-5.5,14.8-5.5c1.8,0,3.5,0.2,5.1,0.5
		s3,0.7,4.3,1.1c1.3,0.4,2.6,0.7,3.9,1c1.2,0.3,2.5,0.4,3.7,0.4c3.6,0,5.6-1.6,5.8-4.7c0.7-0.2,1.2-0.2,1.6-0.2
		c1.2,0,2.1,0.4,2.7,1.2c0.7,0.8,1,1.7,1,2.8c0,1.7-0.6,3-1.9,3.9c-1.2,0.9-2.8,1.3-4.6,1.3c-2,0-4-0.4-6.1-1.2L85.3,176.7z
		 M69.8,174c-2,0-3.6,0.5-4.8,1.4c-1.2,1-2.2,2.2-2.9,3.6c-0.7,1.5-1.2,3-1.4,4.7s-0.4,3.1-0.4,4.5c0,2,0.1,4,0.4,6
		c0.3,2,0.8,3.9,1.6,5.5c0.7,1.6,1.8,2.9,3.1,3.9c1.3,1,3.1,1.5,5.2,1.5c2,0,3.6-0.5,4.8-1.5c1.2-1,2.1-2.3,2.8-3.8
		c0.7-1.5,1.1-3.3,1.4-5.2c0.2-1.9,0.4-3.8,0.4-5.6c0-1.7-0.1-3.5-0.4-5.3c-0.2-1.8-0.7-3.4-1.5-4.8c-0.7-1.4-1.8-2.6-3.1-3.5
		C73.6,174.5,71.9,174,69.8,174z"/>
	<path fill="#F0F0F0" d="M112.9,195.6c0,2.7,0.2,5.5,0.6,8.3s1.2,5.3,2.4,7.6c1.2,2.3,2.8,4.1,4.8,5.6c2.1,1.5,4.8,2.2,8.1,2.2
		c2.4,0,4.8-0.5,7.1-1.6c2.4-1.1,4.6-3.1,6.8-6c0.3-0.4,0.6-0.6,0.7-0.6c0.4,0,1,0.3,1.8,0.9c0.8,0.6,1.2,1.1,1.2,1.6
		c0,0.2-0.2,0.5-0.5,1.1c-0.5,0.7-1.3,1.7-2.4,2.7c-1.1,1.1-2.4,2.1-4,3.2c-1.6,1-3.5,1.9-5.8,2.7c-2.2,0.7-4.8,1.1-7.7,1.1
		c-7.5,0-13.4-2.3-17.6-7c-4.2-4.6-6.3-11-6.3-19.1c0-4.4,0.6-8.3,1.9-11.8c1.2-3.5,2.9-6.4,5.1-8.8c2.2-2.4,4.7-4.2,7.8-5.5
		c3-1.2,6.4-1.9,10-1.9c2.1,0,4.3,0.3,6.6,0.9c2.4,0.6,4.5,1.7,6.5,3.4c1.9,1.7,3.6,4,4.8,7.1c1.3,3.1,1.9,7.1,1.9,12.1
		c0,0.6-0.1,1-0.2,1.4c-0.2,0.3-0.6,0.5-1.2,0.5L112.9,195.6L112.9,195.6z M125.7,173.9c-2.3,0-4.2,0.5-5.8,1.6
		c-1.5,1.1-2.8,2.4-3.8,4.1c-1,1.7-1.7,3.6-2.2,5.7c-0.5,2.2-0.8,4.3-0.9,6.3h23.4c-0.1-1.7-0.2-3.5-0.5-5.6c-0.2-2.1-0.7-4-1.4-5.8
		s-1.7-3.3-3.1-4.5C130,174.5,128.1,173.9,125.7,173.9z"/>
	<path fill="#F0F0F0" d="M213.3,219.9c0.2,0,0.3,0.1,0.4,0.4c0.1,0.3,0.1,0.6,0.1,0.9c0,0.4,0,0.8-0.1,1.2s-0.2,0.6-0.5,0.6
		c-0.4,0-1.1,0-2.2-0.1c-1,0-2.2-0.1-3.5-0.1s-2.5-0.1-3.7-0.1s-2.2-0.1-2.9-0.1c-0.9,0-2,0-3.2,0.1c-1.2,0-2.4,0.1-3.6,0.1
		c-1.2,0-2.2,0.1-3.2,0.1s-1.7,0.1-2,0.1c-0.2,0-0.3-0.1-0.4-0.4c-0.1-0.3-0.1-0.6-0.1-1.1c0-0.3,0-0.7,0.1-1.1
		c0.1-0.4,0.2-0.6,0.4-0.6c1.7-0.1,3.1-0.3,4-0.6c1-0.3,1.7-0.8,2.1-1.7c0.5-0.8,0.7-2.1,0.8-3.7c0.1-1.6,0.2-3.8,0.2-6.5
		c0.1-3,0.1-6.1,0.1-9.3v-10.1c0-1.8-0.1-3.5-0.3-4.9s-0.6-2.7-1.2-3.7c-0.6-1-1.5-1.8-2.7-2.3s-2.7-0.8-4.6-0.8
		c-1.7,0-3.3,0.3-4.8,0.8s-2.8,1.2-3.9,2.1c-1.2,0.8-2.2,1.7-3,2.7s-1.6,2-2.2,3c-0.4,0.7-0.6,1.3-0.7,1.9c0,0.6-0.1,1.4-0.1,2.3
		v18.1c0,2.9,0,5.2,0.1,6.8s0.4,2.8,0.8,3.7c0.5,0.8,1.1,1.4,2,1.6c0.9,0.2,2.2,0.4,3.9,0.5c0.2,0,0.3,0.1,0.3,0.4
		c0,0.3,0.1,0.6,0.1,0.9c0,0.4,0,0.8-0.1,1.2s-0.2,0.6-0.4,0.6c-0.3,0-1,0-2-0.1c-1,0-2.1-0.1-3.4-0.1c-1.2,0-2.5-0.1-3.7-0.1
		s-2.1-0.1-2.8-0.1c-1.1,0-2.3,0-3.5,0.1c-1.3,0-2.5,0.1-3.7,0.1s-2.3,0.1-3.2,0.1c-1,0-1.6,0.1-1.9,0.1c-0.2,0-0.4-0.1-0.4-0.4
		c0-0.3-0.1-0.6-0.1-1.1c0-0.3,0-0.7,0.1-1.1c0-0.4,0.2-0.6,0.4-0.6c1.7-0.1,3.1-0.2,4.1-0.5c1-0.2,1.7-0.8,2.2-1.6s0.8-2.1,1-3.7
		c0.2-1.6,0.2-3.9,0.2-6.8v-23.9c0-2-0.1-3.6-0.3-4.7c-0.2-1.2-0.6-2-1.2-2.5c-0.6-0.5-1.4-0.9-2.4-1.1c-1-0.2-2.3-0.2-3.9-0.2
		c-0.3,0-0.5-0.4-0.5-1.2c0-0.3,0-0.7,0.1-1s0.2-0.5,0.4-0.5c0.8-0.1,2-0.2,3.5-0.3s3-0.2,4.6-0.3s3-0.1,4.3-0.2
		c1.3,0,2.3-0.1,2.9-0.1c1.7,0,2.5,0.6,2.5,1.9c0,0.7,0,1.7-0.1,3s-0.2,2.7-0.2,4.1l0.5,0.1c2.6-3.1,5.3-5.6,8.3-7.4
		c2.9-1.8,6.3-2.7,10.1-2.7c2,0,3.9,0.3,5.7,0.8s3.4,1.4,4.7,2.5c1.4,1.1,2.4,2.5,3.2,4.3c0.8,1.7,1.2,3.8,1.2,6.2v6.6
		c0,2.2,0,4.5-0.1,6.6c0,2.2-0.1,4.3-0.1,6.4v5.3c0,2.5,0.1,4.4,0.3,5.8c0.2,1.4,0.6,2.4,1.1,3.1c0.5,0.7,1.3,1.1,2.2,1.4
		C210.6,219.6,211.8,219.8,213.3,219.9z"/>
	<path fill="#F0F0F0" d="M231.6,195.6c0,2.7,0.2,5.5,0.6,8.3c0.4,2.8,1.2,5.3,2.4,7.6s2.8,4.1,4.8,5.6c2.1,1.5,4.8,2.2,8.1,2.2
		c2.4,0,4.8-0.5,7.1-1.6c2.4-1.1,4.6-3.1,6.8-6c0.3-0.4,0.6-0.6,0.7-0.6c0.4,0,1,0.3,1.8,0.9c0.8,0.6,1.2,1.1,1.2,1.6
		c0,0.2-0.2,0.5-0.5,1.1c-0.5,0.7-1.3,1.7-2.4,2.7c-1.1,1.1-2.4,2.1-4,3.2c-1.6,1-3.5,1.9-5.8,2.7c-2.2,0.7-4.8,1.1-7.7,1.1
		c-7.5,0-13.4-2.3-17.6-7c-4.2-4.6-6.3-11-6.3-19.1c0-4.4,0.6-8.3,1.9-11.8c1.2-3.5,2.9-6.4,5.1-8.8c2.2-2.4,4.7-4.2,7.8-5.5
		c3-1.2,6.4-1.9,10-1.9c2.1,0,4.3,0.3,6.6,0.9c2.4,0.6,4.5,1.7,6.5,3.4c1.9,1.7,3.6,4,4.8,7.1c1.3,3.1,1.9,7.1,1.9,12.1
		c0,0.6-0.1,1-0.2,1.4c-0.2,0.3-0.6,0.5-1.2,0.5L231.6,195.6L231.6,195.6z M244.4,173.9c-2.3,0-4.2,0.5-5.8,1.6
		c-1.5,1.1-2.8,2.4-3.8,4.1c-1,1.7-1.7,3.6-2.2,5.7c-0.5,2.2-0.8,4.3-0.9,6.3h23.4c-0.1-1.7-0.2-3.5-0.5-5.6c-0.2-2.1-0.7-4-1.4-5.8
		s-1.7-3.3-3.1-4.5C248.7,174.5,246.8,173.9,244.4,173.9z"/>
	<path fill="#F0F0F0" d="M291.3,183.3c2.2-4.1,4.5-7.2,7-9.6c2.5-2.3,5.1-3.5,7.7-3.5c1.9,0,3.3,0.6,4.3,1.7c1,1.1,1.4,2.4,1.4,3.9
		c0,1.2-0.3,2.3-1,3.5s-1.6,2.1-2.7,2.8c-1.5-1.7-3.4-2.6-5.7-2.6c-2,0-3.7,0.5-5.1,1.4s-2.5,2.1-3.4,3.6s-1.5,3.2-1.9,5.2
		c-0.4,1.9-0.6,3.9-0.6,5.9v11.6c0,3,0.1,5.3,0.2,7s0.4,2.9,0.9,3.7s1.3,1.3,2.4,1.5s2.6,0.4,4.6,0.4c0.2,0,0.3,0.1,0.4,0.4
		c0.1,0.3,0.1,0.6,0.1,0.9c0,0.4,0,0.8-0.1,1.2s-0.2,0.6-0.5,0.6c-0.7,0-1.6,0-2.8-0.1c-1.2,0-2.5-0.1-3.8-0.1s-2.6-0.1-3.8-0.1
		c-1.2,0-2.1-0.1-2.7-0.1c-1.1,0-2.3,0-3.5,0.1c-1.3,0-2.5,0.1-3.7,0.1s-2.3,0.1-3.2,0.1c-1,0-1.6,0.1-1.9,0.1
		c-0.2,0-0.4-0.1-0.4-0.4c0-0.3-0.1-0.6-0.1-1.1c0-0.3,0-0.7,0.1-1.1c0-0.4,0.2-0.6,0.4-0.6c1.7-0.1,3.1-0.2,4.1-0.5
		c1-0.2,1.7-0.8,2.2-1.6s0.8-2.1,1-3.7c0.2-1.6,0.2-3.9,0.2-6.8v-23.9c0-2-0.1-3.6-0.3-4.7c-0.2-1.2-0.6-2-1.2-2.5s-1.4-0.9-2.4-1.1
		c-1-0.2-2.3-0.2-3.9-0.2c-0.3,0-0.5-0.4-0.5-1.2c0-0.3,0-0.7,0.1-1s0.2-0.5,0.4-0.5c0.9-0.1,2.1-0.2,3.5-0.3s2.9-0.2,4.4-0.3
		s2.9-0.1,4.1-0.2c1.2,0,2.2-0.1,2.7-0.1c1.7,0,2.5,0.6,2.5,1.9c0,0.7,0,1.9-0.1,3.9c0,1.9-0.1,4-0.2,6.2L291.3,183.3z"/>
	<path fill="#F0F0F0" d="M344.8,194c0.1-1.2,0.1-2.4,0.1-3.7v-4c0-1.5-0.1-3-0.3-4.4c-0.2-1.4-0.6-2.8-1.3-3.9
		c-0.7-1.2-1.6-2.1-2.8-2.8c-1.2-0.7-2.8-1.1-4.8-1.1c-3.1,0-5.3,0.7-6.8,2s-2.2,3.1-2.2,5.2c0,0.7,0.1,1.4,0.2,2.2s0.4,1.7,0.7,2.5
		c-1.4,1.6-3.1,2.4-5.2,2.4c-1.3,0-2.5-0.4-3.5-1.2s-1.5-2.1-1.5-3.9c0-1.5,0.5-3,1.5-4.5s2.4-2.9,4.2-4.2c1.8-1.3,3.9-2.3,6.4-3.1
		s5.2-1.2,8.2-1.2c5.3,0,9.5,1.2,12.5,3.5c3.1,2.4,4.6,6.4,4.6,12.1c0,2.7,0,5.9-0.1,9.4c-0.1,3.6-0.1,7.5-0.1,11.7
		c0,3,0.1,5.3,0.2,7s0.4,2.9,0.9,3.7s1.3,1.4,2.3,1.6c1,0.2,2.5,0.4,4.3,0.5c0.2,0,0.4,0.2,0.5,0.6c0.1,0.4,0.1,0.7,0.1,1.1
		c0,0.3,0,0.7-0.1,1s-0.2,0.5-0.5,0.5c-0.2,0-0.9,0-2.1,0.1c-1.2,0-2.7,0.1-4.2,0.1c-1.6,0-3.1,0.1-4.5,0.1c-1.5,0-2.4,0.1-2.9,0.1
		c-0.9,0-1.6-0.2-2.1-0.5s-0.8-1-0.9-1.9l-0.4-5.1l-0.6-0.1c-2.1,2.4-4.4,4.4-6.9,6.1c-2.5,1.7-5.7,2.5-9.4,2.5
		c-1.9,0-3.7-0.3-5.5-0.8c-1.7-0.5-3.3-1.3-4.6-2.4c-1.3-1.1-2.4-2.4-3.1-4s-1.1-3.5-1.1-5.7c0-3.7,0.9-6.7,2.8-8.9s4.3-4,7.3-5.2
		s6.3-2,9.9-2.5C337.6,194.4,341.2,194.1,344.8,194z M344.6,206.8v-2.1c0-0.7,0-1.5,0.1-2.6c0-1.1,0.1-2.6,0.1-4.6
		c-2.3,0-4.7,0.1-7.1,0.4c-2.4,0.3-4.6,0.9-6.5,1.8c-1.9,0.9-3.5,2.2-4.8,3.9c-1.2,1.7-1.9,3.9-1.9,6.6c0,2.7,0.6,4.8,1.9,6.5
		s3.2,2.5,5.9,2.5c2.7,0,4.9-0.7,6.8-2.1c1.9-1.4,3.4-2.9,4.3-4.3c0.5-0.7,0.8-1.4,0.9-2.2C344.6,209.7,344.6,208.5,344.6,206.8z"/>
	<path fill="#F0F0F0" d="M384.8,177c-0.1,3-0.1,6-0.2,9c0,3-0.1,5.9-0.1,8.6c0,2.7-0.1,5.3-0.1,7.7v5.8c0,4.1,0.5,6.9,1.5,8.3
		c1,1.4,2.7,2.1,5.2,2.1c1.3,0,2.5-0.2,3.5-0.7s1.9-1,2.5-1.6c0.7-0.6,1.2-1.1,1.6-1.6s0.7-0.7,0.9-0.7c0.4,0,0.9,0.3,1.5,0.8
		s0.9,1,0.9,1.3c0,0.1-0.2,0.6-0.7,1.4c-0.5,0.9-1.3,1.8-2.5,2.8s-2.7,1.9-4.5,2.7s-4.1,1.2-6.7,1.2c-4.9,0-8.3-1.2-10.3-3.5
		s-3-5.6-3-9.8c0-2.2,0-4.7,0.1-7.7c0-3,0.1-6,0.1-9.2c0-3.1,0.1-6.2,0.2-9.3c0.1-3,0.2-5.7,0.2-7.9h-8c-0.2,0-0.4-0.1-0.5-0.4
		c-0.1-0.3-0.1-0.6-0.1-1.1c0-0.7,0.2-1.2,0.6-1.4c2.5-1.1,4.6-2.3,6.2-3.6c1.7-1.3,3-2.8,4.1-4.3s2-3.1,2.7-4.8s1.4-3.4,2-5.1
		c0.1-0.3,0.4-0.5,1-0.5c0.4,0,0.9,0,1.6,0.1c0.6,0.1,0.9,0.3,0.9,0.6c0,0.2,0,0.8-0.1,1.9c-0.1,1.1-0.2,2.5-0.2,4
		c-0.1,1.6-0.2,3.3-0.2,5c-0.1,1.8-0.1,3.4-0.1,4.8h14.9c0.3,0,0.5,0.5,0.5,1.6v0.6c0,1.6-0.2,2.4-0.6,2.4h-14.8V177z"/>
	<path fill="#F0F0F0" d="M430.6,219.9c0.2,0,0.3,0.1,0.4,0.4c0.1,0.3,0.1,0.6,0.1,0.9c0,0.4,0,0.8-0.1,1.2s-0.2,0.6-0.5,0.6
		s-1,0-2-0.1c-1,0-2.2-0.1-3.4-0.1c-1.2,0-2.5-0.1-3.7-0.1s-2.2-0.1-2.9-0.1c-1,0-2.1,0-3.4,0.1c-1.3,0-2.5,0.1-3.7,0.1
		s-2.2,0.1-3.2,0.1s-1.7,0.1-2,0.1c-0.2,0-0.4-0.1-0.4-0.4c0-0.3-0.1-0.6-0.1-1.1c0-0.3,0-0.7,0.1-1.1c0-0.4,0.2-0.6,0.4-0.6
		c1.7-0.1,3-0.2,4-0.5c1-0.2,1.7-0.8,2.2-1.6s0.8-2.1,1-3.7c0.2-1.6,0.2-3.9,0.2-6.8v-23.9c0-2-0.1-3.6-0.3-4.7
		c-0.2-1.2-0.6-2-1.1-2.5s-1.3-0.9-2.2-1.1c-1-0.2-2.2-0.2-3.7-0.2c-0.4,0-0.6-0.4-0.6-1.2c0-0.3,0-0.7,0.1-1s0.2-0.5,0.5-0.5
		c0.8-0.1,2-0.2,3.4-0.3s3-0.2,4.5-0.3c1.6-0.1,3.1-0.1,4.5-0.2c1.4,0,2.4-0.1,3.1-0.1c1.4,0,2.1,0.7,2.1,2.1c0,1.2-0.1,3.5-0.2,7.1
		s-0.2,8.3-0.2,14.2v12.5c0,2.9,0.1,5.2,0.2,6.8s0.4,2.8,0.9,3.7c0.5,0.8,1.2,1.4,2.1,1.6C427.7,219.6,429,219.8,430.6,219.9z
		 M418.7,148.7c1.8,0,3.2,0.5,4.3,1.5c1,1,1.6,2.4,1.6,4.3c0,1.7-0.4,3.2-1.3,4.7s-2.5,2.2-4.9,2.2c-1.7,0-3.1-0.5-4.2-1.6
		c-1.2-1-1.7-2.5-1.7-4.5c0-1.7,0.5-3.2,1.4-4.6C414.6,149.4,416.3,148.7,418.7,148.7z"/>
	<path fill="#F0F0F0" d="M463.4,223c-0.2,0.5-0.5,0.7-1.1,0.7h-4.1c-0.7,0-1.1-0.2-1.2-0.7l-13-35.1c-1.1-3-2-5.3-2.7-6.9
		c-0.7-1.7-1.4-2.9-2.2-3.7c-0.7-0.8-1.6-1.4-2.4-1.6c-0.9-0.2-2-0.5-3.5-0.6c-0.3,0-0.5-0.4-0.5-1.3c0-0.4,0-0.8,0.1-1.2
		s0.2-0.6,0.5-0.6s1,0,2.1,0.1c1,0,2.1,0.1,3.3,0.1c1.2,0,2.3,0,3.5,0.1c1.2,0,2.2,0.1,2.9,0.1c0.9,0,2,0,3.2-0.1
		c1.2,0,2.4-0.1,3.5-0.1s2.1,0,3-0.1c0.9,0,1.5-0.1,1.9-0.1c0.2,0,0.4,0.2,0.4,0.5s0.1,0.7,0.1,1.1c0,0.4,0,0.8-0.1,1.1
		c0,0.3-0.2,0.5-0.4,0.5c-1.8,0.2-3.1,0.4-3.9,0.7s-1.2,1.1-1.2,2.3c0,0.7,0.2,1.6,0.5,2.8s0.8,2.7,1.5,4.4l9.7,26.5h0.1l10.1-26.4
		c0.8-2.1,1.4-3.7,1.6-4.8c0.2-1,0.4-1.9,0.4-2.5c0-1.2-0.5-2-1.4-2.3c-1-0.3-2.6-0.5-4.9-0.7c-0.2,0-0.4-0.4-0.4-1.3
		c0-0.4,0-0.8,0.1-1.2c0-0.4,0.2-0.6,0.4-0.6s0.8,0,1.6,0.1c0.8,0,1.7,0.1,2.7,0.1s2,0,2.9,0.1c1,0,1.7,0.1,2.2,0.1
		c0.8,0,1.8,0,2.8-0.1c1,0,2-0.1,3-0.1s1.8,0,2.5-0.1c0.7,0,1.3-0.1,1.6-0.1c0.2,0,0.3,0.2,0.3,0.5s0.1,0.7,0.1,1.1
		c0,0.4,0,0.8-0.1,1.1c0,0.3-0.1,0.5-0.3,0.5c-1.4,0.1-2.5,0.2-3.4,0.5c-0.9,0.2-1.7,0.8-2.4,1.7c-0.7,0.9-1.4,2.1-2.2,3.8
		c-0.7,1.7-1.7,4-2.9,6.9L463.4,223z"/>
	<path fill="#F0F0F0" d="M501.4,195.6c0,2.7,0.2,5.5,0.6,8.3s1.2,5.3,2.4,7.6c1.2,2.3,2.8,4.1,4.8,5.6c2.1,1.5,4.8,2.2,8.1,2.2
		c2.4,0,4.8-0.5,7.1-1.6c2.4-1.1,4.6-3.1,6.8-6c0.3-0.4,0.6-0.6,0.7-0.6c0.4,0,1,0.3,1.8,0.9c0.8,0.6,1.2,1.1,1.2,1.6
		c0,0.2-0.2,0.5-0.5,1.1c-0.5,0.7-1.3,1.7-2.4,2.7c-1.1,1.1-2.4,2.1-4,3.2c-1.6,1-3.5,1.9-5.8,2.7c-2.2,0.7-4.8,1.1-7.7,1.1
		c-7.5,0-13.4-2.3-17.6-7c-4.2-4.6-6.3-11-6.3-19.1c0-4.4,0.6-8.3,1.9-11.8c1.2-3.5,2.9-6.4,5.1-8.8c2.2-2.4,4.7-4.2,7.8-5.5
		c3-1.2,6.4-1.9,10-1.9c2.1,0,4.3,0.3,6.6,0.9c2.4,0.6,4.5,1.7,6.5,3.4c1.9,1.7,3.6,4,4.8,7.1c1.3,3.1,1.9,7.1,1.9,12.1
		c0,0.6-0.1,1-0.2,1.4c-0.2,0.3-0.6,0.5-1.2,0.5L501.4,195.6L501.4,195.6z M514.2,173.9c-2.3,0-4.2,0.5-5.8,1.6
		c-1.5,1.1-2.8,2.4-3.8,4.1c-1,1.7-1.7,3.6-2.2,5.7c-0.5,2.2-0.8,4.3-0.9,6.3h23.4c-0.1-1.7-0.2-3.5-0.5-5.6c-0.2-2.1-0.7-4-1.4-5.8
		s-1.7-3.3-3.1-4.5C518.5,174.5,516.6,173.9,514.2,173.9z"/>
</g>
</svg>
