<?xml version="1.0" encoding="utf-8"?>
<!-- Generator: Adobe Illustrator 17.1.0, SVG Export Plug-In . SVG Version: 6.00 Build 0)  -->
<!DOCTYPE svg PUBLIC "-//W3C//DTD SVG 1.1 Tiny//EN" "http://www.w3.org/Graphics/SVG/1.1/DTD/svg11-tiny.dtd">
<svg version="1.1" baseProfile="tiny" id="Layer_1" xmlns="http://www.w3.org/2000/svg" xmlns:xlink="http://www.w3.org/1999/xlink"
	 x="0px" y="0px" width="800px" height="600px" viewBox="0 0 800 600" xml:space="preserve">
<g>
	<path fill="#818181" d="M87.4,78.4c1.5,1.9,2.6,3.8,3.3,5.6c0.7,1.8,1,3.8,1,6c0,2.2-0.4,4.4-1.1,6.5c-0.7,2.1-1.9,4-3.4,5.7
		c-1.5,1.7-3.5,3-5.9,4c-2.4,1-5.3,1.5-8.6,1.5c-1.1,0-2.2-0.1-3.3-0.2c-1.1-0.2-2.1-0.3-2.9-0.6c-0.4,0.6-0.7,1.5-1,2.6
		c-0.3,1.1-0.5,2-0.5,2.8c0,1,0.3,1.7,1,2.2c0.7,0.5,1.6,0.8,2.7,0.9c1.1,0.2,2.5,0.2,4,0.2c1.5,0,3.2,0,4.9,0.1
		c2.3,0.1,4.6,0.3,6.9,0.6c2.3,0.3,4.4,0.9,6.3,1.9c1.9,1,3.5,2.3,4.6,4.1c1.2,1.8,1.8,4.2,1.8,7.2c0,2.2-0.5,4.5-1.4,6.8
		c-1,2.3-2.4,4.4-4.3,6.3c-1.9,1.9-4.4,3.5-7.5,4.6c-3.1,1.2-6.7,1.8-10.9,1.8c-4.3,0-7.8-0.5-10.5-1.5c-2.7-1-4.8-2.3-6.4-3.8
		c-1.5-1.5-2.6-3.1-3.1-4.9c-0.6-1.8-0.9-3.4-0.9-4.8c0-2.4,0.6-4.4,1.8-6c1.2-1.6,2.7-2.3,4.5-2.3c1,0,1.9,0.2,2.9,0.7
		c-0.8,1.6-1.4,3-1.8,4.3c-0.3,1.3-0.5,2.7-0.5,4.2c0,2.9,1.1,5.3,3.3,7.3c2.2,1.9,5.9,2.9,11.2,2.9c3,0,5.6-0.4,7.8-1.1
		c2.1-0.8,3.9-1.7,5.3-2.9c1.4-1.2,2.4-2.5,3-3.9c0.6-1.4,0.9-2.8,0.9-4.2c0-1.9-0.4-3.4-1.1-4.6c-0.8-1.2-1.8-2.1-3.1-2.7
		c-1.3-0.6-2.9-1-4.6-1.3c-1.8-0.2-3.6-0.4-5.6-0.5c-2.2-0.1-4.4-0.1-6.6-0.1c-2.2,0-4.2-0.2-5.9-0.5c-1.7-0.3-3.1-0.9-4.2-1.7
		c-1.1-0.8-1.6-2.1-1.6-3.9c0-1.5,0.6-3.3,1.9-5.4c1.3-2.1,3-4,5.2-5.8c-3-1.2-5.4-3.1-7.2-5.8c-1.8-2.6-2.7-6-2.7-10.1
		c0-5.3,1.6-9.6,4.8-13c3.2-3.4,7.7-5.1,13.6-5.1c1.7,0,3.2,0.2,4.7,0.5c1.4,0.3,2.8,0.6,4,1c1.2,0.3,2.4,0.6,3.5,0.9
		c1.1,0.3,2.3,0.4,3.4,0.4c3.4,0,5.1-1.4,5.4-4.3c0.6-0.2,1.1-0.2,1.5-0.2c1.1,0,1.9,0.4,2.5,1.1c0.6,0.7,0.9,1.6,0.9,2.6
		c0,1.6-0.6,2.7-1.7,3.6c-1.1,0.8-2.6,1.2-4.2,1.2c-1.8,0-3.7-0.4-5.6-1.1L87.4,78.4z M73.1,75.9c-1.8,0-3.3,0.4-4.5,1.3
		c-1.1,0.9-2,2-2.7,3.3c-0.6,1.3-1.1,2.8-1.3,4.3c-0.2,1.5-0.3,2.9-0.3,4.1c0,1.8,0.1,3.7,0.4,5.5c0.3,1.9,0.7,3.5,1.4,5
		c0.7,1.5,1.6,2.7,2.9,3.6c1.2,0.9,2.8,1.4,4.8,1.4c1.8,0,3.3-0.5,4.4-1.4c1.1-0.9,2-2.1,2.6-3.5c0.6-1.4,1-3,1.3-4.7
		c0.2-1.8,0.3-3.5,0.3-5.1c0-1.6-0.1-3.2-0.3-4.9c-0.2-1.7-0.7-3.2-1.4-4.5C79.9,79,79,78,77.8,77.1C76.5,76.3,75,75.9,73.1,75.9z"
		/>
	<path fill="#818181" d="M186.1,95.8c0,2.5,0.2,5.1,0.6,7.6c0.4,2.6,1.1,4.9,2.2,7c1.1,2.1,2.6,3.8,4.5,5.1c1.9,1.3,4.4,2,7.4,2
		c2.2,0,4.4-0.5,6.6-1.5c2.2-1,4.3-2.8,6.2-5.5c0.3-0.4,0.5-0.6,0.7-0.6c0.4,0,0.9,0.3,1.7,0.9c0.7,0.6,1.1,1,1.1,1.4
		c0,0.2-0.2,0.5-0.5,1c-0.5,0.7-1.2,1.5-2.2,2.5c-1,1-2.2,2-3.7,2.9c-1.5,1-3.3,1.8-5.3,2.5c-2.1,0.7-4.4,1-7.1,1
		c-6.9,0-12.4-2.1-16.2-6.4c-3.9-4.3-5.8-10.1-5.8-17.6c0-4,0.6-7.7,1.7-10.9c1.1-3.2,2.7-5.9,4.7-8.1c2-2.2,4.4-3.9,7.2-5
		c2.8-1.1,5.9-1.7,9.2-1.7c1.9,0,3.9,0.3,6.1,0.8c2.2,0.5,4.2,1.6,5.9,3.1c1.8,1.5,3.3,3.7,4.5,6.6c1.2,2.9,1.8,6.6,1.8,11.2
		c0,0.5-0.1,1-0.2,1.3c-0.2,0.3-0.5,0.5-1.1,0.5H186.1z M197.9,75.7c-2.1,0-3.9,0.5-5.3,1.5c-1.4,1-2.6,2.3-3.5,3.8
		c-0.9,1.5-1.6,3.3-2,5.3c-0.4,2-0.7,3.9-0.9,5.8h21.5c-0.1-1.5-0.2-3.2-0.5-5.1c-0.2-1.9-0.7-3.7-1.3-5.3c-0.6-1.6-1.6-3-2.9-4.2
		C201.8,76.3,200.1,75.7,197.9,75.7z"/>
	<path fill="#818181" d="M351.3,118.1c0.2,0,0.3,0.1,0.3,0.4c0.1,0.3,0.1,0.6,0.1,0.9c0,0.4,0,0.7-0.1,1.1c-0.1,0.3-0.2,0.5-0.5,0.5
		c-0.4,0-1,0-2-0.1c-1,0-2-0.1-3.2-0.1c-1.2,0-2.3-0.1-3.4-0.1c-1.1,0-2-0.1-2.7-0.1c-0.8,0-1.8,0-3,0.1c-1.1,0-2.3,0.1-3.3,0.1
		c-1.1,0-2.1,0.1-3,0.1c-0.9,0-1.5,0.1-1.8,0.1c-0.2,0-0.3-0.1-0.3-0.4c-0.1-0.3-0.1-0.6-0.1-1c0-0.3,0-0.6,0.1-1
		c0.1-0.3,0.2-0.5,0.3-0.5c1.6-0.1,2.8-0.2,3.7-0.5c0.9-0.3,1.5-0.8,1.9-1.5c0.4-0.8,0.7-1.9,0.7-3.4c0.1-1.5,0.2-3.5,0.2-6
		c0.1-2.7,0.1-5.6,0.1-8.6v-9.3c0-1.7-0.1-3.2-0.3-4.5c-0.2-1.3-0.6-2.5-1.1-3.4c-0.6-0.9-1.4-1.6-2.5-2.1c-1.1-0.5-2.5-0.7-4.2-0.7
		c-1.6,0-3.1,0.2-4.4,0.7c-1.3,0.5-2.5,1.1-3.6,1.9c-1.1,0.8-2,1.6-2.8,2.5s-1.5,1.8-2,2.7c-0.4,0.6-0.6,1.2-0.6,1.8
		c0,0.6-0.1,1.3-0.1,2.1v16.7c0,2.7,0,4.7,0.1,6.2c0.1,1.5,0.3,2.6,0.7,3.4c0.4,0.8,1,1.3,1.9,1.5c0.8,0.2,2,0.4,3.5,0.5
		c0.2,0,0.2,0.1,0.3,0.4c0,0.3,0.1,0.6,0.1,0.9c0,0.4,0,0.7-0.1,1.1c-0.1,0.3-0.2,0.5-0.3,0.5c-0.3,0-0.9,0-1.8-0.1
		c-0.9,0-1.9-0.1-3.1-0.1c-1.1,0-2.3-0.1-3.4-0.1c-1.1,0-2-0.1-2.6-0.1c-1,0-2.1,0-3.3,0.1c-1.2,0-2.3,0.1-3.4,0.1
		c-1.1,0-2.1,0.1-3,0.1c-0.9,0-1.5,0.1-1.8,0.1c-0.2,0-0.4-0.1-0.4-0.4c0-0.3-0.1-0.6-0.1-1c0-0.3,0-0.6,0.1-1
		c0-0.3,0.2-0.5,0.4-0.5c1.6-0.1,2.9-0.2,3.8-0.5s1.6-0.7,2.1-1.5c0.5-0.8,0.8-1.9,0.9-3.4c0.2-1.5,0.2-3.6,0.2-6.2v-22
		c0-1.8-0.1-3.3-0.3-4.3c-0.2-1.1-0.6-1.8-1.1-2.3c-0.5-0.5-1.3-0.8-2.2-1c-0.9-0.2-2.1-0.2-3.5-0.2c-0.3,0-0.5-0.4-0.5-1.1
		c0-0.3,0-0.6,0.1-0.9c0.1-0.3,0.2-0.5,0.3-0.5c0.8-0.1,1.8-0.2,3.2-0.3c1.4-0.1,2.8-0.2,4.2-0.3c1.4-0.1,2.8-0.1,4-0.2
		c1.2,0,2.1-0.1,2.6-0.1c1.5,0,2.3,0.6,2.3,1.7c0,0.6,0,1.5-0.1,2.7c-0.1,1.2-0.2,2.5-0.2,3.8l0.5,0.1c2.4-2.9,4.9-5.2,7.6-6.8
		c2.7-1.6,5.8-2.5,9.3-2.5c1.8,0,3.6,0.2,5.2,0.7c1.6,0.5,3.1,1.3,4.3,2.3c1.3,1,2.2,2.3,3,3.9c0.7,1.6,1.1,3.5,1.1,5.7v6.1
		c0,2.1,0,4.1-0.1,6.1c0,2-0.1,4-0.1,5.9v4.9c0,2.3,0.1,4.1,0.3,5.4c0.2,1.3,0.5,2.3,1,2.9c0.5,0.6,1.2,1,2.1,1.3
		C348.8,117.9,349.9,118,351.3,118.1z"/>
	<path fill="#818181" d="M186.1,219.2c0,2.5,0.2,5.1,0.6,7.6c0.4,2.6,1.1,4.9,2.2,7c1.1,2.1,2.6,3.8,4.5,5.1c1.9,1.3,4.4,2,7.4,2
		c2.2,0,4.4-0.5,6.6-1.5c2.2-1,4.3-2.8,6.2-5.5c0.3-0.4,0.5-0.6,0.7-0.6c0.4,0,0.9,0.3,1.7,0.9c0.7,0.6,1.1,1,1.1,1.4
		c0,0.2-0.2,0.5-0.5,1c-0.5,0.7-1.2,1.5-2.2,2.5c-1,1-2.2,2-3.7,2.9c-1.5,1-3.3,1.8-5.3,2.5c-2.1,0.7-4.4,1-7.1,1
		c-6.9,0-12.4-2.1-16.2-6.4c-3.9-4.3-5.8-10.1-5.8-17.6c0-4,0.6-7.7,1.7-10.9c1.1-3.2,2.7-5.9,4.7-8.1c2-2.2,4.4-3.9,7.2-5
		c2.8-1.1,5.9-1.7,9.2-1.7c1.9,0,3.9,0.3,6.1,0.8c2.2,0.5,4.2,1.6,5.9,3.1c1.8,1.5,3.3,3.7,4.5,6.6c1.2,2.9,1.8,6.6,1.8,11.2
		c0,0.5-0.1,1-0.2,1.3c-0.2,0.3-0.5,0.5-1.1,0.5H186.1z M197.9,199.2c-2.1,0-3.9,0.5-5.3,1.5c-1.4,1-2.6,2.3-3.5,3.8
		c-0.9,1.5-1.6,3.3-2,5.3c-0.4,2-0.7,3.9-0.9,5.8h21.5c-0.1-1.5-0.2-3.2-0.5-5.1c-0.2-1.9-0.7-3.7-1.3-5.3c-0.6-1.6-1.6-3-2.9-4.2
		S200.1,199.2,197.9,199.2z"/>
	<path fill="#818181" d="M316.3,207.9c2-3.7,4.1-6.7,6.4-8.8c2.3-2.1,4.7-3.2,7.1-3.2c1.8,0,3.1,0.5,3.9,1.5c0.9,1,1.3,2.2,1.3,3.6
		c0,1.1-0.3,2.2-0.9,3.3c-0.6,1.1-1.5,2-2.5,2.6c-1.4-1.6-3.1-2.4-5.3-2.4c-1.8,0-3.4,0.4-4.7,1.3c-1.3,0.8-2.3,1.9-3.1,3.3
		c-0.8,1.4-1.4,3-1.7,4.7c-0.3,1.8-0.5,3.6-0.5,5.4v10.6c0,2.7,0.1,4.9,0.2,6.5c0.1,1.6,0.4,2.7,0.9,3.4c0.5,0.7,1.2,1.2,2.2,1.4
		c1,0.2,2.4,0.3,4.2,0.4c0.2,0,0.3,0.1,0.3,0.4c0.1,0.3,0.1,0.6,0.1,0.9c0,0.4,0,0.7-0.1,1.1c-0.1,0.3-0.2,0.5-0.5,0.5
		c-0.6,0-1.5,0-2.6-0.1c-1.1,0-2.3-0.1-3.5-0.1c-1.2,0-2.4-0.1-3.5-0.1c-1.1,0-1.9-0.1-2.5-0.1c-1,0-2.1,0-3.3,0.1
		c-1.2,0-2.3,0.1-3.4,0.1c-1.1,0-2.1,0.1-3,0.1c-0.9,0-1.5,0.1-1.8,0.1c-0.2,0-0.4-0.1-0.4-0.4c0-0.3-0.1-0.6-0.1-1
		c0-0.3,0-0.6,0.1-1c0-0.3,0.2-0.5,0.4-0.5c1.6-0.1,2.9-0.2,3.8-0.5c0.9-0.2,1.6-0.7,2.1-1.5c0.5-0.8,0.8-1.9,0.9-3.4
		c0.2-1.5,0.2-3.6,0.2-6.2v-22c0-1.8-0.1-3.3-0.3-4.3c-0.2-1.1-0.6-1.8-1.1-2.3c-0.5-0.5-1.3-0.8-2.2-1c-0.9-0.2-2.1-0.2-3.5-0.2
		c-0.3,0-0.5-0.4-0.5-1.1c0-0.3,0-0.6,0.1-0.9c0.1-0.3,0.2-0.5,0.3-0.5c0.8-0.1,1.9-0.2,3.3-0.3c1.3-0.1,2.7-0.2,4.1-0.3
		c1.4-0.1,2.6-0.1,3.8-0.2c1.1,0,2-0.1,2.5-0.1c1.5,0,2.3,0.6,2.3,1.7c0,0.6,0,1.8-0.1,3.5c0,1.8-0.1,3.7-0.2,5.7L316.3,207.9z"/>
	<path fill="#818181" d="M83.9,341.2c0.1-1.1,0.1-2.2,0.1-3.4v-3.7c0-1.4-0.1-2.7-0.3-4.1c-0.2-1.3-0.6-2.5-1.2-3.6
		c-0.6-1.1-1.5-1.9-2.6-2.6c-1.1-0.6-2.6-1-4.4-1c-2.8,0-4.9,0.6-6.2,1.8c-1.3,1.2-2,2.8-2,4.8c0,0.6,0.1,1.3,0.2,2.1
		c0.1,0.8,0.3,1.5,0.6,2.3c-1.3,1.4-2.9,2.2-4.8,2.2c-1.2,0-2.3-0.4-3.2-1.1c-0.9-0.8-1.4-1.9-1.4-3.5c0-1.4,0.5-2.8,1.4-4.2
		c0.9-1.4,2.2-2.7,3.8-3.9c1.6-1.2,3.6-2.1,5.9-2.9c2.3-0.7,4.8-1.1,7.6-1.1c4.9,0,8.7,1.1,11.6,3.3c2.8,2.2,4.2,5.9,4.2,11.2
		c0,2.5,0,5.4-0.1,8.7c-0.1,3.3-0.1,6.9-0.1,10.8c0,2.7,0.1,4.9,0.2,6.4c0.1,1.5,0.4,2.7,0.9,3.4c0.5,0.8,1.2,1.3,2.1,1.5
		c1,0.2,2.3,0.4,3.9,0.5c0.2,0,0.4,0.2,0.5,0.5c0.1,0.3,0.1,0.7,0.1,1c0,0.3,0,0.6-0.1,0.9c-0.1,0.3-0.2,0.5-0.5,0.5
		c-0.2,0-0.8,0-1.9,0.1c-1.1,0-2.4,0.1-3.9,0.1c-1.4,0-2.8,0.1-4.2,0.1c-1.3,0-2.2,0.1-2.7,0.1c-0.8,0-1.5-0.2-1.9-0.5
		c-0.5-0.3-0.7-0.9-0.8-1.7l-0.3-4.7l-0.6-0.1c-1.9,2.2-4,4.1-6.4,5.6c-2.3,1.5-5.2,2.3-8.6,2.3c-1.8,0-3.4-0.2-5-0.7
		c-1.6-0.5-3-1.2-4.2-2.2c-1.2-1-2.2-2.2-2.9-3.7c-0.7-1.5-1-3.2-1-5.2c0-3.4,0.9-6.2,2.6-8.2c1.7-2.1,3.9-3.6,6.7-4.7
		c2.7-1.1,5.8-1.9,9.2-2.3C77.3,341.5,80.6,341.3,83.9,341.2z M83.8,353v-1.9c0-0.6,0-1.4,0.1-2.4c0-1,0.1-2.4,0.1-4.2
		c-2.1,0-4.3,0.1-6.5,0.4c-2.2,0.3-4.2,0.8-6,1.7c-1.8,0.8-3.3,2-4.4,3.5c-1.1,1.5-1.7,3.5-1.7,6.1c0,2.4,0.6,4.4,1.8,5.9
		c1.2,1.5,3,2.3,5.4,2.3c2.4,0,4.5-0.6,6.3-1.9c1.8-1.3,3.1-2.6,4-4c0.5-0.6,0.7-1.3,0.9-2C83.7,355.6,83.8,354.5,83.8,353z"/>
	<path fill="#818181" d="M197.2,325.5c-0.1,2.7-0.1,5.5-0.2,8.3c0,2.8-0.1,5.4-0.1,8c0,2.5-0.1,4.9-0.1,7.1v5.4
		c0,3.8,0.5,6.4,1.4,7.7c0.9,1.3,2.5,1.9,4.8,1.9c1.2,0,2.3-0.2,3.3-0.6c1-0.4,1.7-0.9,2.3-1.4c0.6-0.5,1.1-1,1.5-1.4
		c0.4-0.4,0.6-0.6,0.8-0.6c0.4,0,0.8,0.2,1.4,0.7c0.5,0.5,0.8,0.9,0.8,1.2c0,0.1-0.2,0.5-0.7,1.3c-0.5,0.8-1.2,1.7-2.3,2.6
		c-1.1,0.9-2.4,1.7-4.1,2.5c-1.7,0.7-3.7,1.1-6.2,1.1c-4.5,0-7.7-1.1-9.5-3.2c-1.8-2.1-2.7-5.1-2.7-9c0-2,0-4.3,0.1-7.1
		c0-2.7,0.1-5.6,0.1-8.5c0-2.9,0.1-5.7,0.2-8.5c0.1-2.8,0.2-5.2,0.2-7.3h-7.3c-0.2,0-0.4-0.1-0.5-0.4c-0.1-0.3-0.1-0.6-0.1-1
		c0-0.7,0.2-1.1,0.6-1.3c2.3-1,4.2-2.1,5.7-3.3c1.5-1.2,2.8-2.5,3.8-3.9c1-1.4,1.8-2.9,2.5-4.4c0.6-1.5,1.3-3.1,1.9-4.7
		c0.1-0.3,0.4-0.5,0.9-0.5c0.4,0,0.9,0,1.4,0.1c0.6,0.1,0.9,0.3,0.9,0.6c0,0.2,0,0.7-0.1,1.8c-0.1,1-0.2,2.3-0.2,3.7
		c-0.1,1.4-0.2,3-0.2,4.6c-0.1,1.6-0.1,3.1-0.1,4.4h13.7c0.3,0,0.5,0.5,0.5,1.5v0.6c0,1.5-0.2,2.2-0.6,2.2H197.2z"/>
	<path fill="#818181" d="M86.3,488.5c0.2,0,0.3,0.1,0.3,0.4c0.1,0.3,0.1,0.6,0.1,0.9c0,0.4,0,0.7-0.1,1.1c-0.1,0.3-0.2,0.5-0.5,0.5
		c-0.3,0-0.9,0-1.9-0.1c-1,0-2-0.1-3.1-0.1c-1.1,0-2.3-0.1-3.4-0.1c-1.1,0-2-0.1-2.7-0.1c-0.9,0-2,0-3.1,0.1c-1.2,0-2.3,0.1-3.4,0.1
		c-1.1,0-2.1,0.1-3,0.1c-0.9,0-1.5,0.1-1.8,0.1c-0.2,0-0.4-0.1-0.4-0.4c0-0.3-0.1-0.6-0.1-1c0-0.3,0-0.6,0.1-1
		c0-0.3,0.2-0.5,0.4-0.5c1.5-0.1,2.7-0.2,3.7-0.5c0.9-0.2,1.6-0.7,2.1-1.5c0.5-0.8,0.8-1.9,0.9-3.4c0.2-1.5,0.2-3.6,0.2-6.2v-22
		c0-1.8-0.1-3.3-0.3-4.3c-0.2-1.1-0.5-1.8-1-2.3c-0.5-0.5-1.2-0.8-2.1-1c-0.9-0.2-2-0.2-3.4-0.2c-0.4,0-0.6-0.4-0.6-1.1
		c0-0.3,0-0.6,0.1-0.9c0.1-0.3,0.2-0.5,0.5-0.5c0.8-0.1,1.8-0.2,3.1-0.3c1.3-0.1,2.7-0.2,4.2-0.3c1.4-0.1,2.8-0.1,4.1-0.2
		c1.3,0,2.2-0.1,2.9-0.1c1.3,0,1.9,0.6,1.9,1.9c0,1.1-0.1,3.3-0.2,6.6c-0.1,3.3-0.2,7.7-0.2,13.1v11.6c0,2.7,0.1,4.7,0.2,6.2
		c0.1,1.5,0.4,2.6,0.9,3.4c0.5,0.8,1.1,1.3,1.9,1.5C83.6,488.2,84.8,488.4,86.3,488.5z M75.3,422.9c1.7,0,3,0.5,3.9,1.4
		c1,0.9,1.4,2.3,1.4,4c0,1.5-0.4,3-1.2,4.3c-0.8,1.4-2.3,2.1-4.5,2.1c-1.5,0-2.8-0.5-3.9-1.4c-1.1-1-1.6-2.3-1.6-4.2
		c0-1.5,0.4-2.9,1.3-4.2C71.6,423.6,73.1,422.9,75.3,422.9z"/>
	<path fill="#818181" d="M198.5,491.3c-0.2,0.5-0.5,0.7-1,0.7h-3.8c-0.6,0-1-0.2-1.1-0.7l-12-32.3c-1-2.7-1.8-4.9-2.5-6.4
		c-0.6-1.5-1.3-2.7-2-3.4c-0.7-0.8-1.4-1.3-2.2-1.5c-0.8-0.2-1.9-0.4-3.3-0.6c-0.3,0-0.5-0.4-0.5-1.2c0-0.4,0-0.8,0.1-1.1
		c0.1-0.4,0.2-0.5,0.5-0.5c0.3,0,0.9,0,1.9,0.1c1,0,2,0.1,3,0.1c1.1,0,2.2,0,3.3,0.1c1.1,0,2,0.1,2.7,0.1c0.8,0,1.8,0,2.9-0.1
		c1.1,0,2.2-0.1,3.2-0.1c1,0,2,0,2.8-0.1c0.8,0,1.4-0.1,1.7-0.1c0.2,0,0.4,0.1,0.4,0.4c0,0.3,0.1,0.6,0.1,1c0,0.4,0,0.7-0.1,1
		c0,0.3-0.2,0.4-0.4,0.4c-1.7,0.2-2.9,0.4-3.6,0.6c-0.7,0.3-1.1,1-1.1,2.1c0,0.6,0.2,1.5,0.5,2.6c0.3,1.1,0.8,2.5,1.4,4l8.9,24.4
		h0.1l9.3-24.3c0.8-2,1.3-3.4,1.5-4.4c0.2-1,0.3-1.7,0.3-2.3c0-1.1-0.4-1.8-1.3-2.1c-0.9-0.3-2.4-0.5-4.5-0.6
		c-0.2,0-0.3-0.4-0.3-1.2c0-0.4,0-0.8,0.1-1.1c0-0.4,0.2-0.5,0.4-0.5c0.2,0,0.7,0,1.5,0.1c0.8,0,1.6,0.1,2.5,0.1
		c0.9,0,1.8,0,2.7,0.1c0.9,0,1.5,0.1,2,0.1c0.8,0,1.6,0,2.6-0.1c1,0,1.9-0.1,2.7-0.1c0.9,0,1.7,0,2.3-0.1c0.7,0,1.2-0.1,1.5-0.1
		c0.2,0,0.2,0.1,0.3,0.4c0,0.3,0.1,0.6,0.1,1c0,0.4,0,0.7-0.1,1c0,0.3-0.1,0.4-0.3,0.4c-1.3,0.1-2.3,0.2-3.1,0.5
		c-0.8,0.2-1.5,0.7-2.2,1.5c-0.6,0.8-1.3,2-2,3.5c-0.7,1.6-1.6,3.7-2.6,6.3L198.5,491.3z"/>
	<path fill="#818181" d="M313.4,466.2c0,2.5,0.2,5.1,0.6,7.6c0.4,2.6,1.1,4.9,2.2,7c1.1,2.1,2.6,3.8,4.5,5.1c1.9,1.3,4.4,2,7.4,2
		c2.2,0,4.4-0.5,6.6-1.5c2.2-1,4.3-2.8,6.2-5.5c0.3-0.4,0.5-0.6,0.7-0.6c0.4,0,0.9,0.3,1.7,0.9c0.7,0.6,1.1,1,1.1,1.4
		c0,0.2-0.2,0.5-0.5,1c-0.5,0.7-1.2,1.5-2.2,2.5c-1,1-2.2,2-3.7,2.9c-1.5,1-3.3,1.8-5.3,2.5c-2.1,0.7-4.4,1-7.1,1
		c-6.9,0-12.4-2.1-16.2-6.4c-3.9-4.3-5.8-10.1-5.8-17.6c0-4,0.6-7.7,1.7-10.9c1.1-3.2,2.7-5.9,4.7-8.1c2-2.2,4.4-3.9,7.2-5
		c2.8-1.1,5.9-1.7,9.2-1.7c1.9,0,3.9,0.3,6.1,0.8c2.2,0.5,4.2,1.6,5.9,3.1c1.8,1.5,3.3,3.7,4.5,6.6c1.2,2.9,1.8,6.6,1.8,11.2
		c0,0.5-0.1,1-0.2,1.3c-0.2,0.3-0.5,0.5-1.1,0.5H313.4z M325.2,446.1c-2.1,0-3.9,0.5-5.3,1.5c-1.4,1-2.6,2.3-3.5,3.8
		c-0.9,1.5-1.6,3.3-2,5.3c-0.4,2-0.7,3.9-0.9,5.8H335c-0.1-1.5-0.2-3.2-0.5-5.1c-0.2-1.9-0.7-3.7-1.3-5.3c-0.6-1.6-1.6-3-2.9-4.2
		C329.1,446.7,327.4,446.1,325.2,446.1z"/>
</g>
</svg>
