<?xml version="1.0" encoding="utf-8"?>
<!-- Generator: Adobe Illustrator 17.1.0, SVG Export Plug-In . SVG Version: 6.00 Build 0)  -->
<!DOCTYPE svg PUBLIC "-//W3C//DTD SVG 1.1 Tiny//EN" "http://www.w3.org/Graphics/SVG/1.1/DTD/svg11-tiny.dtd">
<svg version="1.1" baseProfile="tiny" id="Layer_1" xmlns="http://www.w3.org/2000/svg" xmlns:xlink="http://www.w3.org/1999/xlink"
	 x="0px" y="0px" width="800px" height="600px" viewBox="0 0 800 600" xml:space="preserve">
<g>
	<g>
		<path fill="#FFF200" d="M75.9,87.8c-3.1,0-5.9-0.1-8.9-0.1c-3.1,0-5.9,0.1-9,0.1V87l2.7-0.4c2.9-0.4,3.3-1.4,3.3-3.6V53.3h-3.5
			c-4.4,0-6.2,2.2-9.1,11h-0.8L51,52.3h31.9l0.4,11.9h-0.8c-2.9-8.7-4.7-11-9.1-11h-3.5V83c0,2.2,0.4,3.2,3.3,3.6l2.7,0.4V87.8z"/>
		<path fill="#FFF200" d="M89.1,100.5c-2.9,0-4.8-1.6-4.8-4.2c0-2,1.5-3.6,3.7-3.6c1.9,0,3.1,1.3,3.1,2.9c0,2.1-1.5,2.4-1.5,3.1
			c0,0.3,0.2,0.5,0.6,0.5c1.5,0,4.2-1.4,7.5-10.3l0.3-0.8l-8.7-20.5c-1.2-2.7-1.9-3.7-3.6-4l-1.6-0.3v-0.8c2.4,0.1,4.7,0.1,7.1,0.1
			c2.4,0,4.4,0,6.9-0.1v0.8l-1.9,0.2c-2.2,0.3-2.2,1.9-1.2,4.6l5.4,14.1l4.7-12.8c0.6-1.6,0.8-2.7,0.8-3.5c0-1.3-0.6-1.9-2.7-2.2
			l-1.7-0.3v-0.8c1.8,0.1,3.6,0.1,5.4,0.1s3.6,0,5.4-0.1v0.8l-1.3,0.3c-2.6,0.5-3.5,1.9-5.1,6.2L100,86.2
			C95.3,99,92.5,100.5,89.1,100.5z"/>
		<path fill="#FFF200" d="M126.8,99.9c-2.5,0-4.4-0.1-7-0.1s-4.5,0.1-7,0.1v-0.8l1.9-0.3c2.1-0.4,2.5-0.9,2.5-3V68.2
			c0-2.7-0.8-3.1-3.3-3.3l-1.8-0.2V64l9-2.1l1,0.3c-0.3,3.8-0.4,7.3-0.4,11.6c0-6.4,2-12,8.2-12c6.3,0,11,5.1,11,13.2
			c0,8.9-6.5,13.7-12.5,13.7c-2.3,0-4.3-0.5-6-1.4v8.5c0,2.1,0.4,2.7,2.6,3l1.8,0.3V99.9z M135.2,75c0-6.7-1.5-12-6.1-12
			c-4.6,0-6.7,4.6-6.7,10.8v10.6c1.3,2.3,3.2,3.5,6,3.5C132.7,87.8,135.2,83.3,135.2,75z"/>
		<path fill="#FFF200" d="M156.4,88.6c-6.8,0-12.1-5.3-12.1-13.4s5.3-13.4,12.1-13.4c6.9,0,12.2,5.3,12.2,13.4
			S163.3,88.6,156.4,88.6z M156.4,87.8c5,0,6.5-5.5,6.5-12.7c0-7.2-1.5-12.7-6.5-12.7c-4.9,0-6.4,5.5-6.4,12.7
			C149.9,82.3,151.5,87.8,156.4,87.8z"/>
		<path fill="#FFF200" d="M170.4,93.6c0-2.8,1.7-4.3,4.1-4.3c1.5,0,2.3,0.7,2.1,1.9c-1.9,0-3,1.2-3,2.9c0,3.3,2.9,5.7,9.4,5.7
			c6.2,0,10-2.5,10-6.3c0-3-3.2-3.7-9.5-3.9c-6.4-0.2-10.7-1.8-10.7-5.9c0-3,2.4-4.8,8.1-4.8c-5.1,0-9.3-3.6-9.3-8.7
			c0-4.9,3.8-8.5,9.5-8.5c2.6,0,5,0.8,6.7,2.3c1.6-1.5,3.6-2.4,5.7-2.4c2.3,0,3.7,1.3,3.7,3.3c0,1.9-1.4,2.9-2.9,2.9
			c-1.6,0-2.6-1-2.6-2.5c0-0.7,0.2-1.2,0.2-1.6c0-0.3-0.2-0.5-0.6-0.5c-0.6,0-1.7,0.5-2.7,1.4c1.5,1.5,2.4,3.6,2.4,6.1
			c0,5.1-3.7,8.8-10.1,8.8c-3.7,0-5.1,0.8-5.1,2.1c0,1.9,2.5,2.4,8.4,2.7c6.9,0.3,11.8,1.6,11.8,7.6c0,5.7-5.5,8.6-12.9,8.6
			C175.9,100.5,170.4,98.1,170.4,93.6z M181.4,78.5c3.3,0,4.4-3.7,4.4-8c0-4.9-1.3-8-4.5-8c-3,0-4.4,3-4.4,8
			C176.9,75.1,178.3,78.5,181.4,78.5z"/>
		<path fill="#FFF200" d="M213.5,87.8c-2.5,0-4.9-0.1-7.4-0.1c-2.5,0-4.5,0.1-7,0.1v-0.8l1.8-0.3c2.1-0.4,2.5-0.9,2.5-3V68.2
			c0-2.6-0.7-3.1-3.3-3.3l-1.8-0.2V64l9.1-2.1l0.9,0.3c-0.3,3.8-0.4,10.2-0.4,15.5c0-2.3,0.2-4.7,0.6-7.5c0.9-5,3.2-8.7,7.3-8.7
			c2.7,0,4.2,1.6,4.2,3.9c0,2.3-1.6,3.6-3.5,3.6c-2,0-3.1-1.3-3.1-3c0-0.4,0.1-0.9,0.1-1.2c0-0.4-0.2-0.6-0.5-0.6
			c-1.3,0-3,2-3.8,6.2c-0.5,2.5-0.7,4.9-0.7,7.3v5.8c0,2.2,0.6,2.9,2.8,3.2l2.1,0.3V87.8z"/>
		<path fill="#FFF200" d="M242,88.5c-3,0-4.3-1.4-4.7-5.5c-1.1,3.3-4.2,5.7-8.3,5.7c-4.4,0-7.1-2.1-7.1-5.9c0-6.1,8.1-7.8,14.7-8.5
			v-5.3c0-4.5-1-6.3-4.8-6.3c-3,0-4.8,1.4-4.8,2.6c0,1.6,2.6,1.4,2.6,4c0,1.7-1.4,2.9-3.3,2.9c-2.1,0-3.3-1.5-3.3-3.8
			c0-3.7,4-6.4,8.8-6.4c6,0,9.7,2.7,9.7,8.3l-0.1,13.8c0,2,0.5,2.9,1.8,2.9c1.4,0,2.2-1.2,2.5-5.2h0.8
			C246.6,86.5,245.3,88.5,242,88.5z M236.6,80.4V75c-6,0.9-9.3,2.1-9.3,7.1c0,2.8,1.5,4.6,4.1,4.6C234.2,86.7,236.6,84.8,236.6,80.4
			z"/>
		<path fill="#FFF200" d="M260.3,99.9c-2.5,0-4.4-0.1-7-0.1s-4.5,0.1-7,0.1v-0.8l1.9-0.3c2.1-0.4,2.5-0.9,2.5-3V68.2
			c0-2.7-0.8-3.1-3.3-3.3l-1.8-0.2V64l9-2.1l1,0.3c-0.3,3.8-0.4,7.3-0.4,11.6c0-6.4,2-12,8.2-12c6.3,0,11,5.1,11,13.2
			c0,8.9-6.5,13.7-12.5,13.7c-2.3,0-4.3-0.5-6-1.4v8.5c0,2.1,0.4,2.7,2.6,3l1.8,0.3V99.9z M268.6,75c0-6.7-1.5-12-6.1-12
			c-4.6,0-6.7,4.6-6.7,10.8v10.6c1.3,2.3,3.2,3.5,6,3.5C266.2,87.8,268.6,83.3,268.6,75z"/>
		<path fill="#FFF200" d="M276.3,87.1l1.8-0.3c2.1-0.4,2.5-0.9,2.5-3V53c0-2.1-0.4-2.6-2.7-2.9l-2.4-0.3v-0.6l9.8-2l0.9,0.4
			c-0.3,1.7-0.4,4.1-0.4,6.1v5c0,5.7-0.7,9.6-0.7,16.7c0-8.3,3.4-13.9,9.2-13.9c4.4,0,7.7,2.5,7.7,7.8v14.2c0,2.1,0.4,2.7,2.5,3
			l1.8,0.3v0.8c-2.5,0-4.4-0.1-6.9-0.1c-2.5,0-4.5,0.1-7,0.1v-0.8l1.8-0.3c2.2-0.4,2.6-0.9,2.6-3V69.5c0-4.4-1.3-6.1-4.2-6.1
			c-3.5,0-6.9,4.5-6.9,12.2v8.1c0,2.1,0.4,2.7,2.6,3l1.8,0.3v0.8c-2.5,0-4.4-0.1-7-0.1c-2.5,0-4.5,0.1-7,0.1V87.1z"/>
		<path fill="#FFF200" d="M309.9,100.5c-2.9,0-4.8-1.6-4.8-4.2c0-2,1.5-3.6,3.7-3.6c1.9,0,3.1,1.3,3.1,2.9c0,2.1-1.5,2.4-1.5,3.1
			c0,0.3,0.2,0.5,0.6,0.5c1.5,0,4.2-1.4,7.5-10.3l0.3-0.8l-8.7-20.5c-1.2-2.7-1.9-3.7-3.6-4l-1.6-0.3v-0.8c2.4,0.1,4.7,0.1,7.1,0.1
			c2.4,0,4.4,0,6.9-0.1v0.8l-1.9,0.2c-2.2,0.3-2.2,1.9-1.2,4.6l5.4,14.1l4.7-12.8c0.6-1.6,0.8-2.7,0.8-3.5c0-1.3-0.6-1.9-2.7-2.2
			l-1.7-0.3v-0.8c1.8,0.1,3.6,0.1,5.4,0.1c1.8,0,3.6,0,5.4-0.1v0.8l-1.3,0.3c-2.6,0.5-3.5,1.9-5.1,6.2l-6.2,16.5
			C316,99,313.3,100.5,309.9,100.5z"/>
		<path fill="#FFF200" d="M50.4,201.2l1.8-0.3c2.1-0.4,2.5-0.9,2.5-3v-30.6c0-2.1-0.4-2.7-2.7-2.9l-2.4-0.3v-0.6l9.8-2l0.9,0.4
			c-0.3,1.7-0.4,4.1-0.4,6.1v29.9c0,2.1,0.4,2.7,2.6,3l1.8,0.3v0.8c-2.5,0-4.4-0.1-7-0.1c-2.5,0-4.5,0.1-7,0.1V201.2z"/>
		<path fill="#FFF200" d="M66.5,201.2l1.8-0.3c2.1-0.4,2.5-0.9,2.5-3v-15.5c0-2.7-0.7-3.1-3.3-3.3l-1.8-0.2v-0.7l9.7-2.2l1,0.3
			c-0.3,2-0.4,4.1-0.4,6.1v15.5c0,2,0.4,2.6,2.6,3l1.8,0.3v0.8c-2.5,0-4.4-0.1-7-0.1c-2.5,0-4.5,0.1-7,0.1V201.2z M72.8,170.1
			c-2,0-3.7-1.5-3.7-3.6c0-2.2,1.7-3.6,3.7-3.6c2.2,0,3.8,1.4,3.8,3.6C76.6,168.8,75,170.1,72.8,170.1z"/>
		<path fill="#FFF200" d="M82.2,201.2l1.8-0.3c2.1-0.4,2.5-1,2.5-3v-15.5c0-2.7-0.7-3.1-3.3-3.3l-1.8-0.2v-0.7l9.1-2.1l0.9,0.3
			c-0.2,3.8-0.4,8.9-0.4,13.4c0-8,3.2-13.9,9.2-13.9c4.4,0,7.7,2.5,7.7,7.8v14.1c0,2.1,0.4,2.7,2.5,3l1.8,0.3v0.8
			c-2.5,0-4.4-0.1-6.9-0.1c-2.5,0-4.5,0.1-7,0.1v-0.8l1.8-0.3c2.2-0.4,2.6-0.9,2.6-3v-14.1c0-4.4-1.3-6.2-4.2-6.2
			c-3.6,0-6.9,4.7-6.9,12.2v8.2c0,2,0.4,2.6,2.6,3l1.8,0.3v0.8c-2.5,0-4.4-0.1-7-0.1c-2.5,0-4.5,0.1-7,0.1V201.2z"/>
		<path fill="#FFF200" d="M113.8,201.2l1.8-0.3c2.1-0.4,2.5-0.9,2.5-3v-30.6c0-2.1-0.4-2.7-2.7-2.9l-2.4-0.3v-0.6l9.8-2l0.9,0.4
			c-0.3,1.7-0.4,4.1-0.4,6.1v29.9c0,2,0.3,2.6,2.5,3l1.7,0.3v0.8c-2.5,0-4.2-0.1-6.7-0.1c-2.5,0-4.5,0.1-7,0.1V201.2z M136.5,196.9
			c2.5,2.9,3.3,3.7,5,4l1.2,0.3v0.8c-2.4,0-4.4-0.1-6.7-0.1c-2.4,0-4.5,0.1-6.9,0.1v-0.8l1-0.2c1.3-0.2,1.7-0.6,1.7-1
			c0-0.4-0.2-0.7-1.2-2l-7.4-9.2l6.7-6.6c1.4-1.4,1.8-2.1,1.8-2.8c0-0.8-0.6-1.3-2.4-1.6l-1.7-0.3v-0.8c2.4,0.1,4.4,0.1,6.8,0.1
			c2.4,0,4.6,0,7-0.1v0.8l-1.8,0.3c-3,0.5-5.8,1.9-8.8,4.9l-3.6,3.3L136.5,196.9z"/>
		<path fill="#FFF200" d="M153.4,202.7c-3.3,0-5.7-0.9-7.5-2.6l-1.4,2.5h-0.4V192h1c1.9,7.3,4.7,9.9,8.3,9.9c3,0,5.2-1.6,5.2-4.6
			c0-3.1-1.9-4.3-6.6-6.1c-3.9-1.4-7.3-3.3-7.3-8.1c0-4.2,3.8-7.4,8.8-7.4c2.7,0,4.7,0.8,6.2,2.3l1.3-2.2h0.4v9.6h-1
			c-1.6-6.1-3.7-8.8-6.9-8.8c-3.4,0-4.9,2-4.9,4.3c0,2.9,1.9,4.1,6.5,5.8c3.7,1.3,7.5,3.5,7.5,8.3
			C162.5,199.9,158.4,202.7,153.4,202.7z"/>
		<path fill="#FFF200" d="M60.6,316.7c-3.7,0-6.5-1.9-6.5-6.5v-17.3l-5.1-0.7v-0.9l3.6-0.5c2.2-0.3,3.3-1.1,3.8-3.7l0.8-4h2.5
			l-0.3,7.7h8.4v1.4l-8.4,0.4v17.7c0,3.9,1.3,4.8,3.2,4.8s3.4-1.6,4.3-5.3l0.9,0.2C66.8,314.6,64.8,316.7,60.6,316.7z"/>
		<path fill="#FFF200" d="M69.8,315.3l1.8-0.3c2.1-0.4,2.5-0.9,2.5-3v-15.5c0-2.7-0.7-3.1-3.3-3.3L69,293v-0.7l9.7-2.2l1,0.3
			c-0.3,2-0.4,4.1-0.4,6.1V312c0,2,0.4,2.6,2.6,3l1.8,0.3v0.8c-2.5,0-4.4-0.1-7-0.1c-2.5,0-4.5,0.1-7,0.1V315.3z M76.1,284.3
			c-2,0-3.7-1.5-3.7-3.6c0-2.2,1.7-3.6,3.7-3.6c2.2,0,3.8,1.4,3.8,3.6C79.8,282.9,78.3,284.3,76.1,284.3z"/>
		<path fill="#FFF200" d="M123.9,316c-2.5,0-4.5,0.1-7,0.1v-0.8l1.8-0.3c2.1-0.4,2.6-0.9,2.6-3v-14.1c0-4.3-1.4-6.2-4-6.2
			c-3.6,0-6.6,4.7-6.6,12.2v8.1c0,2.1,0.4,2.7,2.6,3l1.8,0.3v0.8c-2.5,0-4.4-0.1-7-0.1c-2.5,0-4.4,0.1-7,0.1v-0.8l1.8-0.3
			c2.1-0.4,2.6-0.9,2.6-3v-14.1c0-4-1.3-6.2-3.9-6.2c-3.6,0-6.7,4.5-6.7,12.2v8.1c0,2.1,0.4,2.7,2.6,3l1.8,0.3v0.8
			c-2.5,0-4.4-0.1-7-0.1c-2.5,0-4.5,0.1-7,0.1v-0.8l1.8-0.3c2.1-0.4,2.5-0.9,2.5-3v-15.5c0-2.7-0.7-3.1-3.3-3.3l-1.8-0.2v-0.7
			l9.1-2.1l0.9,0.3c-0.2,3.8-0.4,8.9-0.4,13.4c0-8.3,3.3-13.9,8.8-13.9c4.2,0,7.1,2.4,7.1,7.8c0,1.4-0.1,2.4-0.1,3.3
			c0.7-6.7,3.9-11.1,8.8-11.1c4.2,0,7.5,2.5,7.5,7.8v14.1c0,2.1,0.4,2.7,2.6,3l1.8,0.3v0.8C128.3,316.1,126.4,316,123.9,316z"/>
		<path fill="#FFF200" d="M144.6,316.8c-6,0-11.8-4.7-11.8-13.3c0-8.7,6-13.5,12.2-13.5c5.6,0,9.6,3.3,9.6,9c0,1.2-0.1,2.1-0.3,2.9
			l-15.8-0.1c-0.1,0.6-0.1,1.2-0.1,1.7c0,7,2.6,11.4,7.7,11.4c3.1,0,5.7-1.6,7.6-5.1l0.7,0.4C152.4,314.5,149.4,316.8,144.6,316.8z
			 M149.3,299.7c0.4-3.6,0.5-8.9-4.2-8.9c-3.6,0-6,3.1-6.5,10.3l10.6-0.7v-0.1L149.3,299.7z"/>
		<path fill="#FFF200" d="M158,302.6h13v1.7h-13V302.6z"/>
		<path fill="#FFF200" d="M60.6,430.8c-3.7,0-6.5-1.9-6.5-6.5V407l-5.1-0.7v-0.9l3.6-0.5c2.2-0.3,3.3-1.1,3.8-3.7l0.8-4h2.5
			l-0.3,7.7h8.4v1.4l-8.4,0.4v17.7c0,3.9,1.3,4.8,3.2,4.8s3.4-1.6,4.3-5.3l0.9,0.2C66.8,428.7,64.8,430.8,60.6,430.8z"/>
		<path fill="#FFF200" d="M69.8,429.4l1.8-0.3c2.1-0.4,2.5-0.9,2.5-3v-15.5c0-2.7-0.7-3.1-3.3-3.3l-1.8-0.2v-0.7l9.7-2.2l1,0.3
			c-0.3,2-0.4,4.1-0.4,6.1v15.5c0,2,0.4,2.6,2.6,3l1.8,0.3v0.8c-2.5,0-4.4-0.1-7-0.1c-2.5,0-4.5,0.1-7,0.1V429.4z M76.1,398.4
			c-2,0-3.7-1.5-3.7-3.6c0-2.2,1.7-3.6,3.7-3.6c2.2,0,3.8,1.4,3.8,3.6C79.8,397,78.3,398.4,76.1,398.4z"/>
		<path fill="#FFF200" d="M123.9,430.1c-2.5,0-4.5,0.1-7,0.1v-0.8l1.8-0.3c2.1-0.4,2.6-0.9,2.6-3v-14.1c0-4.3-1.4-6.2-4-6.2
			c-3.6,0-6.6,4.7-6.6,12.2v8.1c0,2.1,0.4,2.7,2.6,3l1.8,0.3v0.8c-2.5,0-4.4-0.1-7-0.1c-2.5,0-4.4,0.1-7,0.1v-0.8l1.8-0.3
			c2.1-0.4,2.6-0.9,2.6-3v-14.1c0-4-1.3-6.2-3.9-6.2c-3.6,0-6.7,4.5-6.7,12.2v8.1c0,2.1,0.4,2.7,2.6,3l1.8,0.3v0.8
			c-2.5,0-4.4-0.1-7-0.1c-2.5,0-4.5,0.1-7,0.1v-0.8l1.8-0.3c2.1-0.4,2.5-0.9,2.5-3v-15.5c0-2.7-0.7-3.1-3.3-3.3l-1.8-0.2v-0.7
			l9.1-2.1l0.9,0.3c-0.2,3.8-0.4,8.9-0.4,13.4c0-8.3,3.3-13.9,8.8-13.9c4.2,0,7.1,2.4,7.1,7.8c0,1.4-0.1,2.4-0.1,3.3
			c0.7-6.7,3.9-11.1,8.8-11.1c4.2,0,7.5,2.5,7.5,7.8v14.1c0,2.1,0.4,2.7,2.6,3l1.8,0.3v0.8C128.3,430.2,126.4,430.1,123.9,430.1z"/>
		<path fill="#FFF200" d="M144.6,430.9c-6,0-11.8-4.7-11.8-13.3c0-8.7,6-13.5,12.2-13.5c5.6,0,9.6,3.3,9.6,9c0,1.2-0.1,2.1-0.3,2.9
			l-15.8-0.1c-0.1,0.6-0.1,1.2-0.1,1.7c0,7,2.6,11.4,7.7,11.4c3.1,0,5.7-1.6,7.6-5.1l0.7,0.4C152.4,428.6,149.4,430.9,144.6,430.9z
			 M149.3,413.8c0.4-3.6,0.5-8.9-4.2-8.9c-3.6,0-6,3.1-6.5,10.3l10.6-0.7v-0.1L149.3,413.8z"/>
		<path fill="#FFF200" d="M161.9,430.7c-2,0-3.8-1.5-3.8-3.7c0-2.4,1.8-3.8,3.8-3.8c2.1,0,3.8,1.4,3.8,3.8
			C165.6,429.3,163.9,430.7,161.9,430.7z"/>
	</g>
	<g>
		<path fill="#FFF200" d="M176.7,360.4l0.3,0c0.3-0.1,0.4-0.2,0.4-0.5V355c0-0.3-0.1-0.4-0.4-0.5l-0.4,0v-0.1l1.6-0.3l0.1,0.1
			c0,0.3-0.1,0.7-0.1,1v4.8c0,0.3,0.1,0.4,0.4,0.5l0.3,0v0.1c-0.4,0-0.7,0-1.1,0c-0.4,0-0.7,0-1.1,0V360.4z"/>
		<path fill="#FFF200" d="M181.2,360.7c-1,0-1.9-0.7-1.9-2.1c0-1.4,1-2.2,1.9-2.2c0.9,0,1.5,0.5,1.5,1.4c0,0.2,0,0.3,0,0.5l-2.5,0
			c0,0.1,0,0.2,0,0.3c0,1.1,0.4,1.8,1.2,1.8c0.5,0,0.9-0.3,1.2-0.8l0.1,0.1C182.4,360.3,181.9,360.7,181.2,360.7z M181.9,357.9
			c0.1-0.6,0.1-1.4-0.7-1.4c-0.6,0-1,0.5-1,1.6l1.7-0.1v0L181.9,357.9z"/>
		<path fill="#FFF200" d="M184.9,360.7c-0.5,0-0.9-0.1-1.2-0.4l-0.2,0.4h-0.1V359h0.2c0.3,1.2,0.7,1.6,1.3,1.6
			c0.5,0,0.8-0.2,0.8-0.7c0-0.5-0.3-0.7-1.1-1c-0.6-0.2-1.2-0.5-1.2-1.3c0-0.7,0.6-1.2,1.4-1.2c0.4,0,0.8,0.1,1,0.4l0.2-0.4h0.1v1.5
			H186c-0.3-1-0.6-1.4-1.1-1.4c-0.5,0-0.8,0.3-0.8,0.7c0,0.5,0.3,0.6,1,0.9c0.6,0.2,1.2,0.6,1.2,1.3
			C186.4,360.2,185.7,360.7,184.9,360.7z"/>
		<path fill="#FFF200" d="M188.5,360.7c-0.5,0-0.9-0.1-1.2-0.4l-0.2,0.4H187V359h0.2c0.3,1.2,0.7,1.6,1.3,1.6c0.5,0,0.8-0.2,0.8-0.7
			c0-0.5-0.3-0.7-1.1-1c-0.6-0.2-1.2-0.5-1.2-1.3c0-0.7,0.6-1.2,1.4-1.2c0.4,0,0.8,0.1,1,0.4l0.2-0.4h0.1v1.5h-0.2
			c-0.3-1-0.6-1.4-1.1-1.4c-0.5,0-0.8,0.3-0.8,0.7c0,0.5,0.3,0.6,1,0.9c0.6,0.2,1.2,0.6,1.2,1.3C190,360.2,189.3,360.7,188.5,360.7z
			"/>
		<path fill="#FFF200" d="M190.5,360.4l0.3,0c0.3-0.1,0.4-0.2,0.4-0.5v-2.5c0-0.4-0.1-0.5-0.5-0.5l-0.3,0v-0.1l1.4-0.3l0.1,0
			c0,0.6-0.1,1.4-0.1,2.1c0-1.3,0.5-2.2,1.5-2.2c0.7,0,1.2,0.4,1.2,1.2v2.2c0,0.3,0.1,0.4,0.4,0.5l0.3,0v0.1c-0.4,0-0.7,0-1.1,0
			c-0.4,0-0.7,0-1.1,0v-0.1l0.3,0c0.3-0.1,0.4-0.2,0.4-0.5v-2.2c0-0.7-0.2-1-0.7-1c-0.6,0-1.1,0.7-1.1,1.9v1.3
			c0,0.3,0.1,0.4,0.4,0.5l0.3,0v0.1c-0.4,0-0.7,0-1.1,0c-0.4,0-0.7,0-1.1,0V360.4z"/>
		<path fill="#FFF200" d="M197.5,360.7c-1,0-1.9-0.7-1.9-2.1c0-1.4,1-2.2,1.9-2.2c0.9,0,1.5,0.5,1.5,1.4c0,0.2,0,0.3,0,0.5l-2.5,0
			c0,0.1,0,0.2,0,0.3c0,1.1,0.4,1.8,1.2,1.8c0.5,0,0.9-0.3,1.2-0.8l0.1,0.1C198.7,360.3,198.3,360.7,197.5,360.7z M198.2,357.9
			c0.1-0.6,0.1-1.4-0.7-1.4c-0.6,0-1,0.5-1,1.6l1.7-0.1v0L198.2,357.9z"/>
		<path fill="#FFF200" d="M201.3,360.7c-0.5,0-0.9-0.1-1.2-0.4l-0.2,0.4h-0.1V359h0.2c0.3,1.2,0.7,1.6,1.3,1.6
			c0.5,0,0.8-0.2,0.8-0.7c0-0.5-0.3-0.7-1.1-1c-0.6-0.2-1.2-0.5-1.2-1.3c0-0.7,0.6-1.2,1.4-1.2c0.4,0,0.8,0.1,1,0.4l0.2-0.4h0.1v1.5
			h-0.2c-0.3-1-0.6-1.4-1.1-1.4c-0.5,0-0.8,0.3-0.8,0.7c0,0.5,0.3,0.6,1,0.9c0.6,0.2,1.2,0.6,1.2,1.3
			C202.7,360.2,202.1,360.7,201.3,360.7z"/>
		<path fill="#FFF200" d="M204.8,360.7c-0.5,0-0.9-0.1-1.2-0.4l-0.2,0.4h-0.1V359h0.2c0.3,1.2,0.7,1.6,1.3,1.6
			c0.5,0,0.8-0.2,0.8-0.7c0-0.5-0.3-0.7-1.1-1c-0.6-0.2-1.2-0.5-1.2-1.3c0-0.7,0.6-1.2,1.4-1.2c0.4,0,0.8,0.1,1,0.4l0.2-0.4h0.1v1.5
			h-0.2c-0.3-1-0.6-1.4-1.1-1.4c-0.5,0-0.8,0.3-0.8,0.7c0,0.5,0.3,0.6,1,0.9c0.6,0.2,1.2,0.6,1.2,1.3
			C206.3,360.2,205.6,360.7,204.8,360.7z"/>
		<path fill="#FFF200" d="M211.7,360.6c-0.5,0-0.7-0.2-0.7-0.9c-0.2,0.5-0.7,0.9-1.3,0.9c-0.7,0-1.1-0.3-1.1-0.9
			c0-1,1.3-1.2,2.3-1.4v-0.8c0-0.7-0.2-1-0.8-1c-0.5,0-0.8,0.2-0.8,0.4c0,0.3,0.4,0.2,0.4,0.6c0,0.3-0.2,0.5-0.5,0.5
			c-0.3,0-0.5-0.2-0.5-0.6c0-0.6,0.6-1,1.4-1c0.9,0,1.5,0.4,1.5,1.3l0,2.2c0,0.3,0.1,0.5,0.3,0.5c0.2,0,0.4-0.2,0.4-0.8h0.1
			C212.4,360.3,212.2,360.6,211.7,360.6z M210.9,359.4v-0.9c-1,0.1-1.5,0.3-1.5,1.1c0,0.4,0.2,0.7,0.7,0.7
			C210.5,360.4,210.9,360.1,210.9,359.4z"/>
		<path fill="#FFF200" d="M212.6,360.4l0.3,0c0.3-0.1,0.4-0.2,0.4-0.5v-2.5c0-0.4-0.1-0.5-0.5-0.5l-0.3,0v-0.1l1.4-0.3l0.1,0
			c0,0.6-0.1,1.4-0.1,2.1c0-1.3,0.5-2.2,1.5-2.2c0.7,0,1.2,0.4,1.2,1.2v2.2c0,0.3,0.1,0.4,0.4,0.5l0.3,0v0.1c-0.4,0-0.7,0-1.1,0
			c-0.4,0-0.7,0-1.1,0v-0.1l0.3,0c0.3-0.1,0.4-0.2,0.4-0.5v-2.2c0-0.7-0.2-1-0.7-1c-0.6,0-1.1,0.7-1.1,1.9v1.3
			c0,0.3,0.1,0.4,0.4,0.5l0.3,0v0.1c-0.4,0-0.7,0-1.1,0c-0.4,0-0.7,0-1.1,0V360.4z"/>
		<path fill="#FFF200" d="M219.4,360.7c-0.9,0-1.7-0.7-1.7-2.1c0-1.5,1.1-2.2,2-2.2c0.3,0,0.7,0.1,0.9,0.2V355
			c0-0.3-0.1-0.5-0.5-0.5l-0.4,0v-0.1l1.6-0.3l0.1,0.1c0,0.3-0.1,0.7-0.1,1v4.8c0,0.3,0.1,0.4,0.4,0.5l0.3,0v0.1h-1.3l-0.1-0.1v-1.7
			C220.7,360.1,220.2,360.7,219.4,360.7z M220.6,358.8V357c-0.2-0.4-0.6-0.5-0.9-0.5c-0.7,0-1.1,0.7-1.1,2c0,1.2,0.3,1.9,1,1.9
			C220.1,360.5,220.6,360,220.6,358.8z"/>
	</g>
</g>
</svg>
