<?xml version="1.0" encoding="utf-8"?>
<!-- Generator: Adobe Illustrator 17.1.0, SVG Export Plug-In . SVG Version: 6.00 Build 0)  -->
<!DOCTYPE svg PUBLIC "-//W3C//DTD SVG 1.1 Tiny//EN" "http://www.w3.org/Graphics/SVG/1.1/DTD/svg11-tiny.dtd">
<svg version="1.1" baseProfile="tiny" id="Layer_1" xmlns="http://www.w3.org/2000/svg" xmlns:xlink="http://www.w3.org/1999/xlink"
	 x="0px" y="0px" width="800px" height="600px" viewBox="0 0 800 600" xml:space="preserve">
<path fill="#FFFFFF" d="M47.7,22v7.6h-4.8v49.8H33V29.6h-4.8V22H47.7z"/>
<path fill="#FFFFFF" d="M57.8,22l2.5,22.1L62.7,22h9.2l-6.6,34.3v23.2H55.2V56.3l-7-34.3H57.8z"/>
<path fill="#FFFFFF" d="M86.4,22C95.9,22,97,24.2,97,33.7v13.7c0,9.5-0.9,11.7-10.6,11.7H84v20.3h-9.8V22H86.4z M84.2,51.6
	c0.3,0,0.6,0,0.8,0c2.2,0,2.3-0.8,2.3-3.4v-15c0-2.8,0-3.6-2.3-3.6c-0.2,0-0.5,0-0.8,0V51.6z"/>
<path fill="#FFFFFF" d="M117,22v7.5H111v14.7h5.9v7.6H111v20.1h5.9v7.6h-15.8V22H117z"/>
<path fill="#FFFFFF" d="M39.9,121.4v57.4h-9.8v-57.4H39.9z"/>
<path fill="#FFFFFF" d="M67.2,141.2h-9.8V131c0-1.7-0.5-2.3-1.6-2.3s-1.4,0.8-1.4,2.3v8.9c0,1.9,0.2,2.5,2.2,3.7l6.1,3.4
	c3.9,2.2,4.5,5,4.5,8.7v12c0,9.8-1.1,11.4-11.4,11.4c-9.8,0-11.4-1.7-11.4-11.4v-12.6h9.8v14c0,1.6,0.5,2.5,1.6,2.5s1.4-0.8,1.4-2.5
	v-12.2c0-1.9-0.2-2.3-2.2-3.6l-6.2-3.7c-3.7-2.2-4.5-5-4.5-9v-8.3c0-9.8,1.6-11.4,11.4-11.4c10.1,0,11.4,1.9,11.4,11.4v8.7H67.2z"/>
<path fill="#FFFFFF" d="M47.5,220.6l5.8,57.4h-9.5L43,265.8H39L38.2,278h-9.5l5.6-57.4H47.5z M39.3,258.2h3.3L41,232h-0.3
	L39.3,258.2z"/>
<path fill="#FFFFFF" d="M65.9,220.6l5.3,28.7h0.5l-0.2-28.7H80V278h-8.7l-5.5-29.5h-0.5l0.2,29.5h-8.6v-57.4H65.9z"/>
<path fill="#FFFFFF" d="M41.1,319.5c10,0,11.4,1.6,11.4,11.4v35.3c0,9.7-1.2,11.5-11.2,11.5c-10,0-11.4-1.6-11.4-11.5v-35.3
	C29.8,321.2,31,319.5,41.1,319.5z M39.6,367.5c0,1.7,0.5,2.3,1.6,2.3c1.2,0,1.6-0.8,1.6-2.3v-37.9c0-1.6-0.3-2.5-1.6-2.5
	c-1.1,0-1.6,0.8-1.6,2.5V367.5z"/>
<path fill="#FFFFFF" d="M69.2,319.8c8.4,0,10.6,2.3,10.6,10.1v7.6c0,4.7-1.1,7.3-4.4,8.6c3.6,1.6,4.4,4.2,4.4,8.9v10.6
	c0,9-1.2,11.5-11.5,11.5H57.1v-57.4H69.2z M66.9,342.1c0.3,0,0.6,0,0.8,0c1.7,0,2.3-0.8,2.3-2.5v-10c0-1.7-0.6-2.3-2-2.3
	c-0.8,0-1.1,0-1.1,0V342.1z M66.9,369.7c0.3,0,0.6,0,0.9,0c1.6,0,2.2-0.8,2.2-2.5V353c0-1.9-0.6-2.5-2.3-2.5c-0.3,0-0.6,0-0.8,0
	V369.7z"/>
<path fill="#FFFFFF" d="M105.3,319.8v46.3c0,9.7-1.2,11.4-11.1,11.4c-9.5,0-10.8-2.2-10.8-11.4v-12.8h8.9v14.2
	c0,1.7,0.5,2.5,1.6,2.5c1.2,0,1.6-0.8,1.6-2.5v-47.7H105.3z"/>
<path fill="#FFFFFF" d="M126,319.8v7.5h-5.9v14.7h5.9v7.6h-5.9v20.1h5.9v7.6h-15.8v-57.4H126V319.8z"/>
<path fill="#FFFFFF" d="M153.1,339.4h-9.8v-9.8c0-1.6-0.3-2.5-1.6-2.5c-1.1,0-1.6,0.8-1.6,2.5v37.9c0,1.7,0.5,2.3,1.6,2.3
	c1.2,0,1.6-0.8,1.6-2.3v-14.7h9.8v13.3c0,9.7-1.2,11.5-11.2,11.5c-10,0-11.4-1.6-11.4-11.5v-35.3c0-9.8,1.1-11.4,11.4-11.4
	c10,0,11.4,1.6,11.4,11.4v8.6H153.1z"/>
<path fill="#FFFFFF" d="M175,319.8v7.6h-4.8v49.8h-9.8v-49.8h-4.8v-7.6H175z"/>
<path fill="#FFFFFF" d="M41.1,418.7c10,0,11.4,1.6,11.4,11.4v35.3c0,9.7-1.2,11.5-11.2,11.5c-10,0-11.4-1.6-11.4-11.5V430
	C29.8,420.4,31,418.7,41.1,418.7z M39.6,466.7c0,1.7,0.5,2.3,1.6,2.3c1.2,0,1.6-0.8,1.6-2.3v-37.9c0-1.6-0.3-2.5-1.6-2.5
	c-1.1,0-1.6,0.8-1.6,2.5V466.7z"/>
<path fill="#FFFFFF" d="M73,419v7.5H67v14.7H73v7.6H67v27.8h-9.8v-57.4H73V419z"/>
<path fill="#FFFFFF" d="M52.5,537.8h-9.8V528c0-1.6-0.3-2.5-1.6-2.5c-1.1,0-1.6,0.8-1.6,2.5v37.9c0,1.7,0.5,2.3,1.6,2.3
	c1.2,0,1.6-0.8,1.6-2.3v-14.7h9.8v13.3c0,9.7-1.2,11.5-11.2,11.5c-10,0-11.4-1.6-11.4-11.5v-35.3c0-9.8,1.1-11.4,11.4-11.4
	c10,0,11.4,1.6,11.4,11.4v8.6H52.5z"/>
<path fill="#FFFFFF" d="M66.6,518.3v57.4h-9.8v-57.4H66.6z"/>
<path fill="#FFFFFF" d="M83.6,518.3c9.2,0,10.6,2.7,10.6,11.7v7.5c0,5.1-0.5,8.1-4.5,9.8c3.6,1.4,4.5,4.1,4.5,8.9v19.5h-9.8v-21.2
	c0-1.9-0.6-2.7-2.3-2.7c-0.3,0-0.5,0-0.8,0v23.9h-9.7v-57.4H83.6z M81.4,543.3c0.3,0,0.6,0,0.8,0c1.9,0,2.3-0.8,2.3-3v-11.1
	c0-2.8,0-3.6-2.5-3.6c-0.2,0-0.5,0-0.6,0V543.3z"/>
<path fill="#FFFFFF" d="M121.5,537.8h-9.8V528c0-1.6-0.3-2.5-1.6-2.5c-1.1,0-1.6,0.8-1.6,2.5v37.9c0,1.7,0.5,2.3,1.6,2.3
	c1.2,0,1.6-0.8,1.6-2.3v-14.7h9.8v13.3c0,9.7-1.2,11.5-11.2,11.5c-10,0-11.4-1.6-11.4-11.5v-35.3c0-9.8,1.1-11.4,11.4-11.4
	c10,0,11.4,1.6,11.4,11.4v8.6H121.5z"/>
<path fill="#FFFFFF" d="M135.4,518.3v47.7c0,1.6,0.3,2.5,1.6,2.5c1.2,0,1.6-0.8,1.6-2.5v-47.7h9.8v46.3c0,9.7-1.4,11.4-11.2,11.4
	c-10,0-11.4-1.6-11.4-11.4v-46.3H135.4z"/>
<path fill="#FFFFFF" d="M164.4,518.3l3.6,27.5h0.5l3.6-27.5h11.4v57.4h-8.7l0.3-34h-0.5l-3.7,34h-5.1l-3.7-34h-0.6l0.3,34h-8.7
	v-57.4H164.4z"/>
<path fill="#FFFFFF" d="M210.9,538.1H201V528c0-1.7-0.5-2.3-1.6-2.3s-1.4,0.8-1.4,2.3v8.9c0,1.9,0.2,2.5,2.2,3.7l6.1,3.4
	c3.9,2.2,4.5,5,4.5,8.7v12c0,9.8-1.1,11.4-11.4,11.4c-9.8,0-11.4-1.7-11.4-11.4v-12.6h9.8v14c0,1.6,0.5,2.5,1.6,2.5s1.4-0.8,1.4-2.5
	v-12.3c0-1.9-0.2-2.3-2.2-3.6l-6.2-3.7c-3.7-2.2-4.5-5-4.5-9v-8.3c0-9.8,1.6-11.4,11.4-11.4c10.1,0,11.4,1.9,11.4,11.4v8.9H210.9z"
	/>
<path fill="#FFFFFF" d="M233,518.3v7.6h-4.8v49.8h-9.8V526h-4.8v-7.6H233z"/>
<path fill="#FFFFFF" d="M251.6,518.3l5.8,57.4h-9.5l-0.8-12.2H243l-0.8,12.2h-9.5l5.6-57.4H251.6z M243.5,555.8h3.3l-1.6-26.2h-0.3
	L243.5,555.8z"/>
<path fill="#FFFFFF" d="M270.1,518.3l5.3,28.7h0.5l-0.2-28.7h8.4v57.4h-8.7l-5.5-29.5h-0.3l0.2,29.5h-8.6v-57.4H270.1z"/>
<path fill="#FFFFFF" d="M311.6,537.8h-9.8V528c0-1.6-0.3-2.5-1.6-2.5c-1.1,0-1.6,0.8-1.6,2.5v37.9c0,1.7,0.5,2.3,1.6,2.3
	c1.2,0,1.6-0.8,1.6-2.3v-14.7h9.8v13.3c0,9.7-1.2,11.5-11.2,11.5c-10,0-11.4-1.6-11.4-11.5v-35.3c0-9.8,1.1-11.4,11.4-11.4
	c10,0,11.4,1.6,11.4,11.4v8.6H311.6z"/>
<path fill="#FFFFFF" d="M331.6,518.3v7.5h-5.9v14.7h5.9v7.6h-5.9v20.1h5.9v7.6h-15.8v-57.4h15.8V518.3z"/>
</svg>
