<?xml version="1.0" encoding="utf-8"?>
<!-- Generator: Adobe Illustrator 17.1.0, SVG Export Plug-In . SVG Version: 6.00 Build 0)  -->
<!DOCTYPE svg PUBLIC "-//W3C//DTD SVG 1.1 Tiny//EN" "http://www.w3.org/Graphics/SVG/1.1/DTD/svg11-tiny.dtd">
<svg version="1.1" baseProfile="tiny" id="Layer_1" xmlns="http://www.w3.org/2000/svg" xmlns:xlink="http://www.w3.org/1999/xlink"
	 x="0px" y="0px" width="800px" height="600px" viewBox="0 0 800 600" xml:space="preserve">
<g>
	<path fill="#FFFFFF" d="M64.2,70.8c-4.6,0-8.7-0.1-13.2-0.1c-4.6,0-8.7,0.1-13.3,0.1v-1.2l4-0.5c4.3-0.6,5-2,5-5.3V19.7h-5.1
		c-6.6,0-9.1,3.3-13.5,16.3h-1.2l0.5-17.7h47.1l0.5,17.7h-1.2C69.5,23,66.9,19.7,60.4,19.7h-5.1v44.1c0,3.3,0.6,4.7,5,5.3l4,0.5
		V70.8z"/>
	<path fill="#FFFFFF" d="M83.8,89.6c-4.3,0-7-2.4-7-6.3c0-3,2.2-5.3,5.4-5.3c2.9,0,4.6,1.9,4.6,4.3c0,3.1-2.2,3.5-2.2,4.6
		c0,0.5,0.3,0.7,0.9,0.7c2.2,0,6.2-2,11.1-15.3l0.5-1.2L84.2,40.8c-1.8-4-2.9-5.5-5.3-5.9l-2.3-0.4v-1.2c3.6,0.1,7,0.1,10.5,0.1
		c3.6,0,6.6,0,10.1-0.1v1.2l-2.8,0.3c-3.3,0.4-3.3,2.9-1.8,6.7l8.1,20.8l7-18.9c0.9-2.4,1.2-3.9,1.2-5.2c0-1.9-0.9-2.9-3.9-3.3
		l-2.6-0.4v-1.2c2.7,0.1,5.3,0.1,8.1,0.1s5.3,0,8.1-0.1v1.2l-1.9,0.4c-3.8,0.8-5.2,2.8-7.6,9.1l-9.1,24.4
		C92.9,87.3,88.8,89.6,83.8,89.6z"/>
	<path fill="#FFFFFF" d="M139.6,88.6c-3.7,0-6.6-0.1-10.3-0.1c-3.7,0-6.7,0.1-10.4,0.1v-1.2l2.8-0.5c3.2-0.5,3.7-1.4,3.7-4.5V41.8
		c0-3.9-1.2-4.6-5-5l-2.7-0.2v-1l13.3-3.2l1.5,0.5c-0.4,5.7-0.5,10.8-0.5,17.1c0-9.4,2.9-17.8,12.2-17.8c9.3,0,16.3,7.6,16.3,19.6
		C160.4,65,150.7,72,142,72c-3.4,0-6.4-0.7-8.9-2v12.5c0,3.1,0.5,3.9,3.8,4.5l2.7,0.5V88.6z M151.9,51.8c0-10-2.2-17.7-9-17.7
		c-6.7,0-9.9,6.7-9.9,15.9v15.7c1.9,3.4,4.7,5.1,8.9,5.1C148.3,70.8,151.9,64.2,151.9,51.8z"/>
	<path fill="#FFFFFF" d="M183.3,72c-10.1,0-18-7.8-18-19.9s7.9-19.9,18-19.9c10.2,0,18,7.8,18,19.9S193.5,72,183.3,72z M183.3,70.8
		c7.4,0,9.6-8.1,9.6-18.7c0-10.6-2.2-18.7-9.6-18.7c-7.3,0-9.5,8.1-9.5,18.7C173.8,62.7,176,70.8,183.3,70.8z"/>
	<path fill="#FFFFFF" d="M204.1,79.4c0-4.1,2.6-6.4,6-6.4c2.2,0,3.4,1.1,3.2,2.8c-2.8,0-4.4,1.7-4.4,4.3c0,4.9,4.3,8.4,13.9,8.4
		c9.2,0,14.9-3.6,14.9-9.3c0-4.5-4.7-5.4-14-5.8c-9.4-0.3-15.8-2.6-15.8-8.7c0-4.4,3.6-7,11.9-7c-7.5,0-13.8-5.3-13.8-12.9
		c0-7.3,5.6-12.6,14.1-12.6c3.9,0,7.4,1.2,10,3.4c2.3-2.2,5.3-3.6,8.4-3.6c3.4,0,5.5,1.9,5.5,4.9c0,2.9-2,4.3-4.3,4.3
		c-2.4,0-3.9-1.5-3.9-3.6c0-1,0.3-1.7,0.3-2.4c0-0.4-0.3-0.7-0.9-0.7c-0.9,0-2.6,0.7-4,2c2.2,2.2,3.5,5.3,3.5,9
		c0,7.5-5.5,13.1-14.9,13.1c-5.5,0-7.6,1.2-7.6,3.1c0,2.9,3.7,3.6,12.5,3.9c10.2,0.4,17.4,2.4,17.4,11.2c0,8.4-8.2,12.8-19.1,12.8
		C212.2,89.7,204.1,86.1,204.1,79.4z M220.4,57.1c4.9,0,6.6-5.4,6.6-11.8c0-7.3-1.9-11.8-6.7-11.8c-4.5,0-6.6,4.5-6.6,11.8
		C213.7,51.9,215.7,57.1,220.4,57.1z"/>
	<path fill="#FFFFFF" d="M267.8,70.8c-3.7,0-7.3-0.1-11-0.1c-3.6,0-6.7,0.1-10.3,0.1v-1.2l2.7-0.5c3.2-0.5,3.7-1.4,3.7-4.5v-23
		c0-3.9-1.1-4.6-5-4.9l-2.7-0.2v-1l13.4-3.2l1.4,0.5c-0.4,5.7-0.6,15.1-0.6,23c0-3.4,0.2-6.9,0.9-11.1c1.3-7.4,4.8-12.9,10.8-12.9
		c3.9,0,6.3,2.4,6.3,5.8c0,3.4-2.3,5.3-5.2,5.3c-2.9,0-4.6-1.9-4.6-4.5c0-0.6,0.2-1.3,0.2-1.7c0-0.6-0.2-0.9-0.8-0.9
		c-1.9,0-4.4,2.9-5.7,9.1c-0.7,3.6-1,7.2-1,10.8v8.6c0,3.3,0.9,4.3,4.2,4.7l3.2,0.5V70.8z"/>
	<path fill="#FFFFFF" d="M310,71.8c-4.4,0-6.4-2.1-6.9-8.2c-1.6,5-6.2,8.4-12.2,8.4c-6.6,0-10.5-3.1-10.5-8.7c0-9,12-11.6,21.8-12.6
		v-7.9c0-6.7-1.5-9.3-7-9.3c-4.4,0-7,2-7,3.8c0,2.4,3.9,2,3.9,5.9c0,2.6-2.1,4.3-4.9,4.3c-3.1,0-5-2.2-5-5.6c0-5.5,6-9.5,13.1-9.5
		c8.8,0,14.3,3.9,14.3,12.3L309.4,65c0,3,0.8,4.3,2.7,4.3c2.1,0,3.3-1.7,3.6-7.7h1.2C316.8,68.9,314.9,71.8,310,71.8z M302.1,59.8
		v-8c-8.9,1.3-13.8,3.2-13.8,10.5c0,4.1,2.2,6.8,6.1,6.8C298.4,69.2,302.1,66.3,302.1,59.8z"/>
	<path fill="#FFFFFF" d="M337,88.6c-3.7,0-6.6-0.1-10.3-0.1s-6.7,0.1-10.4,0.1v-1.2l2.8-0.5c3.2-0.5,3.7-1.4,3.7-4.5V41.8
		c0-3.9-1.2-4.6-5-5l-2.7-0.2v-1l13.3-3.2l1.5,0.5c-0.4,5.7-0.5,10.8-0.5,17.1c0-9.4,2.9-17.8,12.2-17.8c9.3,0,16.3,7.6,16.3,19.6
		c0,13.2-9.7,20.2-18.4,20.2c-3.4,0-6.4-0.7-8.9-2v12.5c0,3.1,0.5,3.9,3.8,4.5l2.7,0.5V88.6z M349.4,51.8c0-10-2.2-17.7-9-17.7
		c-6.7,0-9.9,6.7-9.9,15.9v15.7c1.9,3.4,4.7,5.1,8.9,5.1C345.8,70.8,349.4,64.2,349.4,51.8z"/>
	<path fill="#FFFFFF" d="M360.7,69.7l2.7-0.5c3.2-0.5,3.7-1.4,3.7-4.5V19.4c0-3.1-0.6-3.9-4-4.3l-3.6-0.4v-0.9l14.6-2.9l1.3,0.5
		c-0.4,2.6-0.6,6-0.6,9.1v7.4c0,8.4-1.1,14.2-1.1,24.8c0-12.3,5-20.5,13.6-20.5c6.6,0,11.5,3.6,11.5,11.5v21c0,3.1,0.5,3.9,3.7,4.5
		l2.7,0.5v1.2c-3.6,0-6.5-0.1-10.2-0.1c-3.7,0-6.7,0.1-10.4,0.1v-1.2l2.7-0.5c3.3-0.5,3.8-1.4,3.8-4.5v-21c0-6.6-1.9-9.1-6.2-9.1
		c-5.2,0-10.1,6.7-10.1,18v12c0,3.1,0.6,3.9,3.8,4.5l2.7,0.5v1.2c-3.7,0-6.6-0.1-10.3-0.1c-3.6,0-6.7,0.1-10.3,0.1V69.7z"/>
	<path fill="#FFFFFF" d="M410.5,89.6c-4.3,0-7-2.4-7-6.3c0-3,2.2-5.3,5.4-5.3c2.9,0,4.6,1.9,4.6,4.3c0,3.1-2.2,3.5-2.2,4.6
		c0,0.5,0.3,0.7,0.9,0.7c2.2,0,6.2-2,11.1-15.3l0.5-1.2l-12.9-30.3c-1.8-4-2.9-5.5-5.3-5.9l-2.3-0.4v-1.2c3.6,0.1,7,0.1,10.5,0.1
		c3.6,0,6.6,0,10.1-0.1v1.2l-2.8,0.3c-3.3,0.4-3.3,2.9-1.8,6.7l8.1,20.8l7-18.9c0.9-2.4,1.2-3.9,1.2-5.2c0-1.9-0.9-2.9-3.9-3.3
		l-2.6-0.4v-1.2c2.7,0.1,5.3,0.1,8.1,0.1c2.7,0,5.3,0,8.1-0.1v1.2l-1.9,0.4c-3.8,0.8-5.2,2.8-7.6,9.1l-9.1,24.4
		C419.6,87.3,415.5,89.6,410.5,89.6z"/>
	<path fill="#FFFFFF" d="M26.5,238.6l2.7-0.5c3.2-0.5,3.7-1.4,3.7-4.5v-45.3c0-3.1-0.6-3.9-4-4.3l-3.6-0.4v-0.9l14.6-2.9l1.3,0.5
		c-0.4,2.6-0.6,6.1-0.6,9.1v44.2c0,3.1,0.5,3.9,3.8,4.5l2.7,0.5v1.2c-3.7,0-6.6-0.1-10.3-0.1c-3.6,0-6.7,0.1-10.3,0.1V238.6z"/>
	<path fill="#FFFFFF" d="M50.4,238.6l2.7-0.5c3.2-0.5,3.7-1.4,3.7-4.5v-22.9c0-3.9-1.1-4.6-5-5l-2.7-0.2v-1l14.4-3.3l1.5,0.5
		c-0.4,3-0.5,6-0.5,9.1v23c0,3,0.5,3.9,3.8,4.4l2.7,0.5v1.2c-3.7,0-6.6-0.1-10.3-0.1c-3.6,0-6.7,0.1-10.3,0.1V238.6z M59.7,192.6
		c-2.9,0-5.5-2.2-5.5-5.3c0-3.3,2.5-5.3,5.5-5.3c3.3,0,5.6,2,5.6,5.3C65.2,190.6,62.9,192.6,59.7,192.6z"/>
	<path fill="#FFFFFF" d="M73.5,238.6l2.7-0.5c3.2-0.5,3.7-1.5,3.7-4.5v-22.9c0-3.9-1.1-4.6-5-5l-2.7-0.2v-1l13.4-3.2l1.4,0.5
		c-0.3,5.7-0.5,13.2-0.5,19.8c0-11.8,4.8-20.5,13.6-20.5c6.6,0,11.5,3.7,11.5,11.6v20.9c0,3.1,0.5,3.9,3.7,4.5l2.7,0.5v1.2
		c-3.6,0-6.6-0.1-10.2-0.1c-3.7,0-6.7,0.1-10.4,0.1v-1.2l2.7-0.5c3.3-0.5,3.8-1.4,3.8-4.5v-20.9c0-6.6-1.9-9.1-6.2-9.1
		c-5.3,0-10.1,6.9-10.1,18v12.1c0,3,0.6,3.9,3.8,4.4l2.7,0.5v1.2c-3.7,0-6.6-0.1-10.3-0.1c-3.6,0-6.7,0.1-10.3,0.1V238.6z"/>
	<path fill="#FFFFFF" d="M120.4,238.6l2.7-0.5c3.2-0.5,3.7-1.4,3.7-4.5v-45.3c0-3.1-0.6-3.9-4-4.3l-3.6-0.4v-0.9l14.6-2.9l1.3,0.5
		c-0.4,2.6-0.6,6.1-0.6,9.1v44.3c0,3,0.5,3.9,3.7,4.4l2.5,0.5v1.2c-3.7,0-6.3-0.1-10-0.1c-3.6,0-6.7,0.1-10.3,0.1V238.6z M154,232.2
		c3.6,4.3,4.9,5.4,7.4,6l1.8,0.4v1.2c-3.5,0-6.5-0.1-9.9-0.1c-3.5,0-6.7,0.1-10.1,0.1v-1.2l1.5-0.2c1.9-0.3,2.5-0.9,2.5-1.5
		c0-0.6-0.2-1.1-1.7-2.9l-10.9-13.6l10-9.8c2.1-2,2.7-3.1,2.7-4.2c0-1.2-0.9-1.9-3.6-2.3l-2.5-0.4v-1.2c3.5,0.1,6.5,0.1,10.1,0.1
		c3.6,0,6.7,0,10.3-0.1v1.2l-2.7,0.5c-4.4,0.8-8.5,2.9-13.1,7.2l-5.3,5L154,232.2z"/>
	<path fill="#FFFFFF" d="M178.9,240.9c-5,0-8.4-1.3-11.1-3.8l-2.1,3.7h-0.6V225h1.5c2.8,10.8,6.9,14.7,12.3,14.7
		c4.5,0,7.7-2.3,7.7-6.8c0-4.6-2.8-6.4-9.8-9c-5.7-2-10.8-4.9-10.8-11.9c0-6.2,5.6-10.9,13-10.9c3.9,0,7,1.2,9.2,3.4l1.9-3.3h0.6
		v14.2h-1.5c-2.4-9-5.5-13.1-10.2-13.1c-5,0-7.2,2.9-7.2,6.3c0,4.3,2.8,6,9.7,8.5c5.5,1.9,11.1,5.1,11.1,12.2
		C192.4,236.7,186.3,240.9,178.9,240.9z"/>
	<path fill="#FFFFFF" d="M41.6,409.5c-5.5,0-9.6-2.8-9.6-9.7v-25.6l-7.5-1.1v-1.3l5.3-0.8c3.3-0.4,4.9-1.6,5.6-5.4l1.2-6h3.6
		l-0.5,11.5h12.5v2l-12.5,0.5v26.2c0,5.7,1.9,7.1,4.8,7.1s5-2.3,6.3-7.9l1.4,0.2C50.7,406.4,47.8,409.5,41.6,409.5z"/>
	<path fill="#FFFFFF" d="M55.2,407.4l2.7-0.5c3.2-0.5,3.7-1.4,3.7-4.5v-22.9c0-3.9-1.1-4.6-5-5l-2.7-0.2v-1l14.4-3.3l1.5,0.5
		c-0.4,3-0.5,6-0.5,9.1v23c0,3,0.5,3.9,3.8,4.4l2.7,0.5v1.2c-3.7,0-6.6-0.1-10.3-0.1c-3.6,0-6.7,0.1-10.3,0.1V407.4z M64.5,361.5
		c-2.9,0-5.5-2.2-5.5-5.3c0-3.3,2.5-5.3,5.5-5.3c3.3,0,5.6,2,5.6,5.3C70,359.5,67.7,361.5,64.5,361.5z"/>
	<path fill="#FFFFFF" d="M135.3,408.5c-3.7,0-6.7,0.1-10.4,0.1v-1.2l2.7-0.5c3.2-0.5,3.8-1.4,3.8-4.5v-20.9c0-6.3-2-9.1-5.9-9.1
		c-5.3,0-9.8,6.9-9.8,18v12c0,3.1,0.6,3.9,3.8,4.5l2.7,0.5v1.2c-3.7,0-6.6-0.1-10.3-0.1c-3.6,0-6.6,0.1-10.3,0.1v-1.2l2.7-0.5
		c3.2-0.5,3.8-1.4,3.8-4.5v-20.9c0-6-1.9-9.1-5.7-9.1c-5.3,0-10,6.7-10,18v12c0,3.1,0.6,3.9,3.8,4.5l2.7,0.5v1.2
		c-3.7,0-6.6-0.1-10.3-0.1c-3.6,0-6.7,0.1-10.3,0.1v-1.2L81,407c3.2-0.5,3.7-1.4,3.7-4.5v-22.9c0-3.9-1.1-4.6-5-5l-2.7-0.2v-1
		l13.4-3.2l1.4,0.5c-0.3,5.7-0.5,13.2-0.5,19.8c0-12.2,4.9-20.5,13.1-20.5c6.3,0,10.5,3.5,10.5,11.6c0,2-0.1,3.6-0.2,4.9
		c1-10,5.7-16.5,13.1-16.5c6.3,0,11.1,3.6,11.1,11.6v20.9c0,3.1,0.6,3.9,3.8,4.5l2.7,0.5v1.2C141.8,408.6,138.9,408.5,135.3,408.5z"
		/>
	<path fill="#FFFFFF" d="M165.9,409.7c-8.9,0-17.5-7-17.5-19.7c0-12.9,8.9-20.1,18.1-20.1c8.3,0,14.2,4.9,14.2,13.3
		c0,1.7-0.2,3.1-0.4,4.3l-23.4-0.2c-0.1,0.9-0.1,1.7-0.1,2.6c0,10.3,3.8,16.9,11.5,16.9c4.6,0,8.4-2.3,11.3-7.6l1.1,0.5
		C177.4,406.2,172.9,409.7,165.9,409.7z M172.8,384.3c0.6-5.3,0.7-13.2-6.2-13.2c-5.3,0-8.9,4.6-9.6,15.3l15.6-1v-0.1L172.8,384.3z"
		/>
	<path fill="#FFFFFF" d="M185.8,388.6H205v2.5h-19.2V388.6z"/>
	<path fill="#FFFFFF" d="M41.6,578.4c-5.5,0-9.6-2.8-9.6-9.7v-25.6l-7.5-1.1v-1.3l5.3-0.8c3.3-0.4,4.9-1.6,5.6-5.4l1.2-6h3.6
		L39.7,540h12.5v2l-12.5,0.5v26.2c0,5.7,1.9,7.1,4.8,7.1s5-2.3,6.3-7.9l1.4,0.2C50.7,575.3,47.8,578.4,41.6,578.4z"/>
	<path fill="#FFFFFF" d="M55.2,576.3l2.7-0.5c3.2-0.5,3.7-1.4,3.7-4.5v-22.9c0-3.9-1.1-4.6-5-5l-2.7-0.2v-1l14.4-3.3l1.5,0.5
		c-0.4,3-0.5,6-0.5,9.1v23c0,3,0.5,3.9,3.8,4.4l2.7,0.5v1.2c-3.7,0-6.6-0.1-10.3-0.1c-3.6,0-6.7,0.1-10.3,0.1V576.3z M64.5,530.4
		c-2.9,0-5.5-2.2-5.5-5.3c0-3.3,2.5-5.3,5.5-5.3c3.3,0,5.6,2,5.6,5.3C70,528.4,67.7,530.4,64.5,530.4z"/>
	<path fill="#FFFFFF" d="M135.3,577.4c-3.7,0-6.7,0.1-10.4,0.1v-1.2l2.7-0.5c3.2-0.5,3.8-1.4,3.8-4.5v-20.9c0-6.3-2-9.1-5.9-9.1
		c-5.3,0-9.8,6.9-9.8,18v12c0,3.1,0.6,3.9,3.8,4.5l2.7,0.5v1.2c-3.7,0-6.6-0.1-10.3-0.1c-3.6,0-6.6,0.1-10.3,0.1v-1.2l2.7-0.5
		c3.2-0.5,3.8-1.4,3.8-4.5v-20.9c0-6-1.9-9.1-5.7-9.1c-5.3,0-10,6.7-10,18v12c0,3.1,0.6,3.9,3.8,4.5l2.7,0.5v1.2
		c-3.7,0-6.6-0.1-10.3-0.1c-3.6,0-6.7,0.1-10.3,0.1v-1.2l2.7-0.5c3.2-0.5,3.7-1.4,3.7-4.5v-22.9c0-3.9-1.1-4.6-5-5l-2.7-0.2v-1
		l13.4-3.2l1.4,0.5c-0.3,5.7-0.5,13.2-0.5,19.8c0-12.2,4.9-20.5,13.1-20.5c6.3,0,10.5,3.5,10.5,11.6c0,2-0.1,3.6-0.2,4.9
		c1-10,5.7-16.5,13.1-16.5c6.3,0,11.1,3.6,11.1,11.6v20.9c0,3.1,0.6,3.9,3.8,4.5l2.7,0.5v1.2C141.8,577.5,138.9,577.4,135.3,577.4z"
		/>
	<path fill="#FFFFFF" d="M165.9,578.6c-8.9,0-17.5-7-17.5-19.7c0-12.9,8.9-20.1,18.1-20.1c8.3,0,14.2,4.9,14.2,13.3
		c0,1.7-0.2,3.1-0.4,4.3l-23.4-0.2c-0.1,0.9-0.1,1.7-0.1,2.6c0,10.3,3.8,16.9,11.5,16.9c4.6,0,8.4-2.3,11.3-7.6l1.1,0.5
		C177.4,575.1,172.9,578.6,165.9,578.6z M172.8,553.2c0.6-5.3,0.7-13.2-6.2-13.2c-5.3,0-8.9,4.6-9.6,15.3l15.6-1v-0.1L172.8,553.2z"
		/>
	<path fill="#FFFFFF" d="M191.4,578.2c-2.9,0-5.6-2.2-5.6-5.5c0-3.6,2.6-5.6,5.6-5.6c3.1,0,5.6,2.1,5.6,5.6
		C197,576.1,194.4,578.2,191.4,578.2z"/>
</g>
<g>
	<path fill="#FFFFFF" d="M213.4,474.2l0.4-0.1c0.5-0.1,0.6-0.2,0.6-0.7v-7.2c0-0.5-0.1-0.6-0.6-0.7l-0.6-0.1v-0.1l2.3-0.5l0.2,0.1
		c-0.1,0.4-0.1,1-0.1,1.4v7c0,0.5,0.1,0.6,0.6,0.7l0.4,0.1v0.2c-0.6,0-1,0-1.6,0c-0.6,0-1.1,0-1.6,0V474.2z"/>
	<path fill="#FFFFFF" d="M220,474.6c-1.4,0-2.8-1.1-2.8-3.1c0-2,1.4-3.2,2.9-3.2c1.3,0,2.3,0.8,2.3,2.1c0,0.3,0,0.5-0.1,0.7l-3.7,0
		c0,0.1,0,0.3,0,0.4c0,1.6,0.6,2.7,1.8,2.7c0.7,0,1.3-0.4,1.8-1.2l0.2,0.1C221.9,474,221.1,474.6,220,474.6z M221.1,470.5
		c0.1-0.9,0.1-2.1-1-2.1c-0.9,0-1.4,0.7-1.5,2.4l2.5-0.2v0L221.1,470.5z"/>
	<path fill="#FFFFFF" d="M225.6,474.6c-0.8,0-1.3-0.2-1.8-0.6l-0.3,0.6h-0.1v-2.5h0.2c0.4,1.7,1.1,2.3,2,2.3c0.7,0,1.2-0.4,1.2-1.1
		c0-0.7-0.4-1-1.6-1.4c-0.9-0.3-1.7-0.8-1.7-1.9c0-1,0.9-1.7,2.1-1.7c0.6,0,1.1,0.2,1.5,0.5l0.3-0.5h0.1v2.3h-0.2
		c-0.4-1.4-0.9-2.1-1.6-2.1c-0.8,0-1.1,0.5-1.1,1c0,0.7,0.4,1,1.5,1.4c0.9,0.3,1.8,0.8,1.8,1.9C227.7,473.9,226.7,474.6,225.6,474.6
		z"/>
	<path fill="#FFFFFF" d="M230.9,474.6c-0.8,0-1.3-0.2-1.8-0.6l-0.3,0.6h-0.1v-2.5h0.2c0.4,1.7,1.1,2.3,2,2.3c0.7,0,1.2-0.4,1.2-1.1
		c0-0.7-0.4-1-1.6-1.4c-0.9-0.3-1.7-0.8-1.7-1.9c0-1,0.9-1.7,2.1-1.7c0.6,0,1.1,0.2,1.5,0.5l0.3-0.5h0.1v2.3h-0.2
		c-0.4-1.4-0.9-2.1-1.6-2.1c-0.8,0-1.1,0.5-1.1,1c0,0.7,0.4,1,1.5,1.4c0.9,0.3,1.8,0.8,1.8,1.9C233,473.9,232,474.6,230.9,474.6z"/>
	<path fill="#FFFFFF" d="M233.8,474.2l0.4-0.1c0.5-0.1,0.6-0.2,0.6-0.7v-3.6c0-0.6-0.2-0.7-0.8-0.8l-0.4,0v-0.2l2.1-0.5l0.2,0.1
		c0,0.9-0.1,2.1-0.1,3.2c0-1.9,0.8-3.3,2.2-3.3c1,0,1.8,0.6,1.8,1.8v3.3c0,0.5,0.1,0.6,0.6,0.7l0.4,0.1v0.2c-0.6,0-1,0-1.6,0
		c-0.6,0-1.1,0-1.7,0v-0.2l0.4-0.1c0.5-0.1,0.6-0.2,0.6-0.7v-3.3c0-1-0.3-1.5-1-1.5c-0.9,0-1.6,1.1-1.6,2.9v1.9
		c0,0.5,0.1,0.6,0.6,0.7l0.4,0.1v0.2c-0.6,0-1,0-1.6,0c-0.6,0-1.1,0-1.6,0V474.2z"/>
	<path fill="#FFFFFF" d="M244.2,474.6c-1.4,0-2.8-1.1-2.8-3.1c0-2,1.4-3.2,2.9-3.2c1.3,0,2.3,0.8,2.3,2.1c0,0.3,0,0.5-0.1,0.7
		l-3.7,0c0,0.1,0,0.3,0,0.4c0,1.6,0.6,2.7,1.8,2.7c0.7,0,1.3-0.4,1.8-1.2l0.2,0.1C246,474,245.3,474.6,244.2,474.6z M245.3,470.5
		c0.1-0.9,0.1-2.1-1-2.1c-0.9,0-1.4,0.7-1.5,2.4l2.5-0.2v0L245.3,470.5z"/>
	<path fill="#FFFFFF" d="M249.7,474.6c-0.8,0-1.3-0.2-1.8-0.6l-0.3,0.6h-0.1v-2.5h0.2c0.4,1.7,1.1,2.3,2,2.3c0.7,0,1.2-0.4,1.2-1.1
		c0-0.7-0.4-1-1.6-1.4c-0.9-0.3-1.7-0.8-1.7-1.9c0-1,0.9-1.7,2.1-1.7c0.6,0,1.1,0.2,1.5,0.5l0.3-0.5h0.1v2.3h-0.2
		c-0.4-1.4-0.9-2.1-1.6-2.1c-0.8,0-1.1,0.5-1.1,1c0,0.7,0.4,1,1.5,1.4c0.9,0.3,1.8,0.8,1.8,1.9C251.9,473.9,250.9,474.6,249.7,474.6
		z"/>
	<path fill="#FFFFFF" d="M255,474.6c-0.8,0-1.3-0.2-1.8-0.6l-0.3,0.6h-0.1v-2.5h0.2c0.4,1.7,1.1,2.3,2,2.3c0.7,0,1.2-0.4,1.2-1.1
		c0-0.7-0.4-1-1.6-1.4c-0.9-0.3-1.7-0.8-1.7-1.9c0-1,0.9-1.7,2.1-1.7c0.6,0,1.1,0.2,1.5,0.5l0.3-0.5h0.1v2.3h-0.2
		c-0.4-1.4-0.9-2.1-1.6-2.1c-0.8,0-1.1,0.5-1.1,1c0,0.7,0.4,1,1.5,1.4c0.9,0.3,1.8,0.8,1.8,1.9C257.2,473.9,256.2,474.6,255,474.6z"
		/>
	<path fill="#FFFFFF" d="M265.2,474.6c-0.7,0-1-0.3-1.1-1.3c-0.3,0.8-1,1.3-1.9,1.3c-1,0-1.7-0.5-1.7-1.4c0-1.4,1.9-1.8,3.5-2v-1.3
		c0-1.1-0.2-1.5-1.1-1.5c-0.7,0-1.1,0.3-1.1,0.6c0,0.4,0.6,0.3,0.6,0.9c0,0.4-0.3,0.7-0.8,0.7c-0.5,0-0.8-0.4-0.8-0.9
		c0-0.9,0.9-1.5,2.1-1.5c1.4,0,2.3,0.6,2.3,2l0,3.2c0,0.5,0.1,0.7,0.4,0.7c0.3,0,0.5-0.3,0.6-1.2h0.2
		C266.3,474.1,266,474.6,265.2,474.6z M263.9,472.7v-1.3c-1.4,0.2-2.2,0.5-2.2,1.7c0,0.7,0.4,1.1,1,1.1
		C263.3,474.1,263.9,473.7,263.9,472.7z"/>
	<path fill="#FFFFFF" d="M266.5,474.2l0.4-0.1c0.5-0.1,0.6-0.2,0.6-0.7v-3.6c0-0.6-0.2-0.7-0.8-0.8l-0.4,0v-0.2l2.1-0.5l0.2,0.1
		c0,0.9-0.1,2.1-0.1,3.2c0-1.9,0.8-3.3,2.2-3.3c1,0,1.8,0.6,1.8,1.8v3.3c0,0.5,0.1,0.6,0.6,0.7l0.4,0.1v0.2c-0.6,0-1,0-1.6,0
		c-0.6,0-1.1,0-1.7,0v-0.2l0.4-0.1c0.5-0.1,0.6-0.2,0.6-0.7v-3.3c0-1-0.3-1.5-1-1.5c-0.9,0-1.6,1.1-1.6,2.9v1.9
		c0,0.5,0.1,0.6,0.6,0.7l0.4,0.1v0.2c-0.6,0-1,0-1.6,0c-0.6,0-1.1,0-1.6,0V474.2z"/>
	<path fill="#FFFFFF" d="M276.6,474.6c-1.3,0-2.6-1.1-2.6-3.1c0-2.2,1.7-3.2,3-3.2c0.5,0,1,0.1,1.4,0.3v-2.3c0-0.5-0.2-0.7-0.7-0.7
		l-0.6-0.1v-0.1l2.4-0.5l0.2,0.1c-0.1,0.4-0.1,1-0.1,1.4v7c0,0.5,0.1,0.6,0.6,0.7l0.4,0.1v0.2h-1.9l-0.2-0.1v-2.5
		C278.5,473.8,277.8,474.6,276.6,474.6z M278.4,471.8v-2.6c-0.3-0.6-0.9-0.8-1.4-0.8c-1.1,0-1.6,1.1-1.6,3c0,1.8,0.5,2.8,1.5,2.8
		C277.7,474.3,278.4,473.6,278.4,471.8z"/>
</g>
</svg>
