<?xml version="1.0" encoding="utf-8"?>
<!-- Generator: Adobe Illustrator 17.1.0, SVG Export Plug-In . SVG Version: 6.00 Build 0)  -->
<!DOCTYPE svg PUBLIC "-//W3C//DTD SVG 1.1 Tiny//EN" "http://www.w3.org/Graphics/SVG/1.1/DTD/svg11-tiny.dtd">
<svg version="1.1" baseProfile="tiny" id="Layer_1" xmlns="http://www.w3.org/2000/svg" xmlns:xlink="http://www.w3.org/1999/xlink"
	 x="0px" y="0px" width="800px" height="600px" viewBox="240 60 800 600" xml:space="preserve">
<path fill="#FFFFFF" d="M357.9,103.3V92.6h47.3v10.7H388v47.1h-12.7v-47.1H357.9z"/>
<path fill="#FFFFFF" d="M405.6,92.6h14.2l13.5,22.8l13.4-22.8h14.1l-21.4,35.6v22.1h-12.7v-22.5L405.6,92.6z"/>
<path fill="#FFFFFF" d="M491.9,92.6c3.6,0,6.7,0.5,9.2,1.6c2.5,1.1,4.6,2.4,6.2,4.1s2.8,3.7,3.5,5.9c0.7,2.2,1.1,4.5,1.1,6.8
	s-0.4,4.6-1.1,6.8s-1.9,4.2-3.5,5.9s-3.7,3.2-6.2,4.1c-2.5,1.1-5.6,1.6-9.2,1.6h-13.3v20.7h-12.7V92.6H491.9z M488.3,119.7
	c1.4,0,2.9-0.1,4.2-0.4c1.4-0.2,2.5-0.6,3.6-1.3c1-0.6,1.9-1.5,2.4-2.6c0.6-1.2,0.9-2.6,0.9-4.4c0-1.8-0.3-3.3-0.9-4.4
	c-0.6-1.2-1.4-2-2.4-2.6c-1-0.6-2.2-1.1-3.6-1.3s-2.8-0.4-4.2-0.4h-9.9v17.3C478.4,119.7,488.3,119.7,488.3,119.7z"/>
<path fill="#FFFFFF" d="M519.2,109.7c1.3-3.7,3.2-6.9,5.6-9.6c2.4-2.8,5.4-4.9,8.9-6.5c3.5-1.5,7.5-2.3,12-2.3s8.5,0.8,12,2.3
	s6.5,3.7,8.9,6.5c2.4,2.8,4.3,5.9,5.6,9.6c1.3,3.7,2,7.7,2,12c0,4.2-0.6,8.1-2,11.8c-1.3,3.7-3.1,6.8-5.6,9.5
	c-2.4,2.7-5.4,4.8-8.9,6.4c-3.5,1.5-7.5,2.3-12,2.3c-4.4,0-8.4-0.8-12-2.3c-3.5-1.5-6.5-3.7-8.9-6.4c-2.4-2.7-4.3-5.9-5.6-9.5
	c-1.3-3.6-2-7.6-2-11.8C517.2,117.4,517.9,113.4,519.2,109.7z M530.8,128.7c0.5,2.2,1.4,4.3,2.7,6.2c1.3,1.8,2.9,3.3,4.9,4.4
	c2,1.1,4.4,1.6,7.3,1.6c2.9,0,5.3-0.5,7.3-1.6c2-1.1,3.6-2.6,4.9-4.4s2.2-3.9,2.7-6.2c0.5-2.2,0.8-4.7,0.8-7.1c0-2.5-0.3-5-0.8-7.4
	c-0.5-2.3-1.4-4.5-2.7-6.4s-2.9-3.3-4.9-4.4c-2-1.1-4.4-1.6-7.3-1.6s-5.3,0.5-7.3,1.6s-3.6,2.6-4.9,4.4c-1.3,1.9-2.2,4-2.7,6.4
	c-0.5,2.3-0.8,4.9-0.8,7.4C529.9,124.2,530.2,126.5,530.8,128.7z"/>
<path fill="#FFFFFF" d="M616.9,149.9c-2.8,1.2-5.5,1.7-8.4,1.7c-4.4,0-8.4-0.8-12-2.3c-3.5-1.5-6.5-3.7-8.9-6.4
	c-2.4-2.7-4.3-5.8-5.6-9.5c-1.3-3.6-2-7.6-2-11.8c0-4.3,0.6-8.3,2-12c1.3-3.7,3.2-6.9,5.6-9.6c2.4-2.8,5.4-5,8.9-6.5s7.5-2.3,12-2.3
	c3,0,5.8,0.4,8.6,1.3s5.3,2.2,7.6,4c2.2,1.7,4,3.9,5.6,6.4c1.4,2.5,2.3,5.5,2.7,8.7h-12.2c-0.7-3.2-2.2-5.7-4.4-7.3
	c-2.2-1.6-4.8-2.4-7.8-2.4c-2.9,0-5.3,0.5-7.3,1.6s-3.6,2.6-4.9,4.4c-1.3,1.9-2.2,4-2.7,6.4c-0.5,2.3-0.8,4.9-0.8,7.4
	c0,2.4,0.3,4.8,0.8,7.1c0.5,2.2,1.4,4.3,2.7,6.2c1.3,1.8,2.9,3.3,4.9,4.4c2,1.1,4.4,1.6,7.3,1.6c4.2,0,7.5-1.1,9.7-3.1
	c2.2-2.2,3.6-5.2,4-9.3h-12.8v-9.5h24.3v31.2h-8.1l-1.3-6.6C622.1,146.7,619.6,148.7,616.9,149.9z"/>
<path fill="#FFFFFF" d="M675.2,92.6c2.6,0,4.9,0.5,7,1.3c2.1,0.8,3.9,2,5.3,3.4c1.4,1.4,2.6,3.2,3.4,5c0.8,1.9,1.2,4,1.2,6.2
	c0,3.4-0.7,6.3-2.2,8.8c-1.4,2.5-3.8,4.4-7,5.7v0.2c1.5,0.5,2.9,1.1,3.9,2s1.9,2,2.5,3.2c0.6,1.2,1.1,2.5,1.4,4
	c0.3,1.4,0.5,2.9,0.6,4.4c0.1,0.9,0.1,2,0.2,3.2c0.1,1.3,0.2,2.5,0.3,3.8c0.1,1.3,0.4,2.5,0.6,3.7c0.3,1.2,0.7,2.2,1.4,3H681
	c-0.7-1.8-1.2-4.1-1.3-6.6c-0.2-2.5-0.4-4.9-0.7-7.3c-0.4-3.1-1.3-5.2-2.8-6.7c-1.4-1.4-3.7-2.1-6.8-2.1h-12.7v22.6H644V92.6H675.2z
	 M670.6,118.7c2.9,0,5.1-0.6,6.6-2c1.4-1.3,2.2-3.4,2.2-6.3c0-2.8-0.7-4.9-2.2-6.1c-1.4-1.3-3.6-1.9-6.6-1.9h-13.9v16.3H670.6z"/>
<path fill="#FFFFFF" d="M731.2,92.6l21.6,57.8h-13.1l-4.4-12.9h-21.6l-4.5,12.9h-12.8l21.9-57.8H731.2z M731.9,128l-7.3-21.2h-0.2
	l-7.6,21.2H731.9z"/>
<path fill="#FFFFFF" d="M783.8,92.6c3.6,0,6.7,0.5,9.2,1.6s4.6,2.4,6.2,4.1c1.6,1.7,2.8,3.7,3.5,5.9s1.1,4.5,1.1,6.8
	s-0.4,4.6-1.1,6.8c-0.7,2.2-1.9,4.2-3.5,5.9c-1.6,1.7-3.7,3.2-6.2,4.1c-2.5,1.1-5.6,1.6-9.2,1.6h-13.3v20.7h-12.7V92.6H783.8z
	 M780.4,119.7c1.4,0,2.9-0.1,4.2-0.4c1.3-0.2,2.5-0.6,3.6-1.3c1-0.6,1.9-1.5,2.4-2.6c0.6-1.2,0.9-2.6,0.9-4.4c0-1.8-0.3-3.3-0.9-4.4
	c-0.6-1.2-1.4-2-2.4-2.6c-1-0.6-2.2-1.1-3.6-1.3s-2.8-0.4-4.2-0.4h-9.9v17.3C770.5,119.7,780.4,119.7,780.4,119.7z"/>
<path fill="#FFFFFF" d="M824.4,92.6v22.1h23.4V92.6h12.7v57.8h-12.7v-24.9h-23.4v24.9h-12.7V92.6H824.4z"/>
<path fill="#FFFFFF" d="M865.5,92.6h14.2l13.5,22.8l13.4-22.8h14.1l-21.4,35.6v22.1h-12.7v-22.5L865.5,92.6z"/>
<path fill="#FFFFFF" d="M377.2,185.5v64.2h-14.1v-64.2H377.2z"/>
<path fill="#FFFFFF" d="M409.1,233.9c0.8,1.5,1.8,2.7,3.1,3.6c1.3,0.9,2.8,1.6,4.5,2.1s3.5,0.6,5.4,0.6c1.3,0,2.6-0.1,4.1-0.3
	c1.4-0.2,2.8-0.6,4-1.2c1.3-0.6,2.3-1.4,3.1-2.4c0.8-1.1,1.3-2.3,1.3-4c0-1.7-0.5-3.2-1.6-4.2c-1.1-1.1-2.5-2-4.3-2.7
	c-1.8-0.7-3.9-1.3-6.1-1.9s-4.6-1.2-6.9-1.8c-2.4-0.6-4.8-1.3-7-2.2c-2.2-0.9-4.3-2-6.1-3.3c-1.8-1.4-3.2-3.1-4.3-5.1
	c-1.1-2.1-1.6-4.6-1.6-7.5c0-3.3,0.7-6.1,2.1-8.5c1.4-2.4,3.2-4.4,5.5-6c2.2-1.6,4.9-2.8,7.7-3.6s5.8-1.2,8.6-1.2
	c3.3,0,6.6,0.4,9.6,1.1c3.1,0.7,5.8,2,8.2,3.6c2.4,1.7,4.3,3.8,5.7,6.4c1.4,2.6,2.1,5.8,2.1,9.4h-13.7c-0.1-1.9-0.5-3.5-1.2-4.8
	c-0.7-1.3-1.6-2.2-2.7-3c-1.2-0.7-2.4-1.3-3.9-1.5c-1.4-0.3-3.1-0.4-4.8-0.4c-1.2,0-2.2,0.1-3.4,0.4c-1.2,0.3-2.2,0.6-3.1,1.3
	c-0.9,0.6-1.7,1.4-2.2,2.2c-0.6,0.9-0.9,2.1-0.9,3.4c0,1.3,0.3,2.2,0.7,3.1c0.5,0.8,1.4,1.5,2.8,2.2c1.4,0.6,3.3,1.3,5.9,2
	c2.5,0.6,5.8,1.5,9.7,2.5c1.2,0.3,2.9,0.6,4.9,1.3c2.2,0.6,4.2,1.6,6.3,3c2.1,1.3,3.9,3.2,5.4,5.5c1.5,2.3,2.2,5.2,2.2,8.8
	c0,3-0.5,5.7-1.7,8.2s-2.8,4.7-5,6.5s-5,3.2-8.4,4.2c-3.3,1-7.2,1.5-11.5,1.5c-3.5,0-6.9-0.4-10.3-1.3c-3.3-0.9-6.3-2.2-8.8-4.1
	c-2.5-1.9-4.6-4.2-6-7.1c-1.5-2.9-2.2-6.3-2.2-10.3H408C408,230.5,408.4,232.4,409.1,233.9z"/>
<path fill="#FFFFFF" d="M357.6,282.1v-6.8h29.6v6.7h-10.8v29.4h-7.9V282L357.6,282.1L357.6,282.1z"/>
<path fill="#FFFFFF" d="M398.7,275.4v13.9h14.6v-13.9h7.9v36.1h-7.9v-15.6h-14.6v15.6h-7.9v-36.1H398.7z"/>
<path fill="#FFFFFF" d="M453.2,275.4v6.7h-19.1v7.7h17.5v6.2h-17.5v8.8h19.4v6.7h-27.4v-36.1H453.2z"/>
<path fill="#FFFFFF" d="M549.2,182.8c6.1,0,11.7,0.5,16.7,1.6s9.4,2.9,13,5.3c3.6,2.4,6.4,5.8,8.4,9.8c2,4.1,3,9.1,3,15.1
	c0,6.5-1.4,11.9-4.4,16.2c-3,4.3-7.3,7.8-13,10.6c7.9,2.2,13.9,6.3,17.7,12s5.9,12.6,5.9,20.6c0,6.5-1.3,12.1-3.8,16.8
	c-2.5,4.8-5.9,8.6-10.2,11.6c-4.2,3-9.1,5.2-14.6,6.7s-11.1,2.2-16.8,2.2h-62.4V182.7h60.6V182.8z M545.6,234.9
	c5,0,9.2-1.2,12.4-3.6c3.2-2.4,4.9-6.3,4.9-11.7c0-3-0.5-5.5-1.6-7.4c-1.1-1.9-2.5-3.4-4.3-4.5s-3.9-1.8-6.2-2.2
	c-2.3-0.4-4.8-0.6-7.3-0.6H517v30.1H545.6z M547.2,289.6c2.8,0,5.4-0.3,7.9-0.8c2.5-0.5,4.8-1.4,6.7-2.7c1.9-1.3,3.4-3,4.6-5.1
	s1.7-5,1.7-8.3c0-6.6-1.9-11.3-5.6-14.1c-3.7-2.8-8.6-4.2-14.8-4.2H517v35.4L547.2,289.6L547.2,289.6z"/>
<path fill="#FFFFFF" d="M704.6,182.8v23.8h-68v27.5H699v22h-62.4v31.5h69.4v23.8h-97.7V182.7h96.3V182.8z"/>
<path fill="#FFFFFF" d="M739.5,279.8c1.5,3,3.6,5.4,6.2,7.3c2.6,1.9,5.6,3.2,9.1,4.1c3.5,0.9,7.1,1.4,10.8,1.4
	c2.5,0,5.2-0.2,8.1-0.6c2.9-0.5,5.6-1.3,8.1-2.4c2.5-1.2,4.6-2.9,6.3-5c1.7-2.1,2.5-4.8,2.5-8c0-3.5-1.1-6.3-3.3-8.5s-5.1-4-8.7-5.4
	c-3.6-1.4-7.7-2.7-12.2-3.8c-4.6-1.1-9.2-2.2-13.9-3.6c-4.8-1.2-9.5-2.7-14-4.4c-4.6-1.7-8.6-4-12.2-6.8c-3.6-2.8-6.5-6.2-8.7-10.3
	c-2.2-4.1-3.3-9.2-3.3-15c0-6.6,1.4-12.3,4.2-17.2s6.5-8.9,11.1-12.2s9.7-5.7,15.5-7.2c5.8-1.5,11.5-2.3,17.3-2.3
	c6.8,0,13.2,0.7,19.4,2.2c6.2,1.5,11.7,4,16.5,7.3s8.6,7.7,11.4,12.9c2.8,5.2,4.2,11.6,4.2,19h-27.4c-0.3-3.9-1.1-7-2.4-9.5
	c-1.4-2.5-3.2-4.5-5.5-5.9s-4.9-2.4-7.8-3.1c-3-0.6-6.1-0.9-9.6-0.9c-2.2,0-4.6,0.3-6.8,0.7s-4.3,1.3-6.2,2.5
	c-1.9,1.2-3.4,2.7-4.6,4.5c-1.2,1.8-1.8,4-1.8,6.8c0,2.5,0.4,4.6,1.4,6.1s2.9,3,5.7,4.3c2.8,1.4,6.8,2.6,11.7,4c5,1.3,11.5,3,19.5,5
	c2.4,0.5,5.8,1.4,10,2.6s8.5,3.2,12.7,6c4.2,2.8,7.8,6.5,10.9,11.1c3.1,4.6,4.6,10.5,4.6,17.7c0,5.9-1.2,11.3-3.4,16.4
	c-2.2,5-5.7,9.4-10.2,13s-10.1,6.5-16.7,8.5c-6.7,2.1-14.4,3.1-23.1,3.1c-7.1,0-14-0.9-20.6-2.6s-12.6-4.5-17.6-8.2
	c-5.1-3.7-9.2-8.5-12.2-14.2c-3-5.8-4.4-12.6-4.3-20.5h27.4C737.2,273.1,738,276.8,739.5,279.8z"/>
<path fill="#FFFFFF" d="M817.7,206.6v-23.8h105.5v23.8h-38.6v104.9h-28.3V206.6H817.7z"/>
<path fill="#FFFFFF" d="M407.3,350.1c5.8,0,10.7,0.8,14.8,2.5c4.1,1.7,7.4,3.9,9.9,6.7s4.4,5.9,5.6,9.5c1.2,3.5,1.7,7.2,1.7,11
	c0,3.7-0.5,7.4-1.7,10.9c-1.2,3.6-3,6.8-5.6,9.4c-2.5,2.8-5.9,5-9.9,6.7c-4,1.7-9,2.5-14.8,2.5H386v33h-20.2v-92.2H407.3z
	 M401.9,393.5c2.3,0,4.6-0.2,6.8-0.5c2.2-0.4,4.1-1,5.7-2c1.6-1,3-2.4,4-4.2c1-1.8,1.5-4.1,1.5-7.1c0-3-0.5-5.3-1.5-7.1
	c-1-1.8-2.3-3.2-4-4.2c-1.6-1-3.5-1.6-5.7-2c-2.2-0.4-4.4-0.5-6.8-0.5h-15.8v27.6L401.9,393.5L401.9,393.5z"/>
<path fill="#FFFFFF" d="M472.2,350.1v92.2H452v-92.2H472.2z"/>
<path fill="#FFFFFF" d="M549.2,374.7c-1.2-2-2.7-3.6-4.5-5.1c-1.8-1.4-3.9-2.6-6.1-3.4s-4.7-1.3-7.2-1.3c-4.6,0-8.5,0.9-11.6,2.6
	c-3.2,1.8-5.8,4.1-7.7,7.1c-2,3-3.4,6.4-4.3,10.2c-0.9,3.8-1.4,7.7-1.4,11.8c0,3.9,0.4,7.6,1.4,11.3c0.9,3.7,2.3,6.9,4.3,9.9
	c2,3,4.6,5.3,7.7,7c3.1,1.8,7,2.6,11.6,2.6c6.2,0,11.1-1.9,14.5-5.7c3.5-3.8,5.6-8.8,6.4-14.9h19.6c-0.5,5.8-1.9,11-4,15.7
	c-2.2,4.7-5,8.6-8.5,11.9c-3.5,3.2-7.7,5.8-12.4,7.5c-4.8,1.7-9.9,2.6-15.7,2.6c-7,0-13.4-1.3-19.1-3.7c-5.7-2.4-10.4-5.9-14.3-10.2
	c-3.9-4.3-6.8-9.4-8.9-15.2c-2.1-5.9-3.1-12.1-3.1-18.8c0-6.9,1-13.3,3.1-19.2c2.1-5.9,5-11.1,8.9-15.4c3.9-4.4,8.6-7.8,14.3-10.4
	s12-3.8,19.1-3.8c5,0,9.9,0.7,14.4,2.2c4.5,1.4,8.5,3.6,12.1,6.4c3.6,2.8,6.5,6.3,8.8,10.4c2.3,4.1,3.8,8.9,4.4,14.2h-19.6
	C551.2,378.9,550.5,376.7,549.2,374.7z"/>
<path fill="#FFFFFF" d="M578.5,367.2v-17h75.6v17h-27.6v75.2h-20.2v-75.2H578.5z"/>
<path fill="#FFFFFF" d="M732.5,435.4c-6.9,6-16.7,9.1-28.9,9.1c-12.5,0-22.1-3-29-9s-10.3-15.3-10.3-27.9v-57.3h20.2v57.3
	c0,2.5,0.2,4.9,0.6,7.4c0.4,2.4,1.3,4.5,2.7,6.4c1.4,1.9,3.3,3.3,5.8,4.5c2.4,1.2,5.8,1.7,9.9,1.7c7.2,0,12.2-1.6,14.9-4.9
	c2.8-3.2,4.1-8.3,4.1-15.2v-57.3H743v57.3C743,420,739.5,429.3,732.5,435.4z"/>
<path fill="#FFFFFF" d="M810.1,350.1c4.1,0,7.8,0.6,11.2,2c3.3,1.3,6.1,3.1,8.5,5.5c2.3,2.3,4.1,5,5.4,8.1s1.9,6.4,1.9,9.9
	c0,5.4-1.2,10.1-3.4,14s-6,6.9-11.2,9v0.3c2.5,0.7,4.6,1.7,6.2,3.1s3,3.1,4,5c1,2,1.8,4.1,2.2,6.4c0.4,2.3,0.8,4.7,1,6.9
	c0.1,1.4,0.2,3.2,0.3,5.1s0.3,4,0.5,6c0.2,2.1,0.5,4,1,5.9c0.5,1.9,1.2,3.4,2.2,4.7h-20.2c-1.1-3-1.8-6.4-2.1-10.4
	c-0.3-4-0.6-7.9-1.2-11.6c-0.7-4.9-2.2-8.4-4.4-10.6s-5.9-3.3-11-3.3h-20.2v36h-20.2v-92H810.1z M802.9,391.9c4.7,0,8.1-1,10.4-3.1
	c2.3-2.1,3.5-5.4,3.5-10.1c0-4.5-1.2-7.7-3.5-9.7c-2.3-2-5.8-3.1-10.4-3.1h-22.2v25.9H802.9z"/>
<path fill="#FFFFFF" d="M922.6,350.1v17h-48.7V387h44.7v15.8h-44.7v22.6h49.7v17h-70v-92.2H922.6z"/>
<path fill="#FFFFFF" d="M361.9,499.2c1.3-3.7,3.2-6.9,5.6-9.7c2.4-2.8,5.4-5,9-6.5c3.5-1.5,7.6-2.3,12-2.3c4.5,0,8.5,0.8,12.1,2.3
	c3.5,1.5,6.5,3.8,9,6.5c2.4,2.8,4.3,6,5.6,9.7s2,7.7,2,12.1c0,4.2-0.6,8.2-2,11.9c-1.3,3.7-3.1,6.8-5.6,9.5c-2.4,2.7-5.4,4.9-9,6.4
	c-3.5,1.5-7.6,2.3-12.1,2.3c-4.4,0-8.5-0.8-12-2.3c-3.6-1.5-6.6-3.7-9-6.4c-2.4-2.7-4.3-5.9-5.6-9.5c-1.3-3.7-2-7.7-2-11.9
	C360,506.9,360.6,502.9,361.9,499.2z M373.6,518.4c0.5,2.3,1.4,4.4,2.7,6.2c1.3,1.9,2.9,3.3,4.9,4.4c2,1.1,4.4,1.7,7.3,1.7
	c2.9,0,5.3-0.5,7.3-1.7c2-1.1,3.6-2.6,4.9-4.4c1.3-1.8,2.2-4,2.7-6.2c0.5-2.3,0.8-4.7,0.8-7.1c0-2.5-0.3-5-0.8-7.4
	c-0.5-2.4-1.4-4.5-2.7-6.4c-1.3-1.9-2.9-3.3-4.9-4.5c-2-1.1-4.4-1.7-7.3-1.7c-2.9,0-5.3,0.5-7.3,1.7c-2,1.1-3.6,2.6-4.9,4.5
	c-1.3,1.9-2.2,4-2.7,6.4c-0.5,2.4-0.8,4.9-0.8,7.4C372.8,513.7,373.1,516.1,373.6,518.4z"/>
<path fill="#FFFFFF" d="M466.7,481.9v10.7h-28.1V506h24.4v9.9h-24.4v24h-12.8v-58.1L466.7,481.9L466.7,481.9z"/>
<path fill="#FFFFFF" d="M391.5,570.6l21.8,58.1h-13.2l-4.4-13h-21.8l-4.6,13h-12.9l22-58.1H391.5z M392.2,606.4l-7.3-21.4h-0.2
	l-7.6,21.3L392.2,606.4L392.2,606.4z"/>
<path fill="#FFFFFF" d="M431,570.6l24.3,39h0.2v-39h12v58.1h-12.8l-24.2-38.9h-0.2v38.9h-12v-58.1H431z"/>
<path fill="#FFFFFF" d="M620.6,480.9v27.4h-78.1V540h71.7v25.3h-71.7v36.3h79.7v27.4H509.9v-148H620.6z"/>
<path fill="#FFFFFF" d="M724,480.9c6.7,0,12.6,1.1,17.9,3.2c5.3,2.2,9.9,5,13.7,8.8c3.8,3.7,6.7,8,8.7,13c2,4.9,3,10.2,3,15.8
	c0,8.7-1.8,16.2-5.5,22.6c-3.7,6.4-9.6,11.2-17.9,14.5v0.5c4,1.1,7.3,2.8,10,5c2.6,2.2,4.8,5,6.4,8.1c1.6,3.1,2.9,6.6,3.6,10.3
	c0.7,3.7,1.3,7.5,1.5,11.2c0.2,2.3,0.3,5.1,0.5,8.3c0.2,3.2,0.4,6.4,0.7,9.7c0.4,3.3,0.9,6.5,1.6,9.4c0.7,3,1.9,5.5,3.4,7.6h-32.5
	c-1.8-4.7-2.9-10.3-3.3-16.7s-1.1-12.7-1.9-18.6c-1.1-7.7-3.4-13.4-7-17c-3.6-3.6-9.4-5.4-17.6-5.4h-32.5v57.8h-32.6v-148H724z
	 M712.4,547.9c7.5,0,13-1.6,16.7-5c3.7-3.3,5.6-8.7,5.6-16.2c0-7.2-1.9-12.4-5.6-15.7c-3.7-3.2-9.4-4.9-16.7-4.9h-35.6v41.7
	L712.4,547.9L712.4,547.9z"/>
<path fill="#FFFFFF" d="M867.5,480.9l55.3,148h-33.8L878,595.9h-55.3L811,628.9h-32.8l56-148H867.5z M869.4,571.6l-18.6-54.3h-0.5
	l-19.3,54.3H869.4z"/>
</svg>
