<?xml version="1.0" encoding="utf-8"?>
<!-- Generator: Adobe Illustrator 17.1.0, SVG Export Plug-In . SVG Version: 6.00 Build 0)  -->
<!DOCTYPE svg PUBLIC "-//W3C//DTD SVG 1.1 Tiny//EN" "http://www.w3.org/Graphics/SVG/1.1/DTD/svg11-tiny.dtd">
<svg version="1.1" baseProfile="tiny" id="Layer_1" xmlns="http://www.w3.org/2000/svg" xmlns:xlink="http://www.w3.org/1999/xlink"
	 x="0px" y="0px" width="1280px" height="720px" viewBox="0 0 1280 720" xml:space="preserve">
<path fill="#FFFFFF" d="M324,66.8V54.9h52.6v11.9h-19.2v52.3h-14.1V66.8H324z"/>
<path fill="#FFFFFF" d="M377,54.9h15.8l15,25.3l14.9-25.3h15.7l-23.8,39.5v24.6h-14.1v-25L377,54.9z"/>
<path fill="#FFFFFF" d="M472.8,54.9c4,0,7.4,0.6,10.2,1.8c2.8,1.2,5.1,2.7,6.9,4.6c1.8,1.9,3.1,4.1,3.9,6.6c0.8,2.5,1.2,5,1.2,7.6
	c0,2.6-0.4,5.1-1.2,7.6c-0.8,2.5-2.1,4.7-3.9,6.6c-1.8,1.9-4.1,3.5-6.9,4.6c-2.8,1.2-6.2,1.8-10.2,1.8H458v23h-14.1V54.9H472.8z
	 M468.9,85.1c1.6,0,3.2-0.1,4.7-0.4c1.5-0.2,2.8-0.7,4-1.4c1.1-0.7,2.1-1.7,2.7-2.9c0.7-1.3,1-2.9,1-4.9c0-2-0.3-3.7-1-4.9
	c-0.7-1.3-1.6-2.2-2.7-2.9c-1.1-0.7-2.5-1.2-4-1.4c-1.5-0.2-3.1-0.4-4.7-0.4h-11v19.2H468.9z"/>
<path fill="#FFFFFF" d="M503.2,73.9c1.4-4.1,3.5-7.7,6.2-10.7c2.7-3.1,6-5.5,9.9-7.2c3.9-1.7,8.3-2.6,13.3-2.6c5,0,9.4,0.9,13.3,2.6
	c3.9,1.7,7.2,4.1,9.9,7.2c2.7,3.1,4.8,6.6,6.2,10.7c1.4,4.1,2.2,8.6,2.2,13.3c0,4.7-0.7,9-2.2,13.1s-3.5,7.6-6.2,10.6
	c-2.7,3-6,5.3-9.9,7.1c-3.9,1.7-8.3,2.6-13.3,2.6c-4.9,0-9.3-0.9-13.3-2.6c-3.9-1.7-7.2-4.1-9.9-7.1c-2.7-3-4.8-6.5-6.2-10.6
	c-1.4-4-2.2-8.4-2.2-13.1C501,82.5,501.7,78,503.2,73.9z M516.1,95.1c0.6,2.5,1.6,4.8,3,6.9c1.4,2,3.2,3.7,5.4,4.9
	c2.2,1.2,4.9,1.8,8.1,1.8c3.2,0,5.9-0.6,8.1-1.8c2.2-1.2,4-2.9,5.4-4.9c1.4-2,2.4-4.3,3-6.9c0.6-2.5,0.9-5.2,0.9-7.9
	c0-2.8-0.3-5.5-0.9-8.2c-0.6-2.6-1.6-5-3-7.1c-1.4-2.1-3.2-3.7-5.4-4.9c-2.2-1.2-4.9-1.8-8.1-1.8c-3.2,0-5.9,0.6-8.1,1.8
	c-2.2,1.2-4,2.9-5.4,4.9c-1.4,2.1-2.4,4.4-3,7.1c-0.6,2.6-0.9,5.4-0.9,8.2C515.1,90,515.4,92.6,516.1,95.1z"/>
<path fill="#FFFFFF" d="M611.7,118.6c-3.1,1.3-6.1,1.9-9.3,1.9c-4.9,0-9.3-0.9-13.3-2.6c-3.9-1.7-7.2-4.1-9.9-7.1
	c-2.7-3-4.8-6.5-6.2-10.6c-1.4-4-2.2-8.4-2.2-13.1c0-4.8,0.7-9.2,2.2-13.3c1.4-4.1,3.5-7.7,6.2-10.7c2.7-3.1,6-5.5,9.9-7.2
	c3.9-1.7,8.3-2.6,13.3-2.6c3.3,0,6.5,0.5,9.6,1.5c3.1,1,5.9,2.4,8.4,4.4c2.5,1.9,4.5,4.3,6.2,7.1c1.6,2.8,2.6,6.1,3,9.7H616
	c-0.8-3.6-2.5-6.3-4.9-8.1c-2.4-1.8-5.3-2.7-8.7-2.7c-3.2,0-5.9,0.6-8.1,1.8c-2.2,1.2-4,2.9-5.4,4.9c-1.4,2.1-2.4,4.4-3,7.1
	c-0.6,2.6-0.9,5.4-0.9,8.2c0,2.7,0.3,5.3,0.9,7.9c0.6,2.5,1.6,4.8,3,6.9c1.4,2,3.2,3.7,5.4,4.9c2.2,1.2,4.9,1.8,8.1,1.8
	c4.7,0,8.3-1.2,10.8-3.5c2.5-2.4,4-5.8,4.4-10.3h-14.2V84.4h27v34.7h-9l-1.4-7.3C617.5,115,614.7,117.3,611.7,118.6z"/>
<path fill="#FFFFFF" d="M676.5,54.9c2.9,0,5.5,0.5,7.8,1.4c2.3,0.9,4.3,2.2,5.9,3.8c1.6,1.6,2.9,3.5,3.8,5.6
	c0.9,2.1,1.3,4.4,1.3,6.9c0,3.8-0.8,7-2.4,9.8c-1.6,2.8-4.2,4.9-7.8,6.3v0.2c1.7,0.5,3.2,1.2,4.3,2.2c1.1,1,2.1,2.2,2.8,3.5
	c0.7,1.3,1.2,2.8,1.6,4.4c0.3,1.6,0.6,3.2,0.7,4.9c0.1,1,0.1,2.2,0.2,3.6c0.1,1.4,0.2,2.8,0.3,4.2c0.1,1.4,0.4,2.8,0.7,4.1
	c0.3,1.3,0.8,2.4,1.5,3.3H683c-0.8-2-1.3-4.5-1.4-7.3c-0.2-2.8-0.4-5.5-0.8-8.1c-0.5-3.4-1.5-5.8-3.1-7.4c-1.6-1.6-4.1-2.3-7.6-2.3
	H656v25.1h-14.1V54.9H676.5z M671.4,83.9c3.2,0,5.7-0.7,7.3-2.2c1.6-1.4,2.4-3.8,2.4-7c0-3.1-0.8-5.4-2.4-6.8
	c-1.6-1.4-4-2.1-7.3-2.1H656v18.1H671.4z"/>
<path fill="#FFFFFF" d="M738.7,54.9l24,64.2h-14.6l-4.9-14.3h-24l-5,14.3H700l24.3-64.2H738.7z M739.5,94.3l-8.1-23.5h-0.2
	l-8.4,23.5H739.5z"/>
<path fill="#FFFFFF" d="M797.2,54.9c4,0,7.4,0.6,10.2,1.8c2.8,1.2,5.1,2.7,6.9,4.6c1.8,1.9,3.1,4.1,3.9,6.6c0.8,2.5,1.2,5,1.2,7.6
	c0,2.6-0.4,5.1-1.2,7.6c-0.8,2.5-2.1,4.7-3.9,6.6c-1.8,1.9-4.1,3.5-6.9,4.6c-2.8,1.2-6.2,1.8-10.2,1.8h-14.8v23h-14.1V54.9H797.2z
	 M793.4,85.1c1.6,0,3.2-0.1,4.7-0.4c1.5-0.2,2.8-0.7,4-1.4c1.1-0.7,2.1-1.7,2.7-2.9c0.7-1.3,1-2.9,1-4.9c0-2-0.3-3.7-1-4.9
	c-0.7-1.3-1.6-2.2-2.7-2.9c-1.1-0.7-2.5-1.2-4-1.4c-1.5-0.2-3.1-0.4-4.7-0.4h-11v19.2H793.4z"/>
<path fill="#FFFFFF" d="M842.3,54.9v24.6h26V54.9h14.1v64.2h-14.1V91.4h-26v27.7h-14.1V54.9H842.3z"/>
<path fill="#FFFFFF" d="M887.9,54.9h15.8l15,25.3l14.9-25.3h15.7l-23.8,39.5v24.6h-14.1v-25L887.9,54.9z"/>
<path fill="#FFFFFF" d="M345.4,158.2v71.3h-15.7v-71.3H345.4z"/>
<path fill="#FFFFFF" d="M380.9,211.9c0.9,1.7,2,3,3.4,4c1.4,1,3.1,1.8,5,2.3c1.9,0.5,3.9,0.7,6,0.7c1.4,0,2.9-0.1,4.5-0.3
	c1.6-0.2,3.1-0.7,4.5-1.3c1.4-0.7,2.6-1.6,3.5-2.7c0.9-1.2,1.4-2.6,1.4-4.4c0-1.9-0.6-3.5-1.8-4.7c-1.2-1.2-2.8-2.2-4.8-3
	c-2-0.8-4.3-1.5-6.8-2.1c-2.5-0.6-5.1-1.3-7.7-2c-2.7-0.7-5.3-1.5-7.8-2.4c-2.5-1-4.8-2.2-6.8-3.7c-2-1.5-3.6-3.4-4.8-5.7
	c-1.2-2.3-1.8-5.1-1.8-8.3c0-3.7,0.8-6.8,2.3-9.5c1.6-2.7,3.6-4.9,6.1-6.7c2.5-1.8,5.4-3.1,8.6-4c3.2-0.9,6.4-1.3,9.6-1.3
	c3.7,0,7.3,0.4,10.7,1.2c3.4,0.8,6.5,2.2,9.1,4c2.7,1.9,4.8,4.2,6.3,7.1c1.6,2.9,2.3,6.4,2.3,10.5h-15.2c-0.1-2.1-0.6-3.9-1.3-5.3
	c-0.8-1.4-1.8-2.5-3-3.3c-1.3-0.8-2.7-1.4-4.3-1.7c-1.6-0.3-3.4-0.5-5.3-0.5c-1.3,0-2.5,0.1-3.8,0.4c-1.3,0.3-2.4,0.7-3.4,1.4
	c-1,0.7-1.9,1.5-2.5,2.5c-0.7,1-1,2.3-1,3.8c0,1.4,0.3,2.5,0.8,3.4c0.5,0.9,1.6,1.7,3.1,2.4c1.6,0.7,3.7,1.5,6.5,2.2
	c2.8,0.7,6.4,1.7,10.8,2.8c1.3,0.3,3.2,0.7,5.5,1.4c2.4,0.7,4.7,1.8,7,3.3c2.3,1.5,4.3,3.6,6,6.1c1.7,2.6,2.5,5.8,2.5,9.8
	c0,3.3-0.6,6.3-1.9,9.1c-1.3,2.8-3.1,5.2-5.6,7.2c-2.5,2-5.6,3.6-9.3,4.7c-3.7,1.1-8,1.7-12.8,1.7c-3.9,0-7.7-0.5-11.4-1.4
	c-3.7-1-7-2.5-9.8-4.5c-2.8-2.1-5.1-4.7-6.7-7.9c-1.7-3.2-2.5-7-2.4-11.4h15.2C379.6,208.2,380.1,210.3,380.9,211.9z"/>
<path fill="#FFFFFF" d="M323.6,265.5V258h32.9v7.4h-12v32.7h-8.8v-32.7H323.6z"/>
<path fill="#FFFFFF" d="M369.3,258v15.4h16.2V258h8.8v40.1h-8.8v-17.3h-16.2v17.3h-8.8V258H369.3z"/>
<path fill="#FFFFFF" d="M429.8,258v7.4h-21.2v8.6h19.4v6.9h-19.4v9.8h21.6v7.4h-30.4V258H429.8z"/>
<path fill="#FFFFFF" d="M536.5,155.2c6.8,0,13,0.6,18.6,1.8c5.6,1.2,10.4,3.2,14.4,5.9c4,2.7,7.1,6.4,9.3,10.9
	c2.2,4.5,3.3,10.1,3.3,16.8c0,7.2-1.6,13.2-4.9,18c-3.3,4.8-8.1,8.7-14.5,11.8c8.8,2.5,15.4,7,19.7,13.3c4.3,6.3,6.5,14,6.5,22.9
	c0,7.2-1.4,13.5-4.2,18.7c-2.8,5.3-6.6,9.6-11.3,12.9c-4.7,3.3-10.1,5.8-16.2,7.4c-6.1,1.6-12.3,2.4-18.7,2.4h-69.3v-143H536.5z
	 M532.5,213.1c5.6,0,10.2-1.3,13.8-4c3.6-2.7,5.4-7,5.4-13c0-3.3-0.6-6.1-1.8-8.2c-1.2-2.1-2.8-3.8-4.8-5s-4.3-2-6.9-2.5
	c-2.6-0.5-5.3-0.7-8.1-0.7h-29.4v33.4H532.5z M534.3,273.8c3.1,0,6-0.3,8.8-0.9c2.8-0.6,5.3-1.6,7.4-3c2.1-1.4,3.8-3.3,5.1-5.7
	c1.3-2.4,1.9-5.5,1.9-9.2c0-7.3-2.1-12.6-6.2-15.7c-4.1-3.1-9.6-4.7-16.4-4.7h-34.2v39.3H534.3z"/>
<path fill="#FFFFFF" d="M709.2,155.2v26.4h-75.5v30.6H703v24.4h-69.3v35h77.1v26.4H602.2v-143H709.2z"/>
<path fill="#FFFFFF" d="M748,262.9c1.7,3.3,4,6,6.9,8.1c2.9,2.1,6.2,3.6,10.1,4.6c3.9,1,7.9,1.5,12,1.5c2.8,0,5.8-0.2,9-0.7
	c3.2-0.5,6.2-1.4,9-2.7c2.8-1.3,5.1-3.2,7-5.5c1.9-2.3,2.8-5.3,2.8-8.9c0-3.9-1.2-7-3.7-9.4c-2.5-2.4-5.7-4.4-9.7-6
	c-4-1.6-8.5-3-13.6-4.2c-5.1-1.2-10.2-2.5-15.4-4c-5.3-1.3-10.5-3-15.6-4.9c-5.1-1.9-9.6-4.4-13.6-7.5c-4-3.1-7.2-6.9-9.7-11.5
	c-2.5-4.6-3.7-10.2-3.7-16.7c0-7.3,1.6-13.7,4.7-19.1c3.1-5.4,7.2-9.9,12.3-13.5c5.1-3.6,10.8-6.3,17.2-8c6.4-1.7,12.8-2.6,19.2-2.6
	c7.5,0,14.7,0.8,21.5,2.5c6.9,1.7,13,4.4,18.3,8.1c5.3,3.7,9.6,8.5,12.7,14.3c3.1,5.8,4.7,12.9,4.7,21.1h-30.4
	c-0.3-4.3-1.2-7.8-2.7-10.6c-1.5-2.8-3.6-5-6.1-6.6c-2.5-1.6-5.4-2.7-8.7-3.4c-3.3-0.7-6.8-1-10.7-1c-2.5,0-5.1,0.3-7.6,0.8
	c-2.5,0.5-4.8,1.5-6.9,2.8c-2.1,1.3-3.8,3-5.1,5c-1.3,2-2,4.5-2,7.6c0,2.8,0.5,5.1,1.6,6.8c1.1,1.7,3.2,3.3,6.3,4.8
	c3.1,1.5,7.5,2.9,13,4.4c5.5,1.5,12.8,3.3,21.7,5.6c2.7,0.5,6.4,1.5,11.1,2.9c4.7,1.4,9.4,3.6,14.1,6.7c4.7,3.1,8.7,7.2,12.1,12.3
	c3.4,5.1,5.1,11.7,5.1,19.7c0,6.5-1.3,12.6-3.8,18.2c-2.5,5.6-6.3,10.4-11.3,14.5c-5,4.1-11.2,7.2-18.6,9.5
	c-7.4,2.3-16,3.4-25.7,3.4c-7.9,0-15.5-1-22.9-2.9c-7.4-1.9-14-5-19.6-9.1c-5.7-4.1-10.2-9.4-13.5-15.8c-3.3-6.4-4.9-14-4.8-22.8
	h30.4C745.4,255.5,746.3,259.6,748,262.9z"/>
<path fill="#FFFFFF" d="M834.8,181.6v-26.4h117.2v26.4h-42.9v116.6h-31.4V181.6H834.8z"/>
<path fill="#FFFFFF" d="M378.9,341.1c6.4,0,11.9,0.9,16.4,2.8c4.5,1.9,8.2,4.3,11,7.4c2.8,3.1,4.9,6.6,6.2,10.5
	c1.3,3.9,1.9,8,1.9,12.2c0,4.1-0.6,8.2-1.9,12.1c-1.3,4-3.3,7.5-6.2,10.5c-2.8,3.1-6.5,5.5-11,7.4c-4.5,1.9-10,2.8-16.4,2.8h-23.7
	v36.7h-22.5V341.1H378.9z M372.8,389.3c2.6,0,5.1-0.2,7.5-0.6c2.4-0.4,4.5-1.1,6.3-2.2c1.8-1.1,3.3-2.7,4.4-4.7
	c1.1-2,1.7-4.6,1.7-7.9c0-3.3-0.6-5.9-1.7-7.9c-1.1-2-2.6-3.6-4.4-4.7c-1.8-1.1-3.9-1.8-6.3-2.2c-2.4-0.4-4.9-0.6-7.5-0.6h-17.5
	v30.7H372.8z"/>
<path fill="#FFFFFF" d="M451,341.1v102.5h-22.5V341.1H451z"/>
<path fill="#FFFFFF" d="M536.5,368.4c-1.3-2.2-3-4-5-5.7c-2-1.6-4.3-2.9-6.8-3.8c-2.5-0.9-5.2-1.4-8-1.4c-5.1,0-9.4,1-12.9,2.9
	c-3.5,2-6.4,4.6-8.6,7.9c-2.2,3.3-3.8,7.1-4.8,11.3c-1,4.2-1.5,8.6-1.5,13.1c0,4.3,0.5,8.5,1.5,12.6c1,4.1,2.6,7.7,4.8,11
	c2.2,3.3,5.1,5.9,8.6,7.8c3.5,2,7.8,2.9,12.9,2.9c6.9,0,12.3-2.1,16.1-6.3c3.9-4.2,6.2-9.8,7.1-16.6h21.8
	c-0.6,6.4-2.1,12.2-4.4,17.4c-2.4,5.2-5.5,9.6-9.5,13.2c-3.9,3.6-8.5,6.4-13.8,8.3c-5.3,1.9-11,2.9-17.4,2.9
	c-7.8,0-14.9-1.4-21.2-4.1c-6.3-2.7-11.6-6.5-15.9-11.3c-4.3-4.8-7.6-10.4-9.9-16.9c-2.3-6.5-3.4-13.4-3.4-20.9
	c0-7.7,1.1-14.8,3.4-21.3c2.3-6.6,5.6-12.3,9.9-17.1c4.3-4.9,9.6-8.7,15.9-11.5c6.3-2.8,13.3-4.2,21.2-4.2c5.6,0,11,0.8,16,2.4
	c5,1.6,9.5,4,13.5,7.1c4,3.1,7.2,7,9.8,11.6c2.6,4.6,4.2,9.9,4.9,15.8h-21.8C538.7,373,537.9,370.6,536.5,368.4z"/>
<path fill="#FFFFFF" d="M569.1,360.1v-18.9h84v18.9h-30.7v83.5h-22.5v-83.5H569.1z"/>
<path fill="#FFFFFF" d="M740.2,435.8c-7.7,6.7-18.5,10.1-32.1,10.1c-13.9,0-24.6-3.3-32.2-10c-7.6-6.7-11.4-17-11.4-31v-63.7h22.5
	v63.7c0,2.8,0.2,5.5,0.7,8.2c0.5,2.7,1.5,5,3,7.1c1.5,2.1,3.7,3.7,6.4,5c2.7,1.3,6.4,1.9,11,1.9c8,0,13.6-1.8,16.6-5.4
	c3.1-3.6,4.6-9.2,4.6-16.9v-63.7h22.5v63.7C751.8,418.7,747.9,429,740.2,435.8z"/>
<path fill="#FFFFFF" d="M826.4,341.1c4.6,0,8.7,0.7,12.4,2.2c3.7,1.5,6.8,3.5,9.5,6.1c2.6,2.6,4.6,5.6,6,9c1.4,3.4,2.1,7.1,2.1,11
	c0,6-1.3,11.2-3.8,15.6c-2.5,4.4-6.7,7.7-12.4,10v0.3c2.8,0.8,5.1,1.9,6.9,3.5c1.8,1.6,3.3,3.4,4.4,5.6c1.1,2.2,2,4.5,2.5,7.1
	c0.5,2.6,0.9,5.2,1.1,7.7c0.1,1.6,0.2,3.5,0.3,5.7c0.1,2.2,0.3,4.4,0.5,6.7c0.2,2.3,0.6,4.5,1.1,6.5c0.5,2.1,1.3,3.8,2.4,5.2h-22.5
	c-1.2-3.3-2-7.1-2.3-11.6c-0.3-4.5-0.7-8.8-1.3-12.9c-0.8-5.4-2.4-9.3-4.9-11.8c-2.5-2.5-6.6-3.7-12.2-3.7h-22.5v40h-22.5V341.1
	H826.4z M818.4,387.5c5.2,0,9-1.1,11.6-3.4c2.6-2.3,3.9-6,3.9-11.2c0-5-1.3-8.6-3.9-10.8c-2.6-2.2-6.5-3.4-11.6-3.4h-24.7v28.8
	H818.4z"/>
<path fill="#FFFFFF" d="M951.4,341.1v18.9h-54.1v22h49.7v17.5h-49.7v25.1h55.2v18.9h-77.8V341.1H951.4z"/>
<path fill="#FFFFFF" d="M328.4,506.7c1.4-4.1,3.5-7.7,6.2-10.8c2.7-3.1,6-5.5,10-7.2c3.9-1.7,8.4-2.6,13.3-2.6c5,0,9.5,0.9,13.4,2.6
	c3.9,1.7,7.2,4.2,10,7.2c2.7,3.1,4.8,6.7,6.2,10.8c1.4,4.1,2.2,8.6,2.2,13.4c0,4.7-0.7,9.1-2.2,13.2c-1.4,4.1-3.5,7.6-6.2,10.6
	c-2.7,3-6,5.4-10,7.1c-3.9,1.7-8.4,2.6-13.4,2.6c-4.9,0-9.4-0.9-13.3-2.6c-4-1.7-7.3-4.1-10-7.1c-2.7-3-4.8-6.6-6.2-10.6
	c-1.4-4.1-2.2-8.5-2.2-13.2C326.3,515.3,327,510.8,328.4,506.7z M341.4,528c0.6,2.6,1.6,4.9,3,6.9c1.4,2.1,3.2,3.7,5.4,4.9
	c2.2,1.2,4.9,1.9,8.1,1.9c3.2,0,5.9-0.6,8.1-1.9c2.2-1.2,4-2.9,5.4-4.9c1.4-2,2.4-4.4,3-6.9c0.6-2.6,0.9-5.2,0.9-7.9
	c0-2.8-0.3-5.6-0.9-8.2c-0.6-2.7-1.6-5-3-7.1c-1.4-2.1-3.2-3.7-5.4-5c-2.2-1.2-4.9-1.9-8.1-1.9c-3.2,0-5.9,0.6-8.1,1.9
	c-2.2,1.2-4,2.9-5.4,5c-1.4,2.1-2.4,4.4-3,7.1c-0.6,2.7-0.9,5.4-0.9,8.2C340.5,522.8,340.8,525.5,341.4,528z"/>
<path fill="#FFFFFF" d="M444.9,487.5v11.9h-31.2v14.9h27.1v11h-27.1v26.7h-14.2v-64.6H444.9z"/>
<path fill="#FFFFFF" d="M361.3,586.1l24.2,64.6h-14.7l-4.9-14.4h-24.2l-5.1,14.4h-14.3l24.4-64.6H361.3z M362.1,625.8L354,602h-0.2
	l-8.4,23.7H362.1z"/>
<path fill="#FFFFFF" d="M405.2,586.1l27,43.3h0.2v-43.3h13.3v64.6h-14.2l-26.9-43.2h-0.2v43.2h-13.3v-64.6H405.2z"/>
<path fill="#FFFFFF" d="M615.8,486.4v30.4H529V552h79.7v28.1H529v40.3h88.6v30.4H492.8V486.4H615.8z"/>
<path fill="#FFFFFF" d="M730.7,486.4c7.4,0,14,1.2,19.9,3.6c5.9,2.4,11,5.6,15.2,9.8c4.2,4.1,7.4,8.9,9.7,14.4
	c2.2,5.5,3.3,11.3,3.3,17.6c0,9.7-2,18-6.1,25.1c-4.1,7.1-10.7,12.4-19.9,16.1v0.5c4.4,1.2,8.1,3.1,11.1,5.6c2.9,2.5,5.3,5.5,7.1,9
	c1.8,3.5,3.2,7.3,4,11.4c0.8,4.1,1.4,8.3,1.7,12.4c0.2,2.6,0.3,5.7,0.5,9.2c0.2,3.5,0.4,7.1,0.8,10.8c0.4,3.7,1,7.2,1.8,10.5
	c0.8,3.3,2.1,6.1,3.8,8.4h-36.1c-2-5.2-3.2-11.4-3.7-18.6c-0.5-7.2-1.2-14.1-2.1-20.7c-1.2-8.6-3.8-14.9-7.8-18.9
	c-4-4-10.5-6-19.6-6h-36.1v64.2H642V486.4H730.7z M717.8,560.8c8.3,0,14.5-1.8,18.6-5.5c4.1-3.7,6.2-9.7,6.2-18
	c0-8-2.1-13.8-6.2-17.4c-4.1-3.6-10.4-5.4-18.6-5.4h-39.6v46.3H717.8z"/>
<path fill="#FFFFFF" d="M890.2,486.4l61.5,164.4h-37.5l-12.4-36.6h-61.5l-12.9,36.6H791l62.2-164.4H890.2z M892.3,587.2l-20.7-60.3
	h-0.5l-21.4,60.3H892.3z"/>
</svg>
