<?xml version="1.0" encoding="utf-8"?>
<!-- Generator: Adobe Illustrator 17.1.0, SVG Export Plug-In . SVG Version: 6.00 Build 0)  -->
<!DOCTYPE svg PUBLIC "-//W3C//DTD SVG 1.1 Tiny//EN" "http://www.w3.org/Graphics/SVG/1.1/DTD/svg11-tiny.dtd">
<svg version="1.1" baseProfile="tiny" id="Layer_1" xmlns="http://www.w3.org/2000/svg" xmlns:xlink="http://www.w3.org/1999/xlink"
	 x="0px" y="0px" width="800px" height="600px" viewBox="0 0 800 600" xml:space="preserve">
<g>
	<path fill="#FFFFFF" d="M29.9,367.4H37v5.8h-7.2V367.4z M29.9,376.3H37v22.5h-7.2V376.3z"/>
	<path fill="#FFFFFF" d="M39.1,391.5h6.8c0.3,2.2,1.8,3.3,4.1,3.3c2.2,0,3.5-0.8,3.5-2.2c0-2-2.7-2.2-5.7-2.8
		c-3.9-0.7-8.1-1.7-8.1-7c0-4.8,4.4-7.2,9.7-7.2c6.4,0,9.8,2.8,10.2,7.2H53c-0.3-2-1.6-2.6-3.6-2.6c-1.8,0-3.1,0.7-3.1,2.1
		c0,1.6,2.6,1.8,5.4,2.3c4,0.7,8.6,1.7,8.6,7.4c0,4.9-4.4,7.5-10.3,7.5C43.5,399.5,39.3,396.5,39.1,391.5z"/>
	<path fill="#FFFFFF" d="M31.6,437.2v-12.1h-3v-4.5h3v-7.1h7v7.1h4.1v4.5h-4.1v10.6c0,1.8,1,2.2,2.5,2.2c0.6,0,1.3,0,1.6,0v5.2
		c-0.6,0.2-2,0.4-3.9,0.4C34.6,443.4,31.6,442.1,31.6,437.2z"/>
	<path fill="#FFFFFF" d="M45.3,411.7h7.2v11.7h0.1c1.6-2.2,3.6-3.4,6.7-3.4c4.9,0,7.8,3.5,7.8,8.5v14.7H60V430c0-2.4-1.2-4-3.5-4
		c-2.4,0-4,2-4,4.8v12.5h-7.2V411.7z"/>
	<path fill="#FFFFFF" d="M69.4,431.9c0-6.7,4.7-11.9,11.6-11.9c3.2,0,5.8,1.1,7.7,2.8c2.7,2.5,4,6.4,4,11H76.4
		c0.4,3,2.1,4.9,5.1,4.9c1.9,0,3.1-0.8,3.7-2.2h7c-0.5,2-1.8,4-3.8,5.3c-1.9,1.3-4.2,2.1-7,2.1C74,443.8,69.4,438.7,69.4,431.9z
		 M85.4,429.5c-0.3-2.7-1.9-4.4-4.3-4.4c-2.7,0-4.1,1.7-4.6,4.4H85.4z"/>
	<path fill="#FFFFFF" d="M29.9,465h6.9v2.7h0.1c1.5-2,3.7-3.4,6.8-3.4c6,0,9.6,5.1,9.6,11.9c0,7.3-3.9,12-9.8,12c-2.9,0-5-1.1-6.4-3
		H37v9.8h-7.2V465z M46.1,476.5c0-3.9-1.5-6.4-4.5-6.4c-3.1,0-4.7,2.8-4.7,6.4c0,3.7,1.8,6.2,4.8,6.2
		C44.4,482.7,46.1,480.3,46.1,476.5z"/>
	<path fill="#FFFFFF" d="M54.7,476.3c0-6.8,4.8-11.9,12.1-11.9c7.3,0,12,5.1,12,11.9c0,6.8-4.8,11.9-12,11.9
		C59.6,488.2,54.7,483.1,54.7,476.3z M71.5,476.3c0-4.1-1.7-6.9-4.8-6.9c-3.1,0-4.8,2.8-4.8,6.9c0,4.1,1.6,6.8,4.8,6.8
		C69.9,483.1,71.5,480.4,71.5,476.3z"/>
	<path fill="#FFFFFF" d="M81.2,465h6.9v3.5h0.1c1.6-2.7,3.4-3.9,6.2-3.9c0.7,0,1.1,0,1.4,0.2v6.2h-0.2c-4.4-0.6-7.2,1.5-7.2,6.4
		v10.1h-7.2V465z"/>
	<path fill="#FFFFFF" d="M100.3,481.6v-12.1h-3V465h3v-7.1h7v7.1h4.1v4.5h-4.1V480c0,1.8,1,2.2,2.5,2.2c0.6,0,1.3,0,1.6,0v5.2
		c-0.6,0.2-2,0.4-3.9,0.4C103.3,487.8,100.3,486.4,100.3,481.6z"/>
	<path fill="#FFFFFF" d="M114,465h6.9v3.5h0.1c1.6-2.7,3.4-3.9,6.2-3.9c0.7,0,1.1,0,1.4,0.2v6.2h-0.2c-4.4-0.6-7.2,1.5-7.2,6.4v10.1
		H114V465z"/>
	<path fill="#FFFFFF" d="M129.1,481.2c0-5,4-6.5,8.6-7.1c4.2-0.5,5.7-1,5.7-2.5c0-1.5-0.9-2.4-3.1-2.4c-2.3,0-3.4,1-3.7,2.9h-6.6
		c0.2-4.2,3.4-7.7,10.2-7.7c3.4,0,5.7,0.6,7.3,1.8c1.9,1.4,2.9,3.6,2.9,6.4V484c0,1.8,0.2,2.8,0.8,3.2v0.3h-7
		c-0.4-0.5-0.6-1.4-0.7-2.5h-0.1c-1.3,1.9-3.3,3.1-6.7,3.1C132.3,488.1,129.1,485.7,129.1,481.2z M143.6,479.4v-2.7
		c-0.9,0.5-2.2,0.8-3.7,1.2c-2.8,0.6-3.9,1.3-3.9,3c0,1.8,1.3,2.5,3.1,2.5C141.8,483.5,143.6,481.9,143.6,479.4z"/>
	<path fill="#FFFFFF" d="M154,456h7.2v5.8H154V456z M154,465h7.2v22.5H154V465z"/>
	<path fill="#FFFFFF" d="M166.3,481.6v-12.1h-3V465h3v-7.1h7v7.1h4.1v4.5h-4.1V480c0,1.8,1,2.2,2.5,2.2c0.6,0,1.3,0,1.6,0v5.2
		c-0.6,0.2-2,0.4-3.9,0.4C169.3,487.8,166.3,486.4,166.3,481.6z"/>
	<path fill="#FFFFFF" d="M28.8,520.6c0-6.8,4.8-11.9,12.1-11.9c7.3,0,12,5.1,12,11.9s-4.8,11.9-12,11.9
		C33.7,532.5,28.8,527.4,28.8,520.6z M45.7,520.6c0-4.1-1.7-6.9-4.8-6.9c-3.1,0-4.8,2.8-4.8,6.9s1.6,6.8,4.8,6.8
		C44,527.4,45.7,524.7,45.7,520.6z"/>
	<path fill="#FFFFFF" d="M56.6,513.9h-2.9v-4.6h2.9v-1.6c0-2.3,0.7-4,1.8-5.2c1.9-1.9,5.7-2.3,9.6-1.9v5.1c-2.7-0.1-4.2,0.1-4.2,2.6
		v1.1H68v4.6h-4.2v18h-7.2V513.9z"/>
	<path fill="#FFFFFF" d="M76,525.5c0-5,4-6.5,8.6-7.1c4.2-0.5,5.7-1,5.7-2.5c0-1.5-0.9-2.4-3.1-2.4c-2.3,0-3.4,1-3.7,2.9H77
		c0.2-4.2,3.4-7.7,10.2-7.7c3.4,0,5.7,0.6,7.3,1.8c1.9,1.4,2.9,3.6,2.9,6.4v11.4c0,1.8,0.2,2.8,0.8,3.2v0.3h-7
		c-0.4-0.5-0.6-1.4-0.7-2.5h-0.1c-1.3,1.9-3.3,3.1-6.7,3.1C79.2,532.4,76,530,76,525.5z M90.5,523.8v-2.7c-0.9,0.5-2.2,0.8-3.7,1.2
		c-2.8,0.6-3.9,1.3-3.9,3c0,1.8,1.3,2.5,3.1,2.5C88.7,527.8,90.5,526.2,90.5,523.8z"/>
	<path fill="#FFFFFF" d="M31.6,570.2v-12.1h-3v-4.5h3v-7.1h7v7.1h4.1v4.5h-4.1v10.6c0,1.8,1,2.2,2.5,2.2c0.6,0,1.3,0,1.6,0v5.2
		c-0.6,0.2-2,0.4-3.9,0.4C34.6,576.4,31.6,575.1,31.6,570.2z"/>
	<path fill="#FFFFFF" d="M45.3,544.7h7.2v5.8h-7.2V544.7z M45.3,553.6h7.2v22.5h-7.2V553.6z"/>
	<path fill="#FFFFFF" d="M55.9,553.6h6.9v3.2h0.1c1.4-2.3,3.6-3.9,6.8-3.9c2.9,0,5.2,1.5,6.3,4h0.1c1.8-2.7,4.2-4,7.1-4
		c5.1,0,7.7,3.5,7.7,8.5v14.7h-7.2v-13.4c0-2.4-1-3.8-3.2-3.8c-2.3,0-3.6,1.9-3.6,4.6v12.6h-7.2v-13.4c0-2.4-1-3.8-3.2-3.8
		c-2.2,0-3.6,1.9-3.6,4.6v12.6h-7.2V553.6z"/>
	<path fill="#FFFFFF" d="M93.1,564.9c0-6.7,4.7-11.9,11.6-11.9c3.2,0,5.8,1.1,7.7,2.8c2.7,2.5,4,6.4,4,11h-16.2
		c0.4,3,2.1,4.9,5.1,4.9c1.9,0,3.1-0.8,3.7-2.2h7c-0.5,2-1.8,4-3.8,5.3c-1.9,1.3-4.2,2.1-7,2.1C97.7,576.8,93.1,571.7,93.1,564.9z
		 M109.1,562.5c-0.3-2.7-1.9-4.4-4.3-4.4c-2.7,0-4.1,1.7-4.6,4.4H109.1z"/>
	<path fill="#FFFFFF" d="M118.3,568.8h7.5v7.4h-7.5V568.8z"/>
</g>
<g>
	<path fill="#FFFFFF" d="M66.6,44.6H23.8V13.7h122.4v30.9H103v116.2H66.6V44.6z"/>
	<path fill="#FFFFFF" d="M142.7,169.4h11.5c9.9,0,13.8-3.9,13.8-11.1c0-4.5-2.1-10.7-6.4-21.8l-31.1-81h35.4l14.2,44.8
		c3.3,10.3,6.6,24.3,6.6,24.3h0.4c0,0,2.9-14,6.2-24.3l13.8-44.8h33.5l-36.4,106.8c-8.4,24.7-18.5,33.3-39.7,33.3h-21.8V169.4z"/>
	<path fill="#FFFFFF" d="M248,55.5h32.1v12.8h0.6c7.2-9.5,17.5-15.8,31.9-15.8c28,0,45,24.1,45,55.7c0,34.1-18.3,56-45.9,56
		c-13.6,0-23.2-5.3-29.8-14.2h-0.4v45.7H248V55.5z M323.7,109.4c0-18.1-6.8-30-21.2-30c-14.6,0-22,13-22,30s8.2,28.8,22.6,28.8
		C315.9,138.2,323.7,127.3,323.7,109.4z"/>
	<path fill="#FFFFFF" d="M360.1,107.9c0-31.5,22-55.5,54.1-55.5c15,0,26.9,4.9,36,13.2c12.5,11.5,18.7,29.8,18.5,51.2H393
		c2.1,14.2,9.9,23,23.7,23c8.8,0,14.6-3.9,17.5-10.5h32.7c-2.3,9.5-8.4,18.5-17.7,24.9c-8.8,6.2-19.5,9.7-32.9,9.7
		C381.5,163.9,360.1,139.8,360.1,107.9z M434.8,96.8c-1.2-12.5-9.1-20.6-20-20.6c-12.8,0-19.3,8-21.6,20.6H434.8z"/>
</g>
</svg>
