<?xml version="1.0" encoding="utf-8"?>
<!-- Generator: Adobe Illustrator 17.1.0, SVG Export Plug-In . SVG Version: 6.00 Build 0)  -->
<!DOCTYPE svg PUBLIC "-//W3C//DTD SVG 1.1//EN" "http://www.w3.org/Graphics/SVG/1.1/DTD/svg11.dtd">
<svg version="1.1" id="Layer_1" xmlns="http://www.w3.org/2000/svg" xmlns:xlink="http://www.w3.org/1999/xlink" x="0px" y="0px"
	 width="800px" height="600px" viewBox="0 0 800 600" enable-background="new 0 0 800 600" xml:space="preserve">
<g>
	<path fill="#F0F0F0" d="M89.5,53.3v53.9H62.4V53.3H44V32.4h64v20.9C108,53.3,89.5,53.3,89.5,53.3z"/>
	<path fill="#F0F0F0" d="M173.8,99.5c0,20.9-12.8,30.1-40.7,30.1c-8.8,0-19.1-1.5-19.1-1.5v-20.9c0,0,7.1,4.5,17.1,4.5
		c5.6,0,16.5-1.8,16.5-12.2c-1.7,3.1-6.4,7.7-15.5,7.7c-9.3,0-20-3.6-20-22.4V56.3h26.4L139,85c0,2.5,1.5,4.2,4,4.2s4-1.7,4-4.2
		l0.5-28.7h26.4L173.8,99.5L173.8,99.5z"/>
	<path fill="#F0F0F0" d="M208.2,128.1h-26.4V56.3h24.9l1.5,8.2c2-4.1,6.6-9.7,16-9.7c14,0,20.9,10.5,20.9,25.4
		c0,15.5-8,28.1-22.8,28.1c-10.4,0-13.6-7.5-14.1-8.9L208.2,128.1L208.2,128.1z M213.7,74.8c-4,0-5.5,3-5.5,7s1.5,7,5.5,7
		s5.5-3,5.5-7C219.2,77.7,217.7,74.8,213.7,74.8z"/>
	<path fill="#F0F0F0" d="M288.6,86.2c-8.5,0-15.7-2.5-15.7-2.5c0.9,3.9,5.7,7,15.7,7c8,0,17.7-2.5,17.7-2.5v18.9
		c0,0-11.4,1.5-24.2,1.5c-22,0-33.6-8.7-33.6-26.4c0-18.5,12-27.9,29.8-27.9c18.1,0,28.5,10.8,28.5,28.9
		C306.8,83.2,298.2,86.2,288.6,86.2z M283.6,80.3c-0.2-4.3-2.8-5.6-5.4-5.6c-2.4,0-5.2,1.4-5.4,5.8C277,81.5,280.6,81.5,283.6,80.3z
		"/>
	<path fill="#F0F0F0" d="M342.2,107.2V56.3h26.9v50.9H342.2z M355.3,52.4c-7.7,0-12.4-2.9-12.4-10.3c0-7.2,5.2-10.8,12.9-10.8
		c7.7,0,12.4,2.8,12.4,10.3C368.2,49.1,363,52.4,355.3,52.4z"/>
	<path fill="#F0F0F0" d="M398.9,109.2c-8.9,0-22.8-2-22.8-2v-19c0,0,12.3,6.5,23.9,6.5c2,0,3-0.5,3-1.5c0-1.2-1.7-1.7-4.5-2.2
		c-10.5-2-23.4-5-23.4-18.9c0-13.5,10.7-17.9,26.8-17.9c13,0,24,2,24,2v18.9c0,0-11.6-4.5-21.9-4.5c-1.5,0-3,0.2-3,1.5
		c0,1.2,1.7,1.7,4.5,2.2c10.5,2,23.4,3.7,23.4,16.6C428.9,105.5,418.6,109.2,398.9,109.2z"/>
	<path fill="#F0F0F0" d="M498.8,107.2c0,0-6.6,1.5-13.5,1.5c-13.8,0-19.1-5.1-19.1-20.9V75.3h-5.3v-19h5.3v-15h24.4v15h8.1v18.9
		h-8.1V84c0,3.7,2.3,4.5,5.3,4.5c1.5,0,2.9-0.3,2.9-0.3L498.8,107.2L498.8,107.2z"/>
	<path fill="#F0F0F0" d="M540.2,107.2l-0.5-28.7c0-2.5-1.5-4.2-4-4.2s-4,1.7-4,4.2l-0.5,28.7h-26.4V32.4h27.1v32.1
		c2-4,7.3-9.7,16.3-9.7c10.7,0,18.5,5.5,18.5,22.9v29.4L540.2,107.2L540.2,107.2z"/>
	<path fill="#F0F0F0" d="M611.3,86.2c-8.5,0-15.7-2.5-15.7-2.5c0.9,3.9,5.7,7,15.7,7c8,0,17.7-2.5,17.7-2.5v18.9
		c0,0-11.4,1.5-24.2,1.5c-22,0-33.6-8.7-33.6-26.4c0-18.5,12-27.9,29.8-27.9c18.1,0,28.5,10.8,28.5,28.9
		C629.4,83.2,620.8,86.2,611.3,86.2z M606.3,80.3c-0.2-4.3-2.8-5.6-5.4-5.6c-2.4,0-5.2,1.4-5.4,5.8
		C599.6,81.5,603.3,81.5,606.3,80.3z"/>
	<path fill="#F0F0F0" d="M73.4,227.4H47v-71.8h24.9l1.5,8.2c2-4.1,6.6-9.7,16-9.7c14,0,20.9,10.5,20.9,25.4c0,15.5-8,28.1-22.8,28.1
		c-10.4,0-13.6-7.5-14.1-8.9V227.4z M78.9,174.1c-4,0-5.5,3-5.5,7s1.5,7,5.5,7s5.5-3,5.5-7S82.9,174.1,78.9,174.1z"/>
	<path fill="#F0F0F0" d="M145.3,208.5c-19.9,0-31.4-7.5-31.4-26.9c0-18.5,12.5-27.9,32.4-27.9s31.4,7.5,31.4,26.9
		S165.2,208.5,145.3,208.5z M145.8,174.1c-4,0-5.5,3-5.5,7s1.5,7,5.5,7s5.5-3,5.5-7S149.8,174.1,145.8,174.1z"/>
	<path fill="#F0F0F0" d="M226.4,174.6c-8.2,0-16.5,4.1-16.5,15.7v16.3h-26.4v-50.9h22.7l2.3,10.7c2-6.7,5.1-12.2,12.4-12.2
		c3.8,0,5.5,1.5,5.5,1.5V174.6z"/>
	<path fill="#F0F0F0" d="M266.3,206.5c0,0-6.6,1.5-13.5,1.5c-13.8,0-19.1-5.1-19.1-20.9v-12.5h-5.3v-18.9h5.3v-15h24.4v15h8.1v18.9
		h-8.1v8.8c0,3.7,2.3,4.5,5.3,4.5c1.5,0,2.9-0.3,2.9-0.3L266.3,206.5L266.3,206.5z"/>
	<path fill="#F0F0F0" d="M315.2,174.6c-8.2,0-16.5,4.1-16.5,15.7v16.3h-26.4v-50.9H295l2.3,10.7c2-6.7,5.1-12.2,12.4-12.2
		c3.8,0,5.5,1.5,5.5,1.5L315.2,174.6L315.2,174.6z"/>
	<path fill="#F0F0F0" d="M356.8,206.5l-1.5-7.7c-1.7,4.1-6.4,8.9-15.5,8.9c-16,0-21.9-10.7-21.9-26.1s8-27.4,23.9-27.4
		c6.5,0,12.4,2.8,13.5,9.7l1.7-8.2h24.5v50.9h-24.7V206.5z M349.9,174.1c-4,0-5.5,3-5.5,7s1.5,7,5.5,7s5.5-3,5.5-7
		S353.8,174.1,349.9,174.1z"/>
	<path fill="#F0F0F0" d="M389.6,206.5v-50.9h26.9v50.9H389.6z M402.7,151.7c-7.7,0-12.4-2.9-12.4-10.3c0-7.2,5.2-10.8,12.9-10.8
		c7.7,0,12.4,2.8,12.4,10.3C415.6,148.5,410.4,151.7,402.7,151.7z"/>
	<path fill="#F0F0F0" d="M459.4,206.5c0,0-6.6,1.5-13.5,1.5c-13.8,0-19.1-5.1-19.1-20.9v-12.5h-5.3v-18.9h5.3v-15h24.4v15h8.1v18.9
		h-8.1v8.8c0,3.7,2.3,4.5,5.3,4.5c1.5,0,2.9-0.3,2.9-0.3L459.4,206.5L459.4,206.5z"/>
	<path fill="#F0F0F0" d="M524.5,208.5c-19.9,0-31.4-7.5-31.4-26.9c0-18.5,12.5-27.9,32.4-27.9c19.9,0,31.4,7.5,31.4,26.9
		S544.4,208.5,524.5,208.5z M525,174.1c-4,0-5.5,3-5.5,7s1.5,7,5.5,7s5.5-3,5.5-7S529,174.1,525,174.1z"/>
	<path fill="#F0F0F0" d="M599.1,150.2c0,0-2.4-0.3-3.9-0.3c-3,0-5.3,0.8-5.3,4.5v1.3h9.1v18.9h-9.1v31.9H565v-31.9h-5.3v-18.9h5.3
		v-4.5c0-15.9,7.9-20.9,19.6-20.9c8.9,0,14.5,1.5,14.5,1.5V150.2z"/>
	<path fill="#F0F0F0" d="M83.7,305.8l-1.5-7.7c-1.7,4.1-6.4,8.9-15.5,8.9c-16,0-21.9-10.7-21.9-26.1c0-15.5,8-27.4,23.9-27.4
		c6.5,0,12.4,2.8,13.5,9.7l1.7-8.2h24.5v50.9H83.7V305.8z M76.7,273.4c-4,0-5.5,3-5.5,7s1.5,7,5.5,7s5.5-3,5.5-7
		S80.7,273.4,76.7,273.4z"/>
	<path fill="#F0F0F0" d="M151.8,305.8l-0.5-28.7c0-2.5-1.5-4.2-4-4.2s-4,1.7-4,4.2l-0.5,28.7h-26.4V255h25.4l1.7,8.2
		c2-4,7.3-9.7,16.3-9.7c10.7,0,18.5,5.5,18.5,22.9v29.4L151.8,305.8L151.8,305.8z"/>
	<path fill="#F0F0F0" d="M252.8,284.9c-8.5,0-15.7-2.5-15.7-2.5c0.9,3.9,5.7,7,15.7,7c8,0,17.7-2.5,17.7-2.5v18.9
		c0,0-11.4,1.5-24.2,1.5c-22,0-33.6-8.7-33.6-26.4c0-18.5,12-27.9,29.8-27.9c18.1,0,28.5,10.8,28.5,28.9
		C271,281.9,262.4,284.9,252.8,284.9z M247.8,279c-0.2-4.3-2.8-5.6-5.4-5.6c-2.4,0-5.2,1.4-5.4,5.8
		C241.1,280.2,244.8,280.2,247.8,279z"/>
	<path fill="#F0F0F0" d="M319.3,273.9c-8.2,0-16.5,4.1-16.5,15.7v16.3h-26.4V255h22.7l2.3,10.7c2-6.7,5.1-12.2,12.4-12.2
		c3.8,0,5.5,1.5,5.5,1.5V273.9z"/>
	<path fill="#F0F0F0" d="M361,305.8l-1.5-7.7c-1.7,4.1-6.4,8.9-15.5,8.9c-16,0-21.9-10.7-21.9-26.1c0-15.5,8-27.4,23.9-27.4
		c6.5,0,12.4,2.8,13.5,9.7l1.7-8.2h22.5v29.9c6.7,0,10,2.1,10,9.1v11.9H361V305.8z M354,273.4c-4,0-5.5,3-5.5,7s1.5,7,5.5,7
		s5.5-3,5.5-7S358,273.4,354,273.4z"/>
</g>
</svg>
