<?xml version="1.0" encoding="utf-8"?>
<!-- Generator: Adobe Illustrator 17.1.0, SVG Export Plug-In . SVG Version: 6.00 Build 0)  -->
<!DOCTYPE svg PUBLIC "-//W3C//DTD SVG 1.1//EN" "http://www.w3.org/Graphics/SVG/1.1/DTD/svg11.dtd">
<svg version="1.1" id="Layer_1" xmlns="http://www.w3.org/2000/svg" xmlns:xlink="http://www.w3.org/1999/xlink" x="0px" y="0px"
	 width="800px" height="600px" viewBox="0 0 800 600" enable-background="new 0 0 800 600" xml:space="preserve">
<g>
	<path fill="#F0F0F0" d="M153.5,151.1c-5.9,0-11.1-0.1-16.9-0.1c-5.9,0-11.1,0.1-17,0.1v-1.6l5.2-0.7c5.5-0.8,6.3-2.6,6.3-6.8V85.6
		h-6.5c-8.4,0-11.7,4.3-17.2,20.8h-1.6l0.7-22.6h60.3l0.7,22.6h-1.6c-5.5-16.5-8.8-20.8-17.2-20.8h-6.5V142c0,4.3,0.8,6,6.3,6.8
		l5.2,0.7v1.6H153.5z"/>
	<path fill="#F0F0F0" d="M178.6,175.1c-5.4,0-9-3.1-9-8c0-3.9,2.8-6.8,6.9-6.8c3.7,0,5.9,2.5,5.9,5.5c0,4-2.9,4.5-2.9,5.9
		c0,0.6,0.4,0.9,1.2,0.9c2.9,0,7.9-2.6,14.3-19.5l0.6-1.6l-16.5-38.8c-2.3-5.2-3.7-7-6.7-7.5l-3-0.5v-1.5c4.6,0.1,8.9,0.1,13.4,0.1
		c4.6,0,8.4,0,13-0.1v1.5l-3.6,0.4c-4.3,0.5-4.2,3.7-2.3,8.6l10.3,26.6l8.9-24.2c1.1-3.1,1.6-5.1,1.6-6.6c0-2.5-1.2-3.7-5.1-4.3
		l-3.3-0.5v-1.6c3.5,0.1,6.8,0.1,10.3,0.1s6.7,0,10.3-0.1v1.5l-2.4,0.5c-4.9,1-6.6,3.6-9.7,11.7L199.2,148
		C190.2,172.2,184.9,175.1,178.6,175.1z"/>
	<path fill="#F0F0F0" d="M249.9,173.9c-4.8,0-8.4-0.1-13.2-0.1s-8.5,0.1-13.3,0.1v-1.5l3.6-0.6c4.1-0.7,4.8-1.8,4.8-5.7V114
		c0-5.1-1.5-5.9-6.3-6.3l-3.5-0.3V106l17-4.1l1.9,0.6c-0.5,7.2-0.7,13.9-0.7,21.9c0-12.1,3.8-22.8,15.5-22.8
		c11.9,0,20.8,9.7,20.8,25.1c0,16.9-12.4,25.8-23.6,25.8c-4.4,0-8.2-0.9-11.4-2.6v16c0,4,0.7,5.1,4.9,5.7l3.5,0.6V173.9z
		 M265.7,126.7c0-12.8-2.8-22.7-11.5-22.7c-8.6,0-12.7,8.6-12.7,20.4v20.1c2.4,4.4,6,6.5,11.4,6.5
		C261.1,151.1,265.7,142.6,265.7,126.7z"/>
	<path fill="#F0F0F0" d="M305.9,152.6c-12.9,0-23-10-23-25.5c0-15.4,10.1-25.5,23-25.5c13.1,0,23.1,10,23.1,25.5
		C328.9,142.6,318.9,152.6,305.9,152.6z M305.9,151.1c9.5,0,12.3-10.4,12.3-24s-2.8-24-12.3-24c-9.3,0-12.2,10.4-12.2,24
		S296.6,151.1,305.9,151.1z"/>
	<path fill="#F0F0F0" d="M332.5,162.1c0-5.2,3.3-8.2,7.7-8.2c2.8,0,4.4,1.4,4.1,3.6c-3.6,0-5.6,2.2-5.6,5.5
		c0,6.2,5.4,10.7,17.7,10.7c11.8,0,19-4.7,19-11.9c0-5.7-6-6.9-17.9-7.4c-12.1-0.4-20.2-3.4-20.2-11.1c0-5.6,4.6-9,15.3-9
		c-9.6,0-17.6-6.8-17.6-16.4c0-9.3,7.1-16.1,18-16.1c5,0,9.5,1.6,12.8,4.4c3-2.8,6.8-4.6,10.7-4.6c4.4,0,7,2.5,7,6.2
		s-2.6,5.5-5.5,5.5c-3.1,0-5-2-5-4.7c0-1.3,0.4-2.2,0.4-3.1c0-0.5-0.4-0.9-1.2-0.9c-1.2,0-3.3,0.9-5.1,2.6c2.8,2.9,4.5,6.8,4.5,11.5
		c0,9.6-7,16.7-19.1,16.7c-7,0-9.7,1.6-9.7,4c0,3.7,4.8,4.6,15.9,5.1c13.1,0.5,22.3,3.1,22.3,14.4c0,10.7-10.5,16.3-24.5,16.3
		C342.8,175.2,332.5,170.6,332.5,162.1z M353.3,133.5c6.2,0,8.4-6.9,8.4-15.2c0-9.3-2.5-15.2-8.5-15.2c-5.7,0-8.4,5.7-8.4,15.2
		C344.8,126.9,347.4,133.5,353.3,133.5z"/>
	<path fill="#F0F0F0" d="M414,151.1c-4.8,0-9.3-0.1-14.1-0.1c-4.7,0-8.5,0.1-13.2,0.1v-1.5l3.5-0.6c4.1-0.7,4.8-1.8,4.8-5.7v-29.4
		c0-5-1.4-5.8-6.3-6.2l-3.5-0.3V106l17.1-4.1l1.8,0.6c-0.5,7.2-0.8,19.3-0.8,29.4c0-4.4,0.3-8.8,1.2-14.2
		c1.7-9.5,6.1-16.4,13.9-16.4c5.1,0,8,3.1,8,7.4c0,4.4-3,6.8-6.6,6.8c-3.8,0-5.8-2.4-5.8-5.7c0-0.8,0.2-1.7,0.2-2.2
		c0-0.8-0.3-1.2-1-1.2c-2.5,0-5.6,3.8-7.2,11.7c-0.9,4.7-1.3,9.2-1.3,13.8v11c0,4.2,1.1,5.4,5.3,6l4.1,0.6v1.6H414z"/>
	<path fill="#F0F0F0" d="M468,152.3c-5.6,0-8.2-2.7-8.8-10.5c-2.1,6.3-7.9,10.8-15.6,10.8c-8.4,0-13.5-4-13.5-11.1
		c0-11.5,15.4-14.9,27.8-16.1v-10.1c0-8.5-2-11.9-9-11.9c-5.6,0-9,2.6-9,4.9c0,3.1,5,2.6,5,7.5c0,3.3-2.7,5.4-6.2,5.4
		c-4,0-6.3-2.9-6.3-7.1c0-7,7.6-12.2,16.7-12.2c11.3,0,18.3,5.1,18.3,15.7l-0.1,26c0,3.9,1,5.5,3.5,5.5c2.7,0,4.3-2.2,4.7-9.8h1.6
		C476.6,148.6,474.2,152.3,468,152.3z M457.8,137v-10.2c-11.4,1.7-17.6,4.1-17.6,13.5c0,5.2,2.9,8.7,7.8,8.7
		C453.1,149,457.8,145.4,457.8,137z"/>
	<path fill="#F0F0F0" d="M502.6,173.9c-4.8,0-8.4-0.1-13.2-0.1c-4.8,0-8.5,0.1-13.3,0.1v-1.5l3.6-0.6c4.1-0.7,4.8-1.8,4.8-5.7V114
		c0-5.1-1.5-5.9-6.3-6.3l-3.5-0.3V106l17-4.1l1.9,0.6c-0.5,7.2-0.7,13.9-0.7,21.9c0-12.1,3.8-22.8,15.5-22.8
		c11.9,0,20.8,9.7,20.8,25.1c0,16.9-12.4,25.8-23.6,25.8c-4.4,0-8.2-0.9-11.4-2.6v16c0,4,0.7,5.1,4.9,5.7l3.5,0.6V173.9z
		 M518.4,126.7c0-12.8-2.8-22.7-11.5-22.7c-8.6,0-12.7,8.6-12.7,20.4v20.1c2.4,4.4,6,6.5,11.4,6.5
		C513.7,151.1,518.4,142.6,518.4,126.7z"/>
	<path fill="#F0F0F0" d="M532.9,149.6l3.5-0.6c4.1-0.7,4.8-1.8,4.8-5.7v-58c0-4-0.8-5-5.2-5.4l-4.6-0.5v-1.1l18.6-3.8l1.7,0.7
		c-0.5,3.3-0.8,7.7-0.8,11.6v9.5c0,10.7-1.4,18.2-1.4,31.7c0-15.7,6.4-26.2,17.4-26.2c8.4,0,14.7,4.7,14.7,14.8v26.8
		c0,4,0.7,5.1,4.8,5.7l3.5,0.6v1.5c-4.7,0-8.3-0.1-13.1-0.1s-8.5,0.1-13.3,0.1v-1.5l3.5-0.6c4.2-0.7,4.9-1.8,4.9-5.7v-26.8
		c0-8.4-2.4-11.6-7.9-11.6c-6.6,0-13,8.5-13,23.1v15.4c0,4,0.8,5.1,4.9,5.7l3.5,0.6v1.5c-4.8,0-8.4-0.1-13.2-0.1
		c-4.7,0-8.5,0.1-13.2,0.1v-1.7H532.9z"/>
	<path fill="#F0F0F0" d="M596.5,175.1c-5.4,0-9-3.1-9-8c0-3.9,2.8-6.8,6.9-6.8c3.7,0,5.9,2.5,5.9,5.5c0,4-2.9,4.5-2.9,5.9
		c0,0.6,0.4,0.9,1.2,0.9c2.9,0,7.9-2.6,14.3-19.5l0.6-1.6L597,112.7c-2.3-5.2-3.7-7-6.7-7.5l-3-0.5v-1.5c4.6,0.1,8.9,0.1,13.4,0.1
		c4.6,0,8.4,0,13-0.1v1.5l-3.6,0.4c-4.3,0.5-4.2,3.7-2.3,8.6l10.3,26.6l8.9-24.2c1.1-3.1,1.6-5.1,1.6-6.6c0-2.5-1.2-3.7-5.1-4.3
		l-3.3-0.5v-1.6c3.5,0.1,6.8,0.1,10.3,0.1s6.7,0,10.3-0.1v1.5l-2.4,0.5c-4.9,1-6.6,3.6-9.7,11.7L617.1,148
		C608.1,172.2,602.9,175.1,596.5,175.1z"/>
	<path fill="#F0F0F0" d="M105.2,263.2l3.5-0.6c4.1-0.7,4.8-1.8,4.8-5.7V199c0-4-0.8-5.1-5.1-5.5l-4.6-0.5v-1.1l18.6-3.8l1.7,0.7
		c-0.5,3.3-0.8,7.8-0.8,11.6V257c0,4,0.7,5.1,4.9,5.7l3.5,0.6v1.5c-4.8,0-8.4-0.1-13.2-0.1c-4.7,0-8.5,0.1-13.2,0.1v-1.6H105.2z"/>
	<path fill="#F0F0F0" d="M135.8,263.2l3.5-0.6c4.1-0.7,4.8-1.8,4.8-5.7v-29.3c0-5.1-1.4-5.9-6.3-6.3l-3.5-0.3v-1.3l18.4-4.3l1.9,0.6
		c-0.5,3.9-0.7,7.7-0.7,11.6V257c0,3.9,0.7,5,4.9,5.6l3.5,0.6v1.5c-4.8,0-8.4-0.1-13.2-0.1c-4.7,0-8.5,0.1-13.2,0.1L135.8,263.2
		L135.8,263.2z M147.7,204.4c-3.8,0-7-2.8-7-6.8c0-4.3,3.2-6.8,7-6.8c4.2,0,7.1,2.6,7.1,6.8S151.9,204.4,147.7,204.4z"/>
	<path fill="#F0F0F0" d="M165.4,263.2l3.5-0.6c4.1-0.7,4.8-1.9,4.8-5.7v-29.3c0-5.1-1.4-5.9-6.3-6.3l-3.5-0.3v-1.3l17.1-4.1l1.8,0.6
		c-0.4,7.2-0.7,16.8-0.7,25.4c0-15.2,6.1-26.2,17.4-26.2c8.4,0,14.7,4.8,14.7,14.9V257c0,4,0.7,5.1,4.8,5.7l3.5,0.6v1.5
		c-4.7,0-8.4-0.1-13.1-0.1c-4.8,0-8.5,0.1-13.3,0.1v-1.5l3.5-0.6c4.2-0.7,4.9-1.8,4.9-5.7v-26.7c0-8.4-2.4-11.7-7.9-11.7
		c-6.8,0-13,8.8-13,23.1v15.5c0,3.9,0.8,5,4.9,5.6l3.5,0.6v1.5c-4.8,0-8.4-0.1-13.2-0.1c-4.7,0-8.5,0.1-13.2,0.1v-1.7H165.4z"/>
	<path fill="#F0F0F0" d="M225.3,263.2l3.5-0.6c4.1-0.7,4.8-1.8,4.8-5.7V199c0-4-0.8-5.1-5.1-5.5l-4.6-0.5v-1.1l18.6-3.8l1.7,0.7
		c-0.5,3.3-0.8,7.8-0.8,11.6v56.7c0,3.9,0.6,5,4.8,5.6l3.2,0.6v1.5c-4.8,0-8-0.1-12.8-0.1c-4.7,0-8.5,0.1-13.2,0.1L225.3,263.2
		L225.3,263.2z M268.3,255.1c4.7,5.4,6.2,6.9,9.5,7.6l2.3,0.5v1.5c-4.5,0-8.3-0.1-12.7-0.1c-4.5,0-8.5,0.1-13,0.1v-1.5l2-0.3
		c2.5-0.4,3.2-1.1,3.2-2c0-0.8-0.3-1.4-2.2-3.8l-14-17.4l12.8-12.6c2.7-2.6,3.5-4,3.5-5.3c0-1.5-1.1-2.5-4.6-3l-3.2-0.5v-1.6
		c4.5,0.1,8.3,0.1,12.9,0.1s8.6,0,13.2-0.1v1.5l-3.5,0.6c-5.6,1-10.9,3.7-16.7,9.2l-6.8,6.3L268.3,255.1z"/>
	<path fill="#F0F0F0" d="M300.2,266.1c-6.3,0-10.8-1.7-14.2-4.9l-2.7,4.8h-0.8v-20.2h1.9c3.6,13.9,8.8,18.8,15.7,18.8
		c5.7,0,9.8-3,9.8-8.7c0-5.8-3.6-8.2-12.6-11.5c-7.3-2.6-13.9-6.2-13.9-15.3c0-7.9,7.1-14,16.6-14c5.1,0,8.9,1.6,11.8,4.4l2.4-4.3
		h0.8v18.1h-1.9c-3.1-11.5-7-16.7-13.1-16.7c-6.4,0-9.2,3.8-9.2,8.1c0,5.5,3.6,7.7,12.4,10.9c7,2.5,14.2,6.5,14.2,15.6
		C317.5,260.8,309.7,266.1,300.2,266.1z"/>
	<path fill="#F0F0F0" d="M124.6,379.4c-7,0-12.3-3.6-12.3-12.4v-32.8l-9.6-1.4v-1.7l6.7-1c4.3-0.5,6.2-2.1,7.1-6.9l1.5-7.6h4.7
		l-0.6,14.7H138v2.6l-15.9,0.7V367c0,7.3,2.4,9.1,6.1,9.1c3.8,0,6.4-3,8.1-10.1l1.8,0.3C136.2,375.4,132.5,379.4,124.6,379.4z"/>
	<path fill="#F0F0F0" d="M142,376.7l3.5-0.6c4.1-0.7,4.8-1.8,4.8-5.7v-29.3c0-5.1-1.4-5.9-6.3-6.3l-3.5-0.3v-1.3l18.4-4.3l1.9,0.6
		c-0.5,3.9-0.7,7.7-0.7,11.6v29.4c0,3.9,0.7,5,4.9,5.6l3.5,0.6v1.5c-4.8,0-8.4-0.1-13.2-0.1c-4.7,0-8.5,0.1-13.2,0.1L142,376.7
		L142,376.7z M153.8,318c-3.8,0-7-2.8-7-6.8c0-4.3,3.2-6.8,7-6.8c4.2,0,7.1,2.6,7.1,6.8S158,318,153.8,318z"/>
	<path fill="#F0F0F0" d="M244.5,378.1c-4.8,0-8.5,0.1-13.3,0.1v-1.5l3.5-0.6c4.1-0.7,4.9-1.8,4.9-5.7v-26.7c0-8.1-2.6-11.7-7.5-11.7
		c-6.7,0-12.6,8.8-12.6,23.1v15.4c0,4,0.8,5.1,4.9,5.7l3.5,0.6v1.5c-4.8,0-8.4-0.1-13.2-0.1c-4.7,0-8.4,0.1-13.2,0.1v-1.5l3.5-0.6
		c4.1-0.7,4.9-1.8,4.9-5.7v-26.7c0-7.6-2.4-11.7-7.3-11.7c-6.7,0-12.8,8.5-12.8,23.1v15.4c0,4,0.8,5.1,4.9,5.7l3.5,0.6v1.5
		c-4.8,0-8.4-0.1-13.2-0.1c-4.7,0-8.5,0.1-13.2,0.1v-1.5l3.5-0.6c4.1-0.7,4.8-1.8,4.8-5.7v-29.3c0-5.1-1.4-5.9-6.3-6.3l-3.5-0.3
		v-1.3l17.1-4.1l1.8,0.6c-0.4,7.2-0.7,16.9-0.7,25.4c0-15.6,6.2-26.2,16.7-26.2c8,0,13.5,4.5,13.5,14.9c0,2.6-0.1,4.6-0.2,6.2
		c1.3-12.8,7.3-21.1,16.7-21.1c8,0,14.3,4.7,14.3,14.9v26.7c0,4,0.8,5.1,4.9,5.7l3.5,0.6v1.5C252.8,378.2,249.1,378.1,244.5,378.1z"
		/>
	<path fill="#F0F0F0" d="M283.6,379.6c-11.4,0-22.4-8.9-22.4-25.2c0-16.4,11.4-25.7,23.2-25.7c10.6,0,18.2,6.2,18.2,17
		c0,2.2-0.2,4-0.5,5.5l-29.9-0.2c-0.1,1.1-0.1,2.2-0.1,3.3c0,13.2,4.9,21.6,14.7,21.6c5.9,0,10.7-3,14.5-9.7l1.4,0.7
		C298.3,375.1,292.6,379.6,283.6,379.6z M292.4,347.1c0.8-6.8,0.9-16.8-7.9-16.8c-6.8,0-11.4,5.9-12.3,19.5l20-1.3v-0.1L292.4,347.1
		z"/>
	<path fill="#F0F0F0" d="M308,376.7l3.5-0.6c4.1-0.7,4.8-1.8,4.8-5.7v-57.9c0-4-0.8-5.1-5.1-5.5l-4.6-0.5v-1.1l18.6-3.8l1.7,0.7
		c-0.5,3.3-0.8,7.8-0.8,11.6v56.6c0,4,0.7,5.1,4.9,5.7l3.5,0.6v1.5c-4.8,0-8.4-0.1-13.2-0.1c-4.7,0-8.5,0.1-13.2,0.1L308,376.7
		L308,376.7z"/>
	<path fill="#F0F0F0" d="M360.9,379.6c-11.4,0-22.4-8.9-22.4-25.2c0-16.4,11.4-25.7,23.2-25.7c10.6,0,18.2,6.2,18.2,17
		c0,2.2-0.2,4-0.5,5.5l-29.9-0.2c-0.1,1.1-0.1,2.2-0.1,3.3c0,13.2,4.9,21.6,14.7,21.6c5.9,0,10.7-3,14.5-9.7l1.4,0.7
		C375.7,375.1,369.9,379.6,360.9,379.6z M369.7,347.1c0.8-6.8,0.9-16.8-7.9-16.8c-6.8,0-11.4,5.9-12.3,19.5l20-1.3v-0.1L369.7,347.1
		z"/>
	<path fill="#F0F0F0" d="M405.5,379.7c-6.3,0-10.8-1.7-14.2-4.9l-2.7,4.8h-0.8v-20.2h1.9c3.6,13.9,8.8,18.8,15.7,18.8
		c5.7,0,9.8-3,9.8-8.7c0-5.8-3.6-8.2-12.6-11.5c-7.3-2.6-13.9-6.2-13.9-15.3c0-7.9,7.1-14,16.6-14c5.1,0,8.9,1.6,11.8,4.4l2.4-4.3
		h0.8V347h-1.9c-3.1-11.5-7-16.7-13.1-16.7c-6.4,0-9.2,3.8-9.2,8.1c0,5.5,3.6,7.7,12.4,10.9c7,2.5,14.2,6.5,14.2,15.6
		C422.8,374.4,415,379.7,405.5,379.7z"/>
	<path fill="#F0F0F0" d="M448.1,379.7c-6.3,0-10.8-1.7-14.2-4.9l-2.7,4.8h-0.8v-20.2h1.9c3.6,13.9,8.8,18.8,15.7,18.8
		c5.7,0,9.8-3,9.8-8.7c0-5.8-3.6-8.2-12.6-11.5c-7.3-2.6-13.9-6.2-13.9-15.3c0-7.9,7.1-14,16.6-14c5.1,0,8.9,1.6,11.8,4.4l2.4-4.3
		h0.8V347H461c-3.1-11.5-7-16.7-13.1-16.7c-6.4,0-9.2,3.8-9.2,8.1c0,5.5,3.6,7.7,12.4,10.9c7,2.5,14.2,6.5,14.2,15.6
		C465.4,374.4,457.6,379.7,448.1,379.7z"/>
	<path fill="#F0F0F0" d="M471.9,376.7l3.5-0.6c4.1-0.7,4.8-1.9,4.8-5.7v-29.3c0-5.1-1.4-5.9-6.3-6.3l-3.5-0.3v-1.3l17.1-4.1l1.8,0.6
		c-0.4,7.2-0.7,16.8-0.7,25.4c0-15.2,6.1-26.2,17.4-26.2c8.4,0,14.7,4.8,14.7,14.9v26.7c0,4,0.7,5.1,4.8,5.7l3.5,0.6v1.5
		c-4.7,0-8.4-0.1-13.1-0.1c-4.8,0-8.5,0.1-13.3,0.1v-1.5l3.5-0.6c4.2-0.7,4.9-1.8,4.9-5.7v-26.7c0-8.4-2.4-11.7-7.9-11.7
		c-6.8,0-13,8.8-13,23.1v15.5c0,3.9,0.8,5,4.9,5.6l3.5,0.6v1.5c-4.8,0-8.4-0.1-13.2-0.1c-4.7,0-8.5,0.1-13.2,0.1v-1.7H471.9z"/>
	<path fill="#F0F0F0" d="M554.9,379.6c-11.4,0-22.4-8.9-22.4-25.2c0-16.4,11.4-25.7,23.2-25.7c10.6,0,18.2,6.2,18.2,17
		c0,2.2-0.2,4-0.5,5.5l-29.9-0.2c-0.1,1.1-0.1,2.2-0.1,3.3c0,13.2,4.9,21.6,14.7,21.6c5.9,0,10.7-3,14.5-9.7l1.4,0.7
		C569.7,375.1,564,379.6,554.9,379.6z M563.8,347.1c0.8-6.8,0.9-16.8-7.9-16.8c-6.8,0-11.4,5.9-12.3,19.5l20-1.3v-0.1L563.8,347.1z"
		/>
	<path fill="#F0F0F0" d="M599.5,379.7c-6.3,0-10.8-1.7-14.2-4.9l-2.7,4.8h-0.8v-20.2h1.9c3.6,13.9,8.8,18.8,15.7,18.8
		c5.7,0,9.8-3,9.8-8.7c0-5.8-3.6-8.2-12.6-11.5c-7.3-2.6-13.9-6.2-13.9-15.3c0-7.9,7.1-14,16.6-14c5.1,0,8.9,1.6,11.8,4.4l2.4-4.3
		h0.8V347h-1.9c-3.1-11.5-7-16.7-13.1-16.7c-6.4,0-9.2,3.8-9.2,8.1c0,5.5,3.6,7.7,12.4,10.9c7,2.5,14.2,6.5,14.2,15.6
		C616.8,374.4,609,379.7,599.5,379.7z"/>
	<path fill="#F0F0F0" d="M642.1,379.7c-6.3,0-10.8-1.7-14.2-4.9l-2.7,4.8h-0.8v-20.2h1.9c3.6,13.9,8.8,18.8,15.7,18.8
		c5.7,0,9.8-3,9.8-8.7c0-5.8-3.6-8.2-12.6-11.5c-7.3-2.6-13.9-6.2-13.9-15.3c0-7.9,7.1-14,16.6-14c5.1,0,8.9,1.6,11.8,4.4l2.4-4.3
		h0.8V347H655c-3.1-11.5-7-16.7-13.1-16.7c-6.4,0-9.2,3.8-9.2,8.1c0,5.5,3.6,7.7,12.4,10.9c7,2.5,14.2,6.5,14.2,15.6
		C659.4,374.4,651.6,379.7,642.1,379.7z"/>
	<path fill="#F0F0F0" d="M159.3,493.2c-5.6,0-10.3-1.8-15.3-6.6c-3.9,4.1-9.3,6.6-17,6.6c-12.1,0-22.3-6.6-22.3-18.8
		c0-11.5,8.1-17.6,19.4-21.5c-1.7-4.9-2.6-9.3-2.6-12.8c0-12.6,8.7-17.2,16-17.2c7,0,14,3.8,14,11.6c0,8.9-10.1,13.8-18.1,16.6
		c1.6,4.4,3.8,9,6.1,13.3c2.7,4.9,5.2,9.3,7.9,13.1c0.6-1.7,1.2-3.4,1.6-5.1c3-12.3,6.6-24.6,18.8-24.6c5.6,0,8.6,3.3,8.6,7.3
		c0,4.2-2.8,6.6-6,6.6c-3.6,0-5.7-2.1-5.7-5.5c0-1.2,0.4-2.2,0.4-2.9c0-0.9-0.6-1.4-1.7-1.4c-5.8,0-9.7,8.9-12.5,20.8
		c-0.6,2.3-1.3,4.6-2.2,6.6c4.7,6.1,9.2,10,14,10c5.2,0,9.2-2.4,11.2-13.3l1.5,0.2C173.3,490.2,167.3,493.2,159.3,493.2z
		 M142.8,485.2c-3.6-3.8-7.1-9-11.4-16.3c-2.9-5-5.2-9.9-6.8-14.6c-6,2.7-9.5,8.5-9.5,18.8c0,10.7,5.3,17.4,14.9,17.4
		C135.4,490.6,139.7,488.6,142.8,485.2z M133.6,449.6c7.5-3.2,11.4-7.4,11.4-15.1c0-6.4-1.9-10-7.4-10c-5.7,0-8.2,4.1-8.2,10.1
		c0,3.4,1.3,9,3.6,15.3L133.6,449.6z"/>
	<path fill="#F0F0F0" d="M217.6,493c-7,0-12.3-3.6-12.3-12.4v-32.8l-9.6-1.4v-1.7l6.7-1c4.3-0.5,6.2-2.1,7.1-6.9l1.5-7.6h4.7
		l-0.6,14.7H231v2.6l-15.9,0.7v33.5c0,7.3,2.4,9.1,6.1,9.1s6.4-3,8.1-10.1l1.8,0.3C229.2,489,225.5,493,217.6,493z"/>
	<path fill="#F0F0F0" d="M234.9,490.3l3.5-0.6c4.1-0.7,4.8-1.8,4.8-5.7v-29.3c0-5.1-1.4-5.9-6.3-6.3l-3.5-0.3v-1.3l18.4-4.3l1.9,0.6
		c-0.5,3.9-0.7,7.7-0.7,11.6V484c0,3.9,0.7,5,4.9,5.6l3.5,0.6v1.5c-4.8,0-8.4-0.1-13.2-0.1c-4.7,0-8.5,0.1-13.2,0.1v-1.4H234.9z
		 M246.8,431.5c-3.8,0-7-2.8-7-6.8c0-4.3,3.2-6.8,7-6.8c4.2,0,7.1,2.6,7.1,6.8C254,429,251,431.5,246.8,431.5z"/>
	<path fill="#F0F0F0" d="M337.5,491.7c-4.8,0-8.5,0.1-13.3,0.1v-1.5l3.5-0.6c4.1-0.7,4.9-1.8,4.9-5.7v-26.7c0-8.1-2.6-11.7-7.5-11.7
		c-6.7,0-12.6,8.8-12.6,23.1v15.4c0,4,0.8,5.1,4.9,5.7l3.5,0.6v1.5c-4.8,0-8.4-0.1-13.2-0.1c-4.7,0-8.4,0.1-13.2,0.1v-1.5l3.5-0.6
		c4.1-0.7,4.9-1.8,4.9-5.7v-26.7c0-7.6-2.4-11.7-7.3-11.7c-6.7,0-12.8,8.5-12.8,23.1v15.4c0,4,0.8,5.1,4.9,5.7l3.5,0.6v1.5
		c-4.8,0-8.4-0.1-13.2-0.1c-4.7,0-8.5,0.1-13.2,0.1v-1.5l3.5-0.6c4.1-0.7,4.8-1.8,4.8-5.7v-29.3c0-5.1-1.4-5.9-6.3-6.3L263,448v-1.3
		l17.1-4.1l1.8,0.6c-0.4,7.2-0.7,16.9-0.7,25.4c0-15.6,6.2-26.2,16.7-26.2c8,0,13.5,4.5,13.5,14.9c0,2.6-0.1,4.6-0.2,6.2
		c1.3-12.8,7.3-21.1,16.7-21.1c8,0,14.3,4.7,14.3,14.9V484c0,4,0.8,5.1,4.9,5.7l3.5,0.6v1.5C345.8,491.8,342.1,491.7,337.5,491.7z"
		/>
	<path fill="#F0F0F0" d="M376.6,493.2c-11.4,0-22.4-8.9-22.4-25.2c0-16.4,11.4-25.7,23.2-25.7c10.6,0,18.2,6.2,18.2,17
		c0,2.2-0.2,4-0.5,5.5l-29.9-0.2c-0.1,1.1-0.1,2.2-0.1,3.3c0,13.2,4.9,21.6,14.7,21.6c5.9,0,10.7-3,14.5-9.7l1.4,0.7
		C391.3,488.7,385.6,493.2,376.6,493.2z M385.4,460.7c0.8-6.8,0.9-16.8-7.9-16.8c-6.8,0-11.4,5.9-12.3,19.5l20-1.3V462L385.4,460.7z
		"/>
</g>
</svg>
