<?xml version="1.0" encoding="utf-8"?>
<!-- Generator: Adobe Illustrator 17.1.0, SVG Export Plug-In . SVG Version: 6.00 Build 0)  -->
<!DOCTYPE svg PUBLIC "-//W3C//DTD SVG 1.1 Tiny//EN" "http://www.w3.org/Graphics/SVG/1.1/DTD/svg11-tiny.dtd">
<svg version="1.1" baseProfile="tiny" id="Layer_1" xmlns="http://www.w3.org/2000/svg" xmlns:xlink="http://www.w3.org/1999/xlink"
	 x="0px" y="0px" width="800px" height="600px" viewBox="0 0 800 600" xml:space="preserve">
<g>
	<path fill="#FFF200" d="M63.3,57.1v5.1h-3.2v33.4h-6.6V62.2h-3.2v-5.1H63.3z"/>
	<path fill="#FFF200" d="M70,57.1l1.7,14.9l1.6-14.9h6.2l-4.4,23v15.6h-6.8V80l-4.7-23H70z"/>
	<path fill="#FFF200" d="M89.2,57.1c6.4,0,7.2,1.4,7.2,7.8v9.2c0,6.4-0.7,7.9-7.1,7.9h-1.5v13.6h-6.6V57.1H89.2z M87.7,76.9
		c0.2,0,0.4,0,0.6,0c1.5,0,1.5-0.5,1.5-2.3V64.5c0-1.9,0-2.4-1.6-2.4c-0.1,0-0.3,0-0.5,0V76.9z"/>
	<path fill="#FFF200" d="M109.7,57.1v5h-3.9v9.8h3.9V77h-3.9v13.5h3.9v5.1H99.2V57.1H109.7z"/>
	<path fill="#FFF200" d="M58.1,123.7v38.5h-6.6v-38.5H58.1z"/>
	<path fill="#FFF200" d="M76.3,136.9h-6.5v-6.8c0-1.1-0.3-1.6-1.1-1.6c-0.8,0-0.9,0.6-0.9,1.6v6c0,1.2,0.1,1.7,1.5,2.5l4,2.3
		c2.6,1.5,3.1,3.3,3.1,5.8v8c0,6.6-0.8,7.7-7.6,7.7c-6.6,0-7.6-1.2-7.6-7.7v-8.5h6.6v9.4c0,1.1,0.3,1.7,1.1,1.7
		c0.7,0,0.9-0.6,0.9-1.7v-8.2c0-1.2-0.1-1.6-1.5-2.4l-4.2-2.5c-2.5-1.4-3-3.3-3-6v-5.5c0-6.5,1-7.7,7.6-7.7c6.8,0,7.6,1.2,7.6,7.7
		V136.9z"/>
	<path fill="#FFF200" d="M63.1,190.3l3.9,38.5h-6.4l-0.5-8.2h-2.8l-0.5,8.2h-6.4l3.8-38.5H63.1z M57.6,215.5h2.2l-1-17.6h-0.2
		L57.6,215.5z"/>
	<path fill="#FFF200" d="M75.5,190.3l3.6,19.2h0.3l-0.1-19.2H85v38.5h-5.8l-3.7-19.7h-0.3l0.1,19.7h-5.7v-38.5H75.5z"/>
	<path fill="#FFF200" d="M58.9,256.6c6.7,0,7.6,1,7.6,7.7V288c0,6.5-0.9,7.7-7.5,7.7c-6.7,0-7.7-1.1-7.7-7.7v-23.6
		C51.3,257.8,52,256.6,58.9,256.6z M57.8,288.9c0,1.1,0.3,1.6,1.1,1.6c0.8,0,1-0.5,1-1.6v-25.5c0-1.1-0.2-1.7-1.1-1.7
		c-0.8,0-1,0.6-1,1.7V288.9z"/>
	<path fill="#FFF200" d="M77.7,256.9c5.7,0,7.1,1.6,7.1,6.8v5.1c0,3.1-0.7,4.9-2.9,5.8c2.4,1.1,2.9,2.8,2.9,6v7.1
		c0,6.1-0.9,7.8-7.7,7.8h-7.5v-38.5H77.7z M76.2,271.9c0.2,0,0.4,0,0.6,0c1.1,0,1.5-0.5,1.5-1.7v-6.7c0-1.2-0.4-1.6-1.4-1.6
		c-0.5,0-0.7,0-0.7,0V271.9z M76.2,290.3c0.2,0,0.4,0,0.6,0c1.1,0,1.5-0.5,1.5-1.7v-9.5c0-1.2-0.4-1.7-1.5-1.7c-0.2,0-0.4,0-0.6,0
		V290.3z"/>
	<path fill="#FFF200" d="M101.9,256.9V288c0,6.5-0.9,7.7-7.5,7.7c-6.4,0-7.2-1.4-7.2-7.7v-8.6h6v9.5c0,1.1,0.3,1.7,1.1,1.7
		c0.8,0,1-0.6,1-1.7v-32H101.9z"/>
	<path fill="#FFF200" d="M115.8,256.9v5h-3.9v9.8h3.9v5.1h-3.9v13.5h3.9v5.1h-10.5v-38.5H115.8z"/>
	<path fill="#FFF200" d="M134,270h-6.6v-6.6c0-1.1-0.2-1.7-1.1-1.7c-0.8,0-1,0.6-1,1.7v25.5c0,1.1,0.3,1.6,1.1,1.6
		c0.8,0,1-0.5,1-1.6v-9.8h6.6v8.9c0,6.5-0.9,7.7-7.5,7.7c-6.7,0-7.7-1.1-7.7-7.7v-23.6c0-6.5,0.8-7.7,7.6-7.7c6.7,0,7.6,1,7.6,7.7
		V270z"/>
	<path fill="#FFF200" d="M148.7,256.9v5.1h-3.2v33.4h-6.6V262h-3.2v-5.1H148.7z"/>
	<path fill="#FFF200" d="M58.9,323.2c6.7,0,7.6,1,7.6,7.7v23.6c0,6.5-0.9,7.7-7.5,7.7c-6.7,0-7.7-1.1-7.7-7.7v-23.6
		C51.3,324.4,52,323.2,58.9,323.2z M57.8,355.5c0,1.1,0.3,1.6,1.1,1.6c0.8,0,1-0.5,1-1.6V330c0-1.1-0.2-1.7-1.1-1.7
		c-0.8,0-1,0.6-1,1.7V355.5z"/>
	<path fill="#FFF200" d="M80.2,323.5v5h-3.9v9.8h3.9v5.1h-3.9V362h-6.6v-38.5H80.2z"/>
	<path fill="#FFF200" d="M66.5,403.2h-6.6v-6.6c0-1.1-0.2-1.7-1.1-1.7c-0.8,0-1,0.6-1,1.7v25.5c0,1.1,0.3,1.6,1.1,1.6
		c0.8,0,1-0.5,1-1.6v-9.8h6.6v8.9c0,6.5-0.9,7.7-7.5,7.7c-6.7,0-7.7-1.1-7.7-7.7v-23.6c0-6.5,0.8-7.7,7.6-7.7c6.7,0,7.6,1,7.6,7.7
		V403.2z"/>
	<path fill="#FFF200" d="M76,390.1v38.5h-6.6v-38.5H76z"/>
	<path fill="#FFF200" d="M87.3,390.1c6.2,0,7.2,1.8,7.2,7.8v5c0,3.5-0.3,5.4-3,6.6c2.4,0.9,3,2.8,3,5.9v13.1H88v-14.3
		c0-1.2-0.4-1.8-1.6-1.8c-0.2,0-0.3,0-0.5,0v16h-6.6v-38.5H87.3z M85.9,406.9c0.2,0,0.4,0,0.6,0c1.2,0,1.5-0.5,1.5-2v-7.4
		c0-1.9,0-2.4-1.7-2.4c-0.1,0-0.3,0-0.4,0V406.9z"/>
	<path fill="#FFF200" d="M112.8,403.2h-6.6v-6.6c0-1.1-0.2-1.7-1.1-1.7c-0.8,0-1,0.6-1,1.7v25.5c0,1.1,0.3,1.6,1.1,1.6
		c0.8,0,1-0.5,1-1.6v-9.8h6.6v8.9c0,6.5-0.9,7.7-7.5,7.7c-6.7,0-7.7-1.1-7.7-7.7v-23.6c0-6.5,0.8-7.7,7.6-7.7c6.7,0,7.6,1,7.6,7.7
		V403.2z"/>
	<path fill="#FFF200" d="M122.1,390.1v32c0,1.1,0.2,1.7,1,1.7c0.8,0,1-0.6,1-1.7v-32h6.6v31.1c0,6.5-0.9,7.7-7.5,7.7
		c-6.7,0-7.7-1.1-7.7-7.7v-31.1H122.1z"/>
	<path fill="#FFF200" d="M141.6,390.1l2.4,18.5h0.3l2.4-18.5h7.7v38.5h-5.9l0.2-22.8h-0.4l-2.5,22.8h-3.5l-2.5-22.8h-0.4l0.2,22.8
		h-5.9v-38.5H141.6z"/>
	<path fill="#FFF200" d="M172.7,403.4h-6.5v-6.8c0-1.1-0.3-1.6-1.1-1.6c-0.8,0-0.9,0.6-0.9,1.6v6c0,1.2,0.1,1.7,1.5,2.5l4,2.3
		c2.6,1.5,3.1,3.3,3.1,5.8v8c0,6.6-0.8,7.7-7.6,7.7c-6.6,0-7.6-1.2-7.6-7.7v-8.5h6.6v9.4c0,1.1,0.3,1.7,1.1,1.7
		c0.7,0,0.9-0.6,0.9-1.7V414c0-1.2-0.1-1.6-1.5-2.4l-4.2-2.5c-2.5-1.4-3-3.3-3-6v-5.5c0-6.5,1-7.7,7.6-7.7c6.8,0,7.6,1.2,7.6,7.7
		V403.4z"/>
	<path fill="#FFF200" d="M187.7,390.1v5.1h-3.2v33.4h-6.6v-33.4h-3.2v-5.1H187.7z"/>
	<path fill="#FFF200" d="M200.1,390.1l3.9,38.5h-6.4l-0.5-8.2h-2.8l-0.5,8.2h-6.4l3.8-38.5H200.1z M194.6,415.3h2.2l-1-17.6h-0.2
		L194.6,415.3z"/>
	<path fill="#FFF200" d="M212.5,390.1l3.6,19.2h0.3l-0.1-19.2h5.7v38.5h-5.8l-3.7-19.7h-0.3l0.1,19.7h-5.7v-38.5H212.5z"/>
	<path fill="#FFF200" d="M240.4,403.2h-6.6v-6.6c0-1.1-0.2-1.7-1.1-1.7c-0.8,0-1,0.6-1,1.7v25.5c0,1.1,0.3,1.6,1.1,1.6s1-0.5,1-1.6
		v-9.8h6.6v8.9c0,6.5-0.9,7.7-7.5,7.7c-6.7,0-7.7-1.1-7.7-7.7v-23.6c0-6.5,0.8-7.7,7.6-7.7c6.7,0,7.6,1,7.6,7.7V403.2z"/>
	<path fill="#FFF200" d="M253.8,390.1v5h-3.9v9.8h3.9v5.1h-3.9v13.5h3.9v5.1h-10.5v-38.5H253.8z"/>
</g>
</svg>
