<?xml version="1.0" encoding="utf-8"?>
<!-- Generator: Adobe Illustrator 17.1.0, SVG Export Plug-In . SVG Version: 6.00 Build 0)  -->
<!DOCTYPE svg PUBLIC "-//W3C//DTD SVG 1.1//EN" "http://www.w3.org/Graphics/SVG/1.1/DTD/svg11.dtd">
<svg version="1.1" id="Layer_1" xmlns="http://www.w3.org/2000/svg" xmlns:xlink="http://www.w3.org/1999/xlink" x="0px" y="0px"
	 width="400px" height="600px" viewBox="0 0 400 600" enable-background="new 0 0 400 600" xml:space="preserve">
<g>
	<path fill="#231F20" d="M37.4,212h-10v-6.8H55v6.8H45v31.3h-7.6V212z"/>
	<path fill="#231F20" d="M78.7,205.2h8.4L76,228v15.2h-7.6V228l-11.2-22.8H66l6.2,14.6L78.7,205.2z"/>
	<path fill="#231F20" d="M91.8,205.2h12.4c6,0,13.2,2.7,13.2,12.1c0,8.8-6.5,12-12.6,12h-5.4v13.9h-7.6V205.2z M103.6,222.8
		c5,0,6.2-3,6.2-5.6s-1.8-5.6-6.1-5.6h-4.3v11.2L103.6,222.8L103.6,222.8z"/>
	<path fill="#231F20" d="M139.6,204.5c11.8,0,18.5,9.5,18.5,19.7s-6.7,19.7-18.5,19.7s-18.5-9.5-18.5-19.7
		C121,214,127.7,204.5,139.6,204.5z M139.6,211.2c-7.1,0-10.6,6.1-10.6,13c0,6.8,3.5,13,10.6,13s10.6-6.1,10.6-13
		C150.2,217.4,146.6,211.2,139.6,211.2z"/>
	<path fill="#231F20" d="M182.7,222.7h17.6c-0.3,14.1-8.1,21.2-18.6,21.2c-11.3,0-18.5-9.5-18.5-19.7s7.2-19.7,18.5-19.7
		c12.5,0,15.9,7.8,17.4,11.8l-7.9,0.5c-1.4-3.3-4.1-5.6-9.4-5.6c-6,0-10.6,4.9-10.6,13c0,6.8,4.3,13,11.1,13c6.1,0,9-4.4,9.6-7.9
		h-9.1v-6.6H182.7z"/>
	<path fill="#231F20" d="M219,228.2h-4.5v15H207v-38.1h14.2c8,0,12.6,5,12.6,11.3c0,4-2.2,9.2-7.1,10.7l8.9,16h-9.1L219,228.2z
		 M219.6,222c5.2,0,6.5-2.8,6.5-5.2c0-2.7-1.3-5.2-6.8-5.2h-4.8V222H219.6z"/>
	<path fill="#231F20" d="M261.7,235.3h-13.9l-2.5,7.9h-8.2l13.9-38.1h8l13.7,38.1h-8.4L261.7,235.3z M254.8,214.3h-0.1l-4.8,14.8
		h9.8L254.8,214.3z"/>
	<path fill="#231F20" d="M277.3,205.2h12.4c6,0,13.2,2.7,13.2,12.1c0,8.8-6.5,12-12.6,12h-5.4v13.9h-7.6V205.2z M289.1,222.8
		c5,0,6.2-3,6.2-5.6s-1.8-5.6-6.1-5.6h-4.3v11.2L289.1,222.8L289.1,222.8z"/>
	<path fill="#231F20" d="M331.6,227.4h-15.8v15.8h-7.6v-38.1h7.6v15.4h15.8v-15.4h7.6v38.1h-7.6V227.4z"/>
	<path fill="#231F20" d="M365.5,205.2h8.4L362.8,228v15.2h-7.6V228L344,205.2h8.9l6.2,14.6L365.5,205.2z"/>
	<path fill="#231F20" d="M30.4,255.8H38v38.1h-7.6V255.8z"/>
	<path fill="#231F20" d="M65.2,265.8c0-2.6-2.5-4.3-5.6-4.3c-3.8,0-6.1,1.7-6.1,4.2c0,2.6,2.5,3.9,4.4,4.5l7,2.2
		c5.1,1.6,8.7,4.6,8.7,10.4c0,4.7-3.3,11.6-13.9,11.6c-13.2,0-14.4-8.6-14.4-11.9l7.6-0.2c0,4,3.2,5.6,6.9,5.6
		c2.6,0,6.2-1.3,6.2-4.2c0-2-0.9-3.1-4.6-4.5l-8.3-3c-4.2-1.5-7.1-5.2-7.1-9.5c0-4.9,3.3-11.8,13.2-11.8c11.7,0,13.6,7.8,13.6,10.6
		L65.2,265.8z"/>
	<path fill="#231F20" d="M102,262.6H92v-6.8h27.6v6.8h-10v31.3H102V262.6z"/>
	<path fill="#231F20" d="M148.9,278h-15.8v15.8h-7.6v-38.1h7.6v15.4h15.8v-15.4h7.6v38.1h-7.6V278z"/>
	<path fill="#231F20" d="M164.9,255.8h24.3v6.8h-16.7v8.7h16.3v6.8h-16.3v9.1h16.7v6.8h-24.3V255.8z"/>
	<path fill="#231F20" d="M209.9,255.8h13.5c8.1,0,12.3,4.2,12.3,10.3c0,4.2-2.4,6.6-5.1,7.8v0.1c3.4,0.8,6.3,3.9,6.3,8.7
		c0,7-5.4,11.1-13.2,11.1h-13.8V255.8z M222.1,271.4c3.6,0,6-1.6,6-4.7s-2.3-4.5-5.4-4.5h-5.3v9.2H222.1z M222.5,287.4
		c4.8,0,6.5-2.1,6.5-4.8c0-2.4-1.5-5-5.9-5h-5.6v9.8H222.5z"/>
	<path fill="#231F20" d="M243.6,255.8h24.3v6.8h-16.7v8.7h16.3v6.8h-16.3v9.1h16.7v6.8h-24.3L243.6,255.8L243.6,255.8z"/>
	<path fill="#231F20" d="M293,265.8c0-2.6-2.5-4.3-5.6-4.3c-3.8,0-6.1,1.7-6.1,4.2c0,2.6,2.5,3.9,4.4,4.5l7,2.2
		c5.1,1.6,8.7,4.6,8.7,10.4c0,4.7-3.3,11.6-13.9,11.6c-13.2,0-14.4-8.6-14.4-11.9l7.6-0.2c0,4,3.2,5.6,6.9,5.6
		c2.6,0,6.2-1.3,6.2-4.2c0-2-0.9-3.1-4.6-4.5l-8.3-3c-4.2-1.5-7.1-5.2-7.1-9.5c0-4.9,3.3-11.8,13.2-11.8c11.7,0,13.6,7.8,13.6,10.6
		L293,265.8z"/>
	<path fill="#231F20" d="M315.8,262.6h-10v-6.8h27.6v6.8h-10v31.3h-7.6V262.6z"/>
	<path fill="#231F20" d="M29.9,306.4h12.4c6,0,13.2,2.7,13.2,12.1c0,8.8-6.5,12-12.6,12h-5.4v13.9h-7.6V306.4z M41.8,324.1
		c5,0,6.2-3,6.2-5.6s-1.8-5.6-6.1-5.6h-4.3v11.2H41.8z"/>
	<path fill="#231F20" d="M61.3,306.4h7.6v38.1h-7.6C61.3,344.5,61.3,306.4,61.3,306.4z"/>
	<path fill="#231F20" d="M102.6,319.9c-1.1-4.9-4.5-7.4-8.8-7.4c-6.2,0-9.9,5.9-9.9,13c0,8,3.9,12.9,10.1,12.9
		c3.6,0,7.2-2.4,8.5-6.7l7.8,0.6c-2.6,8.5-8.8,13-16.6,13c-10.3,0-17.7-7-17.7-19.7c0-11.5,7.2-19.7,17.7-19.7
		c8,0,14.6,3.9,16.6,13.7L102.6,319.9z"/>
	<path fill="#231F20" d="M124.5,313.2h-10v-6.8h27.6v6.8h-10v31.3h-7.6C124.5,344.5,124.5,313.2,124.5,313.2z"/>
	<path fill="#231F20" d="M171.7,306.4h7.6v22.3c0,11.9-7.5,16.5-15.8,16.5s-15.8-4.6-15.8-16.5v-22.3h7.6v22.3
		c0,6.3,2.8,9.7,8.3,9.7c5.4,0,8.3-3.3,8.3-9.7v-22.3H171.7z"/>
	<path fill="#231F20" d="M199.4,329.5h-4.5v15h-7.6v-38.1h14.2c8,0,12.6,5,12.6,11.3c0,4-2.2,9.2-7.1,10.7l8.9,16h-9.1L199.4,329.5z
		 M200,323.3c5.2,0,6.5-2.8,6.5-5.2c0-2.7-1.3-5.2-6.8-5.2h-4.8v10.4L200,323.3L200,323.3z"/>
	<path fill="#231F20" d="M221.1,306.4h24.3v6.8h-16.7v8.7H245v6.8h-16.3v9.1h16.7v6.8h-24.3L221.1,306.4L221.1,306.4z"/>
	<path fill="#231F20" d="M283,305.7c11.8,0,18.5,9.5,18.5,19.7s-6.7,19.7-18.5,19.7s-18.5-9.5-18.5-19.7S271.1,305.7,283,305.7z
		 M283,312.5c-7.1,0-10.6,6.1-10.6,13s3.5,13,10.6,13s10.6-6.1,10.6-13S290.1,312.5,283,312.5z"/>
	<path fill="#231F20" d="M308.2,306.4h22.3v6.8h-14.7v8.7h14.4v6.8h-14.4v15.8h-7.6L308.2,306.4L308.2,306.4z"/>
	<path fill="#231F20" d="M50.9,387.2h-14l-2.5,7.9h-8.2L40.1,357h8l13.7,38.1h-8.4L50.9,387.2z M44,366.2L44,366.2L39.1,381h9.8
		L44,366.2z"/>
	<path fill="#231F20" d="M73.9,369.1L73.9,369.1l-0.1,26h-7.3V357h8.2l15.4,25.6h0.1V357h7.3v38.1h-7.8L73.9,369.1z"/>
	<path fill="#231F20" d="M120,357h24.3v6.8h-16.7v8.7h16.3v6.8h-16.3v9.1h16.7v6.8H120V357z"/>
	<path fill="#231F20" d="M162.9,380.1h-4.5v15h-7.6V357H165c8,0,12.6,5,12.6,11.3c0,4-2.2,9.2-7.1,10.7l8.9,16h-9.1L162.9,380.1z
		 M163.5,373.9c5.2,0,6.5-2.8,6.5-5.2c0-2.7-1.3-5.2-6.8-5.2h-4.8v10.4L163.5,373.9L163.5,373.9z"/>
	<path fill="#231F20" d="M205.6,387.2h-13.9l-2.5,7.9H181l13.9-38.1h8l13.7,38.1h-8.4L205.6,387.2z M198.7,366.2h-0.1l-4.8,14.8h9.8
		L198.7,366.2z"/>
</g>
</svg>
